G04 #@! TF.FileFunction,Copper,L2,Bot,Signal*
%FSLAX46Y46*%
G04 Gerber Fmt 4.6, Leading zero omitted, Abs format (unit mm)*
G04 Created by KiCad (PCBNEW 4.0.6) date 09/11/17 20:09:05*
%MOMM*%
%LPD*%
G01*
G04 APERTURE LIST*
%ADD10C,0.100000*%
%ADD11R,0.500000X0.900000*%
%ADD12R,5.100000X5.100000*%
%ADD13C,16.000000*%
%ADD14R,1.000000X1.250000*%
%ADD15R,1.250000X1.000000*%
%ADD16R,1.700000X1.700000*%
%ADD17O,1.700000X1.700000*%
%ADD18R,1.600000X0.550000*%
%ADD19R,0.550000X1.600000*%
%ADD20R,1.000000X2.000000*%
%ADD21R,1.500000X1.500000*%
%ADD22C,0.600000*%
%ADD23C,0.250000*%
%ADD24C,0.254000*%
G04 APERTURE END LIST*
D10*
D11*
X133362000Y-91948000D03*
X134862000Y-91948000D03*
X145808000Y-116840000D03*
X147308000Y-116840000D03*
X145808000Y-106680000D03*
X147308000Y-106680000D03*
X145808000Y-111760000D03*
X147308000Y-111760000D03*
X138164000Y-76454000D03*
X136664000Y-76454000D03*
X145808000Y-101600000D03*
X147308000Y-101600000D03*
D12*
X104700000Y-138000000D03*
X130300000Y-138000000D03*
D13*
X117500000Y-138000000D03*
D12*
X139700000Y-138000000D03*
X165300000Y-138000000D03*
D13*
X152500000Y-138000000D03*
D14*
X140700000Y-72136000D03*
X138700000Y-72136000D03*
D15*
X125730000Y-82312000D03*
X125730000Y-84312000D03*
D16*
X162306000Y-81026000D03*
D17*
X164846000Y-81026000D03*
X162306000Y-83566000D03*
X164846000Y-83566000D03*
X162306000Y-86106000D03*
X164846000Y-86106000D03*
D18*
X131126000Y-85864000D03*
X131126000Y-85064000D03*
X131126000Y-84264000D03*
X131126000Y-83464000D03*
X131126000Y-82664000D03*
X131126000Y-81864000D03*
X131126000Y-81064000D03*
X131126000Y-80264000D03*
D19*
X132576000Y-78814000D03*
X133376000Y-78814000D03*
X134176000Y-78814000D03*
X134976000Y-78814000D03*
X135776000Y-78814000D03*
X136576000Y-78814000D03*
X137376000Y-78814000D03*
X138176000Y-78814000D03*
D18*
X139626000Y-80264000D03*
X139626000Y-81064000D03*
X139626000Y-81864000D03*
X139626000Y-82664000D03*
X139626000Y-83464000D03*
X139626000Y-84264000D03*
X139626000Y-85064000D03*
X139626000Y-85864000D03*
D19*
X138176000Y-87314000D03*
X137376000Y-87314000D03*
X136576000Y-87314000D03*
X135776000Y-87314000D03*
X134976000Y-87314000D03*
X134176000Y-87314000D03*
X133376000Y-87314000D03*
X132576000Y-87314000D03*
D20*
X139400000Y-68390000D03*
X138130000Y-68390000D03*
X136860000Y-68390000D03*
X135590000Y-68390000D03*
X134320000Y-68390000D03*
X133050000Y-68390000D03*
X131780000Y-68390000D03*
X130510000Y-68390000D03*
D21*
X129920000Y-56890000D03*
D22*
X141986000Y-72136000D03*
X140970000Y-67818000D03*
X141478000Y-81026000D03*
X125730000Y-81026000D03*
X132588000Y-91948000D03*
X129540000Y-83566000D03*
X165100000Y-134366000D03*
X139446000Y-141732000D03*
X139446000Y-134366000D03*
X165100000Y-141478000D03*
X130556000Y-141732000D03*
X130556000Y-134366000D03*
X129540000Y-81788000D03*
X104648000Y-141732000D03*
X104648000Y-134366000D03*
X139954000Y-146812000D03*
X144018000Y-101600000D03*
X138938000Y-101600000D03*
X133858000Y-101600000D03*
X128778000Y-101600000D03*
X129540000Y-85090000D03*
X144018000Y-106680000D03*
X138938000Y-106680000D03*
X133858000Y-106680000D03*
X128778000Y-106680000D03*
X144018000Y-111760000D03*
X138938000Y-111760000D03*
X133858000Y-111760000D03*
X128778000Y-111760000D03*
X144018000Y-116840000D03*
X138938000Y-116840000D03*
X133858000Y-116840000D03*
X128778000Y-116840000D03*
X132588000Y-80264000D03*
X133388003Y-80264000D03*
X134229947Y-80222059D03*
X135128000Y-70358000D03*
X138176000Y-80264000D03*
X135382000Y-80264000D03*
X135636000Y-66548000D03*
X135382000Y-77216000D03*
X136906000Y-66548000D03*
X136652000Y-80264000D03*
D23*
X140700000Y-72136000D02*
X141986000Y-72136000D01*
X139400000Y-68390000D02*
X140398000Y-68390000D01*
X140398000Y-68390000D02*
X140970000Y-67818000D01*
X140700000Y-72136000D02*
X140700000Y-68940000D01*
X140700000Y-68940000D02*
X140150000Y-68390000D01*
X140150000Y-68390000D02*
X139400000Y-68390000D01*
X139626000Y-81064000D02*
X141440000Y-81064000D01*
X141440000Y-81064000D02*
X141478000Y-81026000D01*
X125730000Y-82312000D02*
X125730000Y-81026000D01*
X129616000Y-81864000D02*
X129540000Y-81788000D01*
X129642000Y-83464000D02*
X129540000Y-83566000D01*
X133362000Y-91948000D02*
X132588000Y-91948000D01*
X165300000Y-138000000D02*
X165300000Y-134566000D01*
X165300000Y-134566000D02*
X165100000Y-134366000D01*
X131126000Y-81864000D02*
X129616000Y-81864000D01*
X139700000Y-138000000D02*
X139700000Y-141478000D01*
X139700000Y-141478000D02*
X139446000Y-141732000D01*
X139700000Y-138000000D02*
X139700000Y-134620000D01*
X165300000Y-138000000D02*
X165300000Y-141278000D01*
X130300000Y-138000000D02*
X130300000Y-141476000D01*
X130300000Y-141476000D02*
X130556000Y-141732000D01*
X131126000Y-83464000D02*
X129642000Y-83464000D01*
X130300000Y-134622000D02*
X130556000Y-134366000D01*
X104700000Y-138000000D02*
X104700000Y-141680000D01*
X139700000Y-134620000D02*
X139446000Y-134366000D01*
X104700000Y-141680000D02*
X104648000Y-141732000D01*
X104700000Y-138000000D02*
X104700000Y-134418000D01*
X165300000Y-141278000D02*
X165100000Y-141478000D01*
X104700000Y-134418000D02*
X104648000Y-134366000D01*
X130300000Y-138000000D02*
X130300000Y-134622000D01*
X129920000Y-56890000D02*
X129920000Y-57890000D01*
X129920000Y-57890000D02*
X129794000Y-58016000D01*
X144018000Y-101600000D02*
X145808000Y-101600000D01*
X138938000Y-101600000D02*
X144018000Y-101600000D01*
X133858000Y-101600000D02*
X138938000Y-101600000D01*
X128778000Y-101600000D02*
X133096000Y-101600000D01*
X133096000Y-101600000D02*
X133858000Y-101600000D01*
X129540000Y-85090000D02*
X131100000Y-85090000D01*
X131100000Y-85090000D02*
X131126000Y-85064000D01*
X144018000Y-106680000D02*
X145808000Y-106680000D01*
X138938000Y-106680000D02*
X144018000Y-106680000D01*
X133858000Y-106680000D02*
X138938000Y-106680000D01*
X128778000Y-106680000D02*
X133858000Y-106680000D01*
X144018000Y-111760000D02*
X145808000Y-111760000D01*
X138938000Y-111760000D02*
X144018000Y-111760000D01*
X133858000Y-111760000D02*
X138938000Y-111760000D01*
X128778000Y-111760000D02*
X133858000Y-111760000D01*
X144018000Y-116840000D02*
X145808000Y-116840000D01*
X138938000Y-116840000D02*
X144018000Y-116840000D01*
X133858000Y-116840000D02*
X138938000Y-116840000D01*
X128778000Y-116840000D02*
X133858000Y-116840000D01*
X132588000Y-80264000D02*
X132588000Y-78826000D01*
X132588000Y-78826000D02*
X132576000Y-78814000D01*
X133388003Y-80264000D02*
X133388003Y-78826003D01*
X133388003Y-78826003D02*
X133376000Y-78814000D01*
X134229947Y-80222059D02*
X134229947Y-78867947D01*
X134229947Y-78867947D02*
X134176000Y-78814000D01*
X138176000Y-78814000D02*
X138176000Y-76466000D01*
X138176000Y-76466000D02*
X138164000Y-76454000D01*
X138176000Y-78814000D02*
X161194000Y-78814000D01*
X161194000Y-78814000D02*
X162306000Y-79926000D01*
X162306000Y-79926000D02*
X162306000Y-81026000D01*
X135128000Y-70358000D02*
X134320000Y-69550000D01*
X134320000Y-69550000D02*
X134320000Y-68390000D01*
X134381942Y-68451942D02*
X134320000Y-68390000D01*
X139626000Y-80264000D02*
X138176000Y-80264000D01*
X154940000Y-80264000D02*
X158242000Y-83566000D01*
X158242000Y-83566000D02*
X162306000Y-83566000D01*
X139626000Y-80264000D02*
X154940000Y-80264000D01*
X137376000Y-73966000D02*
X137376000Y-75184000D01*
X137376000Y-75184000D02*
X137376000Y-77764000D01*
X164846000Y-83566000D02*
X166878000Y-81534000D01*
X166878000Y-81534000D02*
X166878000Y-79248000D01*
X166878000Y-79248000D02*
X162814000Y-75184000D01*
X162814000Y-75184000D02*
X137376000Y-75184000D01*
X133050000Y-68390000D02*
X133050000Y-69640000D01*
X133050000Y-69640000D02*
X137376000Y-73966000D01*
X137376000Y-77764000D02*
X137376000Y-78814000D01*
X134862000Y-91948000D02*
X156464000Y-91948000D01*
X156464000Y-91948000D02*
X162306000Y-86106000D01*
X134976000Y-87314000D02*
X134976000Y-91834000D01*
X134976000Y-91834000D02*
X134862000Y-91948000D01*
X136664000Y-76454000D02*
X136164000Y-76454000D01*
X131780000Y-72070000D02*
X131780000Y-69640000D01*
X136164000Y-76454000D02*
X131780000Y-72070000D01*
X131780000Y-69640000D02*
X131780000Y-68390000D01*
X131318000Y-91948000D02*
X134176000Y-89090000D01*
X134176000Y-89090000D02*
X134176000Y-87314000D01*
X134874000Y-96774000D02*
X131318000Y-93218000D01*
X131318000Y-93218000D02*
X131318000Y-91948000D01*
X143182000Y-96774000D02*
X134874000Y-96774000D01*
X147308000Y-101600000D02*
X147308000Y-100900000D01*
X147308000Y-100900000D02*
X143182000Y-96774000D01*
X147308000Y-106680000D02*
X147308000Y-106480000D01*
X147308000Y-106480000D02*
X145476000Y-104648000D01*
X145476000Y-104648000D02*
X126238000Y-104648000D01*
X126238000Y-104648000D02*
X124968000Y-103378000D01*
X124968000Y-103378000D02*
X124968000Y-97282000D01*
X124968000Y-97282000D02*
X133376000Y-88874000D01*
X133376000Y-88874000D02*
X133376000Y-88364000D01*
X133376000Y-88364000D02*
X133376000Y-87314000D01*
X147308000Y-111760000D02*
X147308000Y-111060000D01*
X147308000Y-111060000D02*
X145722000Y-109474000D01*
X145722000Y-109474000D02*
X125222000Y-109474000D01*
X124206000Y-108458000D02*
X124206000Y-96734000D01*
X125222000Y-109474000D02*
X124206000Y-108458000D01*
X124206000Y-96734000D02*
X132576000Y-88364000D01*
X132576000Y-88364000D02*
X132576000Y-87314000D01*
X147308000Y-116840000D02*
X147308000Y-116640000D01*
X147308000Y-116640000D02*
X144968000Y-114300000D01*
X144968000Y-114300000D02*
X125984000Y-114300000D01*
X125984000Y-114300000D02*
X123444000Y-111760000D01*
X123444000Y-111760000D02*
X123444000Y-96266000D01*
X123444000Y-96266000D02*
X131126000Y-88584000D01*
X131126000Y-88584000D02*
X131126000Y-86389000D01*
X131126000Y-86389000D02*
X131126000Y-85864000D01*
X135382000Y-80264000D02*
X134976000Y-79858000D01*
X134976000Y-79858000D02*
X134976000Y-78814000D01*
X135636000Y-66548000D02*
X135636000Y-68344000D01*
X135636000Y-68344000D02*
X135590000Y-68390000D01*
X135776000Y-78814000D02*
X135776000Y-77610000D01*
X135776000Y-77610000D02*
X135382000Y-77216000D01*
X136906000Y-66548000D02*
X136906000Y-68344000D01*
X136906000Y-68344000D02*
X136860000Y-68390000D01*
X136576000Y-78814000D02*
X136576000Y-80188000D01*
X136576000Y-80188000D02*
X136652000Y-80264000D01*
D24*
G36*
X103947104Y-58190669D02*
X105059251Y-58652473D01*
X106263466Y-58653524D01*
X107376417Y-58193662D01*
X108040236Y-57531000D01*
X128535000Y-57531000D01*
X128535000Y-57766310D01*
X128631673Y-57999699D01*
X128810302Y-58178327D01*
X129043691Y-58275000D01*
X129634250Y-58275000D01*
X129793000Y-58116250D01*
X129793000Y-57531000D01*
X130047000Y-57531000D01*
X130047000Y-58116250D01*
X130205750Y-58275000D01*
X130796309Y-58275000D01*
X131029698Y-58178327D01*
X131208327Y-57999699D01*
X131305000Y-57766310D01*
X131305000Y-57531000D01*
X161962585Y-57531000D01*
X162621104Y-58190669D01*
X163733251Y-58652473D01*
X164937466Y-58653524D01*
X166050417Y-58193662D01*
X166714236Y-57531000D01*
X169548000Y-57531000D01*
X169548000Y-149548000D01*
X100452000Y-149548000D01*
X100452000Y-144202378D01*
X111477227Y-144202378D01*
X112428323Y-145196631D01*
X115568413Y-146589667D01*
X119002569Y-146675004D01*
X122207974Y-145439650D01*
X122571677Y-145196631D01*
X123522773Y-144202378D01*
X146477227Y-144202378D01*
X147428323Y-145196631D01*
X150568413Y-146589667D01*
X154002569Y-146675004D01*
X157207974Y-145439650D01*
X157571677Y-145196631D01*
X158522773Y-144202378D01*
X152500000Y-138179605D01*
X146477227Y-144202378D01*
X123522773Y-144202378D01*
X117500000Y-138179605D01*
X111477227Y-144202378D01*
X100452000Y-144202378D01*
X100452000Y-135450000D01*
X101765615Y-135450000D01*
X101765615Y-140550000D01*
X101791903Y-140689708D01*
X101874470Y-140818020D01*
X102000453Y-140904101D01*
X102150000Y-140934385D01*
X104198000Y-140934385D01*
X104198000Y-141224627D01*
X104074402Y-141348010D01*
X103971118Y-141596746D01*
X103970883Y-141866073D01*
X104073733Y-142114989D01*
X104264010Y-142305598D01*
X104512746Y-142408882D01*
X104782073Y-142409117D01*
X105030989Y-142306267D01*
X105221598Y-142115990D01*
X105324882Y-141867254D01*
X105325117Y-141597927D01*
X105222267Y-141349011D01*
X105202000Y-141328709D01*
X105202000Y-140934385D01*
X107250000Y-140934385D01*
X107389708Y-140908097D01*
X107518020Y-140825530D01*
X107604101Y-140699547D01*
X107634385Y-140550000D01*
X107634385Y-139502569D01*
X108824996Y-139502569D01*
X110060350Y-142707974D01*
X110303369Y-143071677D01*
X111297622Y-144022773D01*
X117320395Y-138000000D01*
X117679605Y-138000000D01*
X123702378Y-144022773D01*
X124696631Y-143071677D01*
X126089667Y-139931587D01*
X126175004Y-136497431D01*
X125771328Y-135450000D01*
X127365615Y-135450000D01*
X127365615Y-140550000D01*
X127391903Y-140689708D01*
X127474470Y-140818020D01*
X127600453Y-140904101D01*
X127750000Y-140934385D01*
X129798000Y-140934385D01*
X129798000Y-141475995D01*
X129797999Y-141476000D01*
X129836212Y-141668107D01*
X129879000Y-141732144D01*
X129878883Y-141866073D01*
X129981733Y-142114989D01*
X130172010Y-142305598D01*
X130420746Y-142408882D01*
X130690073Y-142409117D01*
X130938989Y-142306267D01*
X131129598Y-142115990D01*
X131232882Y-141867254D01*
X131233117Y-141597927D01*
X131130267Y-141349011D01*
X130939990Y-141158402D01*
X130802000Y-141101104D01*
X130802000Y-140934385D01*
X132850000Y-140934385D01*
X132989708Y-140908097D01*
X133118020Y-140825530D01*
X133204101Y-140699547D01*
X133234385Y-140550000D01*
X133234385Y-135450000D01*
X136765615Y-135450000D01*
X136765615Y-140550000D01*
X136791903Y-140689708D01*
X136874470Y-140818020D01*
X137000453Y-140904101D01*
X137150000Y-140934385D01*
X139198000Y-140934385D01*
X139198000Y-141101957D01*
X139063011Y-141157733D01*
X138872402Y-141348010D01*
X138769118Y-141596746D01*
X138768883Y-141866073D01*
X138871733Y-142114989D01*
X139062010Y-142305598D01*
X139310746Y-142408882D01*
X139580073Y-142409117D01*
X139828989Y-142306267D01*
X140019598Y-142115990D01*
X140122882Y-141867254D01*
X140123001Y-141731150D01*
X140157178Y-141680000D01*
X140163788Y-141670108D01*
X140202000Y-141478000D01*
X140202000Y-140934385D01*
X142250000Y-140934385D01*
X142389708Y-140908097D01*
X142518020Y-140825530D01*
X142604101Y-140699547D01*
X142634385Y-140550000D01*
X142634385Y-139502569D01*
X143824996Y-139502569D01*
X145060350Y-142707974D01*
X145303369Y-143071677D01*
X146297622Y-144022773D01*
X152320395Y-138000000D01*
X152679605Y-138000000D01*
X158702378Y-144022773D01*
X159696631Y-143071677D01*
X161089667Y-139931587D01*
X161175004Y-136497431D01*
X160771328Y-135450000D01*
X162365615Y-135450000D01*
X162365615Y-140550000D01*
X162391903Y-140689708D01*
X162474470Y-140818020D01*
X162600453Y-140904101D01*
X162750000Y-140934385D01*
X164686306Y-140934385D01*
X164526402Y-141094010D01*
X164423118Y-141342746D01*
X164422883Y-141612073D01*
X164525733Y-141860989D01*
X164716010Y-142051598D01*
X164964746Y-142154882D01*
X165234073Y-142155117D01*
X165482989Y-142052267D01*
X165673598Y-141861990D01*
X165776882Y-141613254D01*
X165777065Y-141403359D01*
X165802001Y-141278000D01*
X165802000Y-141277995D01*
X165802000Y-140934385D01*
X167850000Y-140934385D01*
X167989708Y-140908097D01*
X168118020Y-140825530D01*
X168204101Y-140699547D01*
X168234385Y-140550000D01*
X168234385Y-135450000D01*
X168208097Y-135310292D01*
X168125530Y-135181980D01*
X167999547Y-135095899D01*
X167850000Y-135065615D01*
X165802000Y-135065615D01*
X165802000Y-134566005D01*
X165802001Y-134566000D01*
X165776935Y-134439989D01*
X165777117Y-134231927D01*
X165674267Y-133983011D01*
X165483990Y-133792402D01*
X165235254Y-133689118D01*
X164965927Y-133688883D01*
X164717011Y-133791733D01*
X164526402Y-133982010D01*
X164423118Y-134230746D01*
X164422883Y-134500073D01*
X164525733Y-134748989D01*
X164716010Y-134939598D01*
X164798000Y-134973643D01*
X164798000Y-135065615D01*
X162750000Y-135065615D01*
X162610292Y-135091903D01*
X162481980Y-135174470D01*
X162395899Y-135300453D01*
X162365615Y-135450000D01*
X160771328Y-135450000D01*
X159939650Y-133292026D01*
X159696631Y-132928323D01*
X158702378Y-131977227D01*
X152679605Y-138000000D01*
X152320395Y-138000000D01*
X146297622Y-131977227D01*
X145303369Y-132928323D01*
X143910333Y-136068413D01*
X143824996Y-139502569D01*
X142634385Y-139502569D01*
X142634385Y-135450000D01*
X142608097Y-135310292D01*
X142525530Y-135181980D01*
X142399547Y-135095899D01*
X142250000Y-135065615D01*
X140202000Y-135065615D01*
X140202000Y-134620000D01*
X140163788Y-134427893D01*
X140163788Y-134427892D01*
X140122999Y-134366848D01*
X140123117Y-134231927D01*
X140020267Y-133983011D01*
X139829990Y-133792402D01*
X139581254Y-133689118D01*
X139311927Y-133688883D01*
X139063011Y-133791733D01*
X138872402Y-133982010D01*
X138769118Y-134230746D01*
X138768883Y-134500073D01*
X138871733Y-134748989D01*
X139062010Y-134939598D01*
X139198000Y-134996066D01*
X139198000Y-135065615D01*
X137150000Y-135065615D01*
X137010292Y-135091903D01*
X136881980Y-135174470D01*
X136795899Y-135300453D01*
X136765615Y-135450000D01*
X133234385Y-135450000D01*
X133208097Y-135310292D01*
X133125530Y-135181980D01*
X132999547Y-135095899D01*
X132850000Y-135065615D01*
X130802000Y-135065615D01*
X130802000Y-134996870D01*
X130938989Y-134940267D01*
X131129598Y-134749990D01*
X131232882Y-134501254D01*
X131233117Y-134231927D01*
X131130267Y-133983011D01*
X130939990Y-133792402D01*
X130691254Y-133689118D01*
X130421927Y-133688883D01*
X130173011Y-133791733D01*
X129982402Y-133982010D01*
X129879118Y-134230746D01*
X129879000Y-134365856D01*
X129836212Y-134429893D01*
X129797999Y-134622000D01*
X129798000Y-134622005D01*
X129798000Y-135065615D01*
X127750000Y-135065615D01*
X127610292Y-135091903D01*
X127481980Y-135174470D01*
X127395899Y-135300453D01*
X127365615Y-135450000D01*
X125771328Y-135450000D01*
X124939650Y-133292026D01*
X124696631Y-132928323D01*
X123702378Y-131977227D01*
X117679605Y-138000000D01*
X117320395Y-138000000D01*
X111297622Y-131977227D01*
X110303369Y-132928323D01*
X108910333Y-136068413D01*
X108824996Y-139502569D01*
X107634385Y-139502569D01*
X107634385Y-135450000D01*
X107608097Y-135310292D01*
X107525530Y-135181980D01*
X107399547Y-135095899D01*
X107250000Y-135065615D01*
X105202000Y-135065615D01*
X105202000Y-134769554D01*
X105221598Y-134749990D01*
X105324882Y-134501254D01*
X105325117Y-134231927D01*
X105222267Y-133983011D01*
X105031990Y-133792402D01*
X104783254Y-133689118D01*
X104513927Y-133688883D01*
X104265011Y-133791733D01*
X104074402Y-133982010D01*
X103971118Y-134230746D01*
X103970883Y-134500073D01*
X104073733Y-134748989D01*
X104198000Y-134873473D01*
X104198000Y-135065615D01*
X102150000Y-135065615D01*
X102010292Y-135091903D01*
X101881980Y-135174470D01*
X101795899Y-135300453D01*
X101765615Y-135450000D01*
X100452000Y-135450000D01*
X100452000Y-131797622D01*
X111477227Y-131797622D01*
X117500000Y-137820395D01*
X123522773Y-131797622D01*
X146477227Y-131797622D01*
X152500000Y-137820395D01*
X158522773Y-131797622D01*
X157571677Y-130803369D01*
X154431587Y-129410333D01*
X150997431Y-129324996D01*
X147792026Y-130560350D01*
X147428323Y-130803369D01*
X146477227Y-131797622D01*
X123522773Y-131797622D01*
X122571677Y-130803369D01*
X119431587Y-129410333D01*
X115997431Y-129324996D01*
X112792026Y-130560350D01*
X112428323Y-130803369D01*
X111477227Y-131797622D01*
X100452000Y-131797622D01*
X100452000Y-96266000D01*
X122941999Y-96266000D01*
X122942000Y-96266005D01*
X122942000Y-111759995D01*
X122941999Y-111760000D01*
X122980212Y-111952107D01*
X123089032Y-112114968D01*
X125629030Y-114654965D01*
X125629032Y-114654968D01*
X125791893Y-114763788D01*
X125984000Y-114802000D01*
X144760064Y-114802000D01*
X145963680Y-116005615D01*
X145558000Y-116005615D01*
X145418292Y-116031903D01*
X145289980Y-116114470D01*
X145203899Y-116240453D01*
X145184145Y-116338000D01*
X144473463Y-116338000D01*
X144401990Y-116266402D01*
X144153254Y-116163118D01*
X143883927Y-116162883D01*
X143635011Y-116265733D01*
X143562618Y-116338000D01*
X139393463Y-116338000D01*
X139321990Y-116266402D01*
X139073254Y-116163118D01*
X138803927Y-116162883D01*
X138555011Y-116265733D01*
X138482618Y-116338000D01*
X134313463Y-116338000D01*
X134241990Y-116266402D01*
X133993254Y-116163118D01*
X133723927Y-116162883D01*
X133475011Y-116265733D01*
X133402618Y-116338000D01*
X129233463Y-116338000D01*
X129161990Y-116266402D01*
X128913254Y-116163118D01*
X128643927Y-116162883D01*
X128395011Y-116265733D01*
X128204402Y-116456010D01*
X128101118Y-116704746D01*
X128100883Y-116974073D01*
X128203733Y-117222989D01*
X128394010Y-117413598D01*
X128642746Y-117516882D01*
X128912073Y-117517117D01*
X129160989Y-117414267D01*
X129233382Y-117342000D01*
X133402537Y-117342000D01*
X133474010Y-117413598D01*
X133722746Y-117516882D01*
X133992073Y-117517117D01*
X134240989Y-117414267D01*
X134313382Y-117342000D01*
X138482537Y-117342000D01*
X138554010Y-117413598D01*
X138802746Y-117516882D01*
X139072073Y-117517117D01*
X139320989Y-117414267D01*
X139393382Y-117342000D01*
X143562537Y-117342000D01*
X143634010Y-117413598D01*
X143882746Y-117516882D01*
X144152073Y-117517117D01*
X144400989Y-117414267D01*
X144473382Y-117342000D01*
X145183400Y-117342000D01*
X145199903Y-117429708D01*
X145282470Y-117558020D01*
X145408453Y-117644101D01*
X145558000Y-117674385D01*
X146058000Y-117674385D01*
X146197708Y-117648097D01*
X146326020Y-117565530D01*
X146412101Y-117439547D01*
X146442385Y-117290000D01*
X146442385Y-116484320D01*
X146673615Y-116715550D01*
X146673615Y-117290000D01*
X146699903Y-117429708D01*
X146782470Y-117558020D01*
X146908453Y-117644101D01*
X147058000Y-117674385D01*
X147558000Y-117674385D01*
X147697708Y-117648097D01*
X147826020Y-117565530D01*
X147912101Y-117439547D01*
X147942385Y-117290000D01*
X147942385Y-116390000D01*
X147916097Y-116250292D01*
X147833530Y-116121980D01*
X147707547Y-116035899D01*
X147558000Y-116005615D01*
X147383550Y-116005615D01*
X145322968Y-113945032D01*
X145160107Y-113836212D01*
X144968000Y-113797999D01*
X144967995Y-113798000D01*
X126191935Y-113798000D01*
X124288009Y-111894073D01*
X128100883Y-111894073D01*
X128203733Y-112142989D01*
X128394010Y-112333598D01*
X128642746Y-112436882D01*
X128912073Y-112437117D01*
X129160989Y-112334267D01*
X129233382Y-112262000D01*
X133402537Y-112262000D01*
X133474010Y-112333598D01*
X133722746Y-112436882D01*
X133992073Y-112437117D01*
X134240989Y-112334267D01*
X134313382Y-112262000D01*
X138482537Y-112262000D01*
X138554010Y-112333598D01*
X138802746Y-112436882D01*
X139072073Y-112437117D01*
X139320989Y-112334267D01*
X139393382Y-112262000D01*
X143562537Y-112262000D01*
X143634010Y-112333598D01*
X143882746Y-112436882D01*
X144152073Y-112437117D01*
X144400989Y-112334267D01*
X144473382Y-112262000D01*
X145183400Y-112262000D01*
X145199903Y-112349708D01*
X145282470Y-112478020D01*
X145408453Y-112564101D01*
X145558000Y-112594385D01*
X146058000Y-112594385D01*
X146197708Y-112568097D01*
X146326020Y-112485530D01*
X146412101Y-112359547D01*
X146442385Y-112210000D01*
X146442385Y-111310000D01*
X146416097Y-111170292D01*
X146333530Y-111041980D01*
X146207547Y-110955899D01*
X146058000Y-110925615D01*
X145558000Y-110925615D01*
X145418292Y-110951903D01*
X145289980Y-111034470D01*
X145203899Y-111160453D01*
X145184145Y-111258000D01*
X144473463Y-111258000D01*
X144401990Y-111186402D01*
X144153254Y-111083118D01*
X143883927Y-111082883D01*
X143635011Y-111185733D01*
X143562618Y-111258000D01*
X139393463Y-111258000D01*
X139321990Y-111186402D01*
X139073254Y-111083118D01*
X138803927Y-111082883D01*
X138555011Y-111185733D01*
X138482618Y-111258000D01*
X134313463Y-111258000D01*
X134241990Y-111186402D01*
X133993254Y-111083118D01*
X133723927Y-111082883D01*
X133475011Y-111185733D01*
X133402618Y-111258000D01*
X129233463Y-111258000D01*
X129161990Y-111186402D01*
X128913254Y-111083118D01*
X128643927Y-111082883D01*
X128395011Y-111185733D01*
X128204402Y-111376010D01*
X128101118Y-111624746D01*
X128100883Y-111894073D01*
X124288009Y-111894073D01*
X123946000Y-111552064D01*
X123946000Y-108907936D01*
X124867032Y-109828968D01*
X125029893Y-109937788D01*
X125222000Y-109976001D01*
X125222005Y-109976000D01*
X145514064Y-109976000D01*
X146702993Y-111164928D01*
X146673615Y-111310000D01*
X146673615Y-112210000D01*
X146699903Y-112349708D01*
X146782470Y-112478020D01*
X146908453Y-112564101D01*
X147058000Y-112594385D01*
X147558000Y-112594385D01*
X147697708Y-112568097D01*
X147826020Y-112485530D01*
X147912101Y-112359547D01*
X147942385Y-112210000D01*
X147942385Y-111310000D01*
X147916097Y-111170292D01*
X147833530Y-111041980D01*
X147802152Y-111020540D01*
X147771788Y-110867893D01*
X147662968Y-110705032D01*
X147662965Y-110705030D01*
X146076968Y-109119032D01*
X145914107Y-109010212D01*
X145722000Y-108971999D01*
X145721995Y-108972000D01*
X125429936Y-108972000D01*
X124708000Y-108250064D01*
X124708000Y-103827936D01*
X125883030Y-105002965D01*
X125883032Y-105002968D01*
X125980660Y-105068200D01*
X126045892Y-105111788D01*
X126238000Y-105150000D01*
X145268064Y-105150000D01*
X145963679Y-105845615D01*
X145558000Y-105845615D01*
X145418292Y-105871903D01*
X145289980Y-105954470D01*
X145203899Y-106080453D01*
X145184145Y-106178000D01*
X144473463Y-106178000D01*
X144401990Y-106106402D01*
X144153254Y-106003118D01*
X143883927Y-106002883D01*
X143635011Y-106105733D01*
X143562618Y-106178000D01*
X139393463Y-106178000D01*
X139321990Y-106106402D01*
X139073254Y-106003118D01*
X138803927Y-106002883D01*
X138555011Y-106105733D01*
X138482618Y-106178000D01*
X134313463Y-106178000D01*
X134241990Y-106106402D01*
X133993254Y-106003118D01*
X133723927Y-106002883D01*
X133475011Y-106105733D01*
X133402618Y-106178000D01*
X129233463Y-106178000D01*
X129161990Y-106106402D01*
X128913254Y-106003118D01*
X128643927Y-106002883D01*
X128395011Y-106105733D01*
X128204402Y-106296010D01*
X128101118Y-106544746D01*
X128100883Y-106814073D01*
X128203733Y-107062989D01*
X128394010Y-107253598D01*
X128642746Y-107356882D01*
X128912073Y-107357117D01*
X129160989Y-107254267D01*
X129233382Y-107182000D01*
X133402537Y-107182000D01*
X133474010Y-107253598D01*
X133722746Y-107356882D01*
X133992073Y-107357117D01*
X134240989Y-107254267D01*
X134313382Y-107182000D01*
X138482537Y-107182000D01*
X138554010Y-107253598D01*
X138802746Y-107356882D01*
X139072073Y-107357117D01*
X139320989Y-107254267D01*
X139393382Y-107182000D01*
X143562537Y-107182000D01*
X143634010Y-107253598D01*
X143882746Y-107356882D01*
X144152073Y-107357117D01*
X144400989Y-107254267D01*
X144473382Y-107182000D01*
X145183400Y-107182000D01*
X145199903Y-107269708D01*
X145282470Y-107398020D01*
X145408453Y-107484101D01*
X145558000Y-107514385D01*
X146058000Y-107514385D01*
X146197708Y-107488097D01*
X146326020Y-107405530D01*
X146412101Y-107279547D01*
X146442385Y-107130000D01*
X146442385Y-106324320D01*
X146673615Y-106555550D01*
X146673615Y-107130000D01*
X146699903Y-107269708D01*
X146782470Y-107398020D01*
X146908453Y-107484101D01*
X147058000Y-107514385D01*
X147558000Y-107514385D01*
X147697708Y-107488097D01*
X147826020Y-107405530D01*
X147912101Y-107279547D01*
X147942385Y-107130000D01*
X147942385Y-106230000D01*
X147916097Y-106090292D01*
X147833530Y-105961980D01*
X147707547Y-105875899D01*
X147558000Y-105845615D01*
X147383550Y-105845615D01*
X145830968Y-104293032D01*
X145668107Y-104184212D01*
X145476000Y-104145999D01*
X145475995Y-104146000D01*
X126445935Y-104146000D01*
X125470000Y-103170064D01*
X125470000Y-101734073D01*
X128100883Y-101734073D01*
X128203733Y-101982989D01*
X128394010Y-102173598D01*
X128642746Y-102276882D01*
X128912073Y-102277117D01*
X129160989Y-102174267D01*
X129233382Y-102102000D01*
X133402537Y-102102000D01*
X133474010Y-102173598D01*
X133722746Y-102276882D01*
X133992073Y-102277117D01*
X134240989Y-102174267D01*
X134313382Y-102102000D01*
X138482537Y-102102000D01*
X138554010Y-102173598D01*
X138802746Y-102276882D01*
X139072073Y-102277117D01*
X139320989Y-102174267D01*
X139393382Y-102102000D01*
X143562537Y-102102000D01*
X143634010Y-102173598D01*
X143882746Y-102276882D01*
X144152073Y-102277117D01*
X144400989Y-102174267D01*
X144473382Y-102102000D01*
X145183400Y-102102000D01*
X145199903Y-102189708D01*
X145282470Y-102318020D01*
X145408453Y-102404101D01*
X145558000Y-102434385D01*
X146058000Y-102434385D01*
X146197708Y-102408097D01*
X146326020Y-102325530D01*
X146412101Y-102199547D01*
X146442385Y-102050000D01*
X146442385Y-101150000D01*
X146416097Y-101010292D01*
X146333530Y-100881980D01*
X146207547Y-100795899D01*
X146058000Y-100765615D01*
X145558000Y-100765615D01*
X145418292Y-100791903D01*
X145289980Y-100874470D01*
X145203899Y-101000453D01*
X145184145Y-101098000D01*
X144473463Y-101098000D01*
X144401990Y-101026402D01*
X144153254Y-100923118D01*
X143883927Y-100922883D01*
X143635011Y-101025733D01*
X143562618Y-101098000D01*
X139393463Y-101098000D01*
X139321990Y-101026402D01*
X139073254Y-100923118D01*
X138803927Y-100922883D01*
X138555011Y-101025733D01*
X138482618Y-101098000D01*
X134313463Y-101098000D01*
X134241990Y-101026402D01*
X133993254Y-100923118D01*
X133723927Y-100922883D01*
X133475011Y-101025733D01*
X133402618Y-101098000D01*
X129233463Y-101098000D01*
X129161990Y-101026402D01*
X128913254Y-100923118D01*
X128643927Y-100922883D01*
X128395011Y-101025733D01*
X128204402Y-101216010D01*
X128101118Y-101464746D01*
X128100883Y-101734073D01*
X125470000Y-101734073D01*
X125470000Y-97489936D01*
X130816000Y-92143935D01*
X130816000Y-93217995D01*
X130815999Y-93218000D01*
X130854212Y-93410107D01*
X130963032Y-93572968D01*
X134519030Y-97128965D01*
X134519032Y-97128968D01*
X134681893Y-97237788D01*
X134874000Y-97276000D01*
X142974064Y-97276000D01*
X146702993Y-101004928D01*
X146673615Y-101150000D01*
X146673615Y-102050000D01*
X146699903Y-102189708D01*
X146782470Y-102318020D01*
X146908453Y-102404101D01*
X147058000Y-102434385D01*
X147558000Y-102434385D01*
X147697708Y-102408097D01*
X147826020Y-102325530D01*
X147912101Y-102199547D01*
X147942385Y-102050000D01*
X147942385Y-101150000D01*
X147916097Y-101010292D01*
X147833530Y-100881980D01*
X147802151Y-100860539D01*
X147789293Y-100795899D01*
X147771788Y-100707892D01*
X147728200Y-100642660D01*
X147662968Y-100545032D01*
X147662965Y-100545030D01*
X143536968Y-96419032D01*
X143374107Y-96310212D01*
X143182000Y-96271999D01*
X143181995Y-96272000D01*
X135081935Y-96272000D01*
X131820000Y-93010064D01*
X131820000Y-92155936D01*
X131910898Y-92065038D01*
X131910883Y-92082073D01*
X132013733Y-92330989D01*
X132204010Y-92521598D01*
X132452746Y-92624882D01*
X132722073Y-92625117D01*
X132791650Y-92596368D01*
X132836470Y-92666020D01*
X132962453Y-92752101D01*
X133112000Y-92782385D01*
X133612000Y-92782385D01*
X133751708Y-92756097D01*
X133880020Y-92673530D01*
X133966101Y-92547547D01*
X133996385Y-92398000D01*
X133996385Y-91498000D01*
X133970097Y-91358292D01*
X133887530Y-91229980D01*
X133761547Y-91143899D01*
X133612000Y-91113615D01*
X133112000Y-91113615D01*
X132972292Y-91139903D01*
X132843980Y-91222470D01*
X132791404Y-91299416D01*
X132723254Y-91271118D01*
X132704834Y-91271102D01*
X134474000Y-89501935D01*
X134474000Y-91139582D01*
X134472292Y-91139903D01*
X134343980Y-91222470D01*
X134257899Y-91348453D01*
X134227615Y-91498000D01*
X134227615Y-92398000D01*
X134253903Y-92537708D01*
X134336470Y-92666020D01*
X134462453Y-92752101D01*
X134612000Y-92782385D01*
X135112000Y-92782385D01*
X135251708Y-92756097D01*
X135380020Y-92673530D01*
X135466101Y-92547547D01*
X135485855Y-92450000D01*
X156463995Y-92450000D01*
X156464000Y-92450001D01*
X156656107Y-92411788D01*
X156818968Y-92302968D01*
X161870734Y-87251202D01*
X162281962Y-87333000D01*
X162330038Y-87333000D01*
X162799591Y-87239600D01*
X163197658Y-86973620D01*
X163455952Y-86587056D01*
X163574355Y-86872924D01*
X163964642Y-87301183D01*
X164489108Y-87547486D01*
X164719000Y-87426819D01*
X164719000Y-86233000D01*
X164973000Y-86233000D01*
X164973000Y-87426819D01*
X165202892Y-87547486D01*
X165727358Y-87301183D01*
X166117645Y-86872924D01*
X166287476Y-86462890D01*
X166166155Y-86233000D01*
X164973000Y-86233000D01*
X164719000Y-86233000D01*
X164699000Y-86233000D01*
X164699000Y-85979000D01*
X164719000Y-85979000D01*
X164719000Y-85959000D01*
X164973000Y-85959000D01*
X164973000Y-85979000D01*
X166166155Y-85979000D01*
X166287476Y-85749110D01*
X166117645Y-85339076D01*
X165727358Y-84910817D01*
X165296046Y-84708262D01*
X165339591Y-84699600D01*
X165737658Y-84433620D01*
X166003638Y-84035553D01*
X166097038Y-83566000D01*
X166007263Y-83114673D01*
X167232968Y-81888968D01*
X167341788Y-81726107D01*
X167380001Y-81534000D01*
X167380000Y-81533995D01*
X167380000Y-79248005D01*
X167380001Y-79248000D01*
X167341788Y-79055893D01*
X167232968Y-78893032D01*
X163168968Y-74829032D01*
X163006107Y-74720212D01*
X162814000Y-74681999D01*
X162813995Y-74682000D01*
X137878000Y-74682000D01*
X137878000Y-73966005D01*
X137878001Y-73966000D01*
X137839788Y-73773893D01*
X137730968Y-73611032D01*
X136541686Y-72421750D01*
X137565000Y-72421750D01*
X137565000Y-72887310D01*
X137661673Y-73120699D01*
X137840302Y-73299327D01*
X138073691Y-73396000D01*
X138414250Y-73396000D01*
X138573000Y-73237250D01*
X138573000Y-72263000D01*
X137723750Y-72263000D01*
X137565000Y-72421750D01*
X136541686Y-72421750D01*
X135504626Y-71384690D01*
X137565000Y-71384690D01*
X137565000Y-71850250D01*
X137723750Y-72009000D01*
X138573000Y-72009000D01*
X138573000Y-71034750D01*
X138414250Y-70876000D01*
X138073691Y-70876000D01*
X137840302Y-70972673D01*
X137661673Y-71151301D01*
X137565000Y-71384690D01*
X135504626Y-71384690D01*
X135154960Y-71035024D01*
X135262073Y-71035117D01*
X135510989Y-70932267D01*
X135701598Y-70741990D01*
X135804882Y-70493254D01*
X135805117Y-70223927D01*
X135702267Y-69975011D01*
X135511990Y-69784402D01*
X135487866Y-69774385D01*
X136090000Y-69774385D01*
X136229708Y-69748097D01*
X136229822Y-69748023D01*
X136360000Y-69774385D01*
X137116359Y-69774385D01*
X137270302Y-69928327D01*
X137503691Y-70025000D01*
X137844250Y-70025000D01*
X138003000Y-69866250D01*
X138003000Y-68517000D01*
X137983000Y-68517000D01*
X137983000Y-68263000D01*
X138003000Y-68263000D01*
X138003000Y-66913750D01*
X138257000Y-66913750D01*
X138257000Y-68263000D01*
X138277000Y-68263000D01*
X138277000Y-68517000D01*
X138257000Y-68517000D01*
X138257000Y-69866250D01*
X138415750Y-70025000D01*
X138756309Y-70025000D01*
X138989698Y-69928327D01*
X139143641Y-69774385D01*
X139900000Y-69774385D01*
X140039708Y-69748097D01*
X140168020Y-69665530D01*
X140198000Y-69621653D01*
X140198000Y-71126991D01*
X140060292Y-71152903D01*
X139931980Y-71235470D01*
X139845899Y-71361453D01*
X139835000Y-71415274D01*
X139835000Y-71384690D01*
X139738327Y-71151301D01*
X139559698Y-70972673D01*
X139326309Y-70876000D01*
X138985750Y-70876000D01*
X138827000Y-71034750D01*
X138827000Y-72009000D01*
X138847000Y-72009000D01*
X138847000Y-72263000D01*
X138827000Y-72263000D01*
X138827000Y-73237250D01*
X138985750Y-73396000D01*
X139326309Y-73396000D01*
X139559698Y-73299327D01*
X139738327Y-73120699D01*
X139835000Y-72887310D01*
X139835000Y-72864022D01*
X139841903Y-72900708D01*
X139924470Y-73029020D01*
X140050453Y-73115101D01*
X140200000Y-73145385D01*
X141200000Y-73145385D01*
X141339708Y-73119097D01*
X141468020Y-73036530D01*
X141554101Y-72910547D01*
X141584385Y-72761000D01*
X141584385Y-72691942D01*
X141602010Y-72709598D01*
X141850746Y-72812882D01*
X142120073Y-72813117D01*
X142368989Y-72710267D01*
X142559598Y-72519990D01*
X142662882Y-72271254D01*
X142663117Y-72001927D01*
X142560267Y-71753011D01*
X142369990Y-71562402D01*
X142121254Y-71459118D01*
X141851927Y-71458883D01*
X141603011Y-71561733D01*
X141584385Y-71580327D01*
X141584385Y-71511000D01*
X141558097Y-71371292D01*
X141475530Y-71242980D01*
X141349547Y-71156899D01*
X141202000Y-71127020D01*
X141202000Y-68940000D01*
X141163788Y-68747893D01*
X141054968Y-68585032D01*
X141054965Y-68585030D01*
X140983935Y-68514000D01*
X141002907Y-68495029D01*
X141104073Y-68495117D01*
X141352989Y-68392267D01*
X141543598Y-68201990D01*
X141646882Y-67953254D01*
X141647117Y-67683927D01*
X141544267Y-67435011D01*
X141353990Y-67244402D01*
X141105254Y-67141118D01*
X140835927Y-67140883D01*
X140587011Y-67243733D01*
X140396402Y-67434010D01*
X140293118Y-67682746D01*
X140293029Y-67785036D01*
X140284385Y-67793679D01*
X140284385Y-67390000D01*
X140258097Y-67250292D01*
X140175530Y-67121980D01*
X140049547Y-67035899D01*
X139900000Y-67005615D01*
X139143641Y-67005615D01*
X138989698Y-66851673D01*
X138756309Y-66755000D01*
X138415750Y-66755000D01*
X138257000Y-66913750D01*
X138003000Y-66913750D01*
X137844250Y-66755000D01*
X137553091Y-66755000D01*
X137582882Y-66683254D01*
X137583117Y-66413927D01*
X137480267Y-66165011D01*
X137289990Y-65974402D01*
X137041254Y-65871118D01*
X136771927Y-65870883D01*
X136523011Y-65973733D01*
X136332402Y-66164010D01*
X136270977Y-66311939D01*
X136210267Y-66165011D01*
X136019990Y-65974402D01*
X135771254Y-65871118D01*
X135501927Y-65870883D01*
X135253011Y-65973733D01*
X135062402Y-66164010D01*
X134959118Y-66412746D01*
X134958883Y-66682073D01*
X135061733Y-66930989D01*
X135134000Y-67003382D01*
X135134000Y-67005615D01*
X135090000Y-67005615D01*
X134950292Y-67031903D01*
X134950178Y-67031977D01*
X134820000Y-67005615D01*
X133820000Y-67005615D01*
X133680292Y-67031903D01*
X133680178Y-67031977D01*
X133550000Y-67005615D01*
X132550000Y-67005615D01*
X132410292Y-67031903D01*
X132410178Y-67031977D01*
X132280000Y-67005615D01*
X131280000Y-67005615D01*
X131140292Y-67031903D01*
X131140178Y-67031977D01*
X131010000Y-67005615D01*
X130010000Y-67005615D01*
X129870292Y-67031903D01*
X129741980Y-67114470D01*
X129655899Y-67240453D01*
X129625615Y-67390000D01*
X129625615Y-69390000D01*
X129651903Y-69529708D01*
X129734470Y-69658020D01*
X129860453Y-69744101D01*
X130010000Y-69774385D01*
X131010000Y-69774385D01*
X131149708Y-69748097D01*
X131149822Y-69748023D01*
X131278000Y-69773980D01*
X131278000Y-72069995D01*
X131277999Y-72070000D01*
X131316212Y-72262107D01*
X131425032Y-72424968D01*
X135554754Y-76554690D01*
X135517254Y-76539118D01*
X135247927Y-76538883D01*
X134999011Y-76641733D01*
X134808402Y-76832010D01*
X134705118Y-77080746D01*
X134704883Y-77350073D01*
X134807733Y-77598989D01*
X134838306Y-77629615D01*
X134701000Y-77629615D01*
X134571411Y-77653999D01*
X134451000Y-77629615D01*
X133901000Y-77629615D01*
X133771411Y-77653999D01*
X133651000Y-77629615D01*
X133101000Y-77629615D01*
X132971411Y-77653999D01*
X132851000Y-77629615D01*
X132301000Y-77629615D01*
X132161292Y-77655903D01*
X132032980Y-77738470D01*
X131946899Y-77864453D01*
X131916615Y-78014000D01*
X131916615Y-79604615D01*
X130326000Y-79604615D01*
X130186292Y-79630903D01*
X130057980Y-79713470D01*
X129971899Y-79839453D01*
X129941615Y-79989000D01*
X129941615Y-80539000D01*
X129965999Y-80668589D01*
X129941615Y-80789000D01*
X129941615Y-81232058D01*
X129923990Y-81214402D01*
X129675254Y-81111118D01*
X129405927Y-81110883D01*
X129157011Y-81213733D01*
X128966402Y-81404010D01*
X128863118Y-81652746D01*
X128862883Y-81922073D01*
X128965733Y-82170989D01*
X129156010Y-82361598D01*
X129404746Y-82464882D01*
X129674073Y-82465117D01*
X129747520Y-82434770D01*
X129849750Y-82537000D01*
X130999000Y-82537000D01*
X130999000Y-82523385D01*
X131253000Y-82523385D01*
X131253000Y-82537000D01*
X132402250Y-82537000D01*
X132561000Y-82378250D01*
X132561000Y-82262690D01*
X132464327Y-82029301D01*
X132310385Y-81875360D01*
X132310385Y-81589000D01*
X132286001Y-81459411D01*
X132310385Y-81339000D01*
X132310385Y-80881769D01*
X132452746Y-80940882D01*
X132722073Y-80941117D01*
X132970989Y-80838267D01*
X132987864Y-80821421D01*
X133004013Y-80837598D01*
X133252749Y-80940882D01*
X133522076Y-80941117D01*
X133770992Y-80838267D01*
X133829845Y-80779517D01*
X133845957Y-80795657D01*
X134094693Y-80898941D01*
X134364020Y-80899176D01*
X134612936Y-80796326D01*
X134794534Y-80615045D01*
X134807733Y-80646989D01*
X134998010Y-80837598D01*
X135246746Y-80940882D01*
X135516073Y-80941117D01*
X135764989Y-80838267D01*
X135955598Y-80647990D01*
X136017023Y-80500061D01*
X136077733Y-80646989D01*
X136268010Y-80837598D01*
X136516746Y-80940882D01*
X136786073Y-80941117D01*
X137034989Y-80838267D01*
X137225598Y-80647990D01*
X137328882Y-80399254D01*
X137329117Y-80129927D01*
X137274765Y-79998385D01*
X137553249Y-79998385D01*
X137499118Y-80128746D01*
X137498883Y-80398073D01*
X137601733Y-80646989D01*
X137792010Y-80837598D01*
X138040746Y-80940882D01*
X138310073Y-80941117D01*
X138441615Y-80886765D01*
X138441615Y-81339000D01*
X138465999Y-81468589D01*
X138441615Y-81589000D01*
X138441615Y-82139000D01*
X138465999Y-82268589D01*
X138441615Y-82389000D01*
X138441615Y-82675360D01*
X138287673Y-82829301D01*
X138191000Y-83062690D01*
X138191000Y-83178250D01*
X138349750Y-83337000D01*
X139499000Y-83337000D01*
X139499000Y-83323385D01*
X139753000Y-83323385D01*
X139753000Y-83337000D01*
X140902250Y-83337000D01*
X141061000Y-83178250D01*
X141061000Y-83062690D01*
X140964327Y-82829301D01*
X140810385Y-82675360D01*
X140810385Y-82389000D01*
X140786001Y-82259411D01*
X140810385Y-82139000D01*
X140810385Y-81589000D01*
X140806057Y-81566000D01*
X141060471Y-81566000D01*
X141094010Y-81599598D01*
X141342746Y-81702882D01*
X141612073Y-81703117D01*
X141860989Y-81600267D01*
X142051598Y-81409990D01*
X142154882Y-81161254D01*
X142155117Y-80891927D01*
X142103085Y-80766000D01*
X154732064Y-80766000D01*
X157887030Y-83920965D01*
X157887032Y-83920968D01*
X157972761Y-83978250D01*
X158049892Y-84029788D01*
X158242000Y-84068000D01*
X161170042Y-84068000D01*
X161414342Y-84433620D01*
X161812409Y-84699600D01*
X162281962Y-84793000D01*
X162330038Y-84793000D01*
X162799591Y-84699600D01*
X163197658Y-84433620D01*
X163463638Y-84035553D01*
X163557038Y-83566000D01*
X163463638Y-83096447D01*
X163197658Y-82698380D01*
X162799591Y-82432400D01*
X162330038Y-82339000D01*
X162281962Y-82339000D01*
X161812409Y-82432400D01*
X161414342Y-82698380D01*
X161170042Y-83064000D01*
X158449935Y-83064000D01*
X155294968Y-79909032D01*
X155132107Y-79800212D01*
X154940000Y-79761999D01*
X154939995Y-79762000D01*
X140727926Y-79762000D01*
X140701530Y-79720980D01*
X140575547Y-79634899D01*
X140426000Y-79604615D01*
X138835385Y-79604615D01*
X138835385Y-79316000D01*
X160986064Y-79316000D01*
X161461680Y-79791615D01*
X161456000Y-79791615D01*
X161316292Y-79817903D01*
X161187980Y-79900470D01*
X161101899Y-80026453D01*
X161071615Y-80176000D01*
X161071615Y-81876000D01*
X161097903Y-82015708D01*
X161180470Y-82144020D01*
X161306453Y-82230101D01*
X161456000Y-82260385D01*
X163156000Y-82260385D01*
X163295708Y-82234097D01*
X163424020Y-82151530D01*
X163510101Y-82025547D01*
X163540385Y-81876000D01*
X163540385Y-81026000D01*
X163594962Y-81026000D01*
X163688362Y-81495553D01*
X163954342Y-81893620D01*
X164352409Y-82159600D01*
X164821962Y-82253000D01*
X164870038Y-82253000D01*
X165339591Y-82159600D01*
X165737658Y-81893620D01*
X166003638Y-81495553D01*
X166097038Y-81026000D01*
X166003638Y-80556447D01*
X165737658Y-80158380D01*
X165339591Y-79892400D01*
X164870038Y-79799000D01*
X164821962Y-79799000D01*
X164352409Y-79892400D01*
X163954342Y-80158380D01*
X163688362Y-80556447D01*
X163594962Y-81026000D01*
X163540385Y-81026000D01*
X163540385Y-80176000D01*
X163514097Y-80036292D01*
X163431530Y-79907980D01*
X163305547Y-79821899D01*
X163156000Y-79791615D01*
X162781269Y-79791615D01*
X162769788Y-79733893D01*
X162660968Y-79571032D01*
X162660965Y-79571030D01*
X161548968Y-78459032D01*
X161386107Y-78350212D01*
X161194000Y-78311999D01*
X161193995Y-78312000D01*
X138835385Y-78312000D01*
X138835385Y-78014000D01*
X138809097Y-77874292D01*
X138726530Y-77745980D01*
X138678000Y-77712821D01*
X138678000Y-77182117D01*
X138682020Y-77179530D01*
X138768101Y-77053547D01*
X138798385Y-76904000D01*
X138798385Y-76004000D01*
X138772097Y-75864292D01*
X138689530Y-75735980D01*
X138616382Y-75686000D01*
X162606064Y-75686000D01*
X166376000Y-79455936D01*
X166376000Y-81326064D01*
X165281266Y-82420798D01*
X164870038Y-82339000D01*
X164821962Y-82339000D01*
X164352409Y-82432400D01*
X163954342Y-82698380D01*
X163688362Y-83096447D01*
X163594962Y-83566000D01*
X163688362Y-84035553D01*
X163954342Y-84433620D01*
X164352409Y-84699600D01*
X164395954Y-84708262D01*
X163964642Y-84910817D01*
X163574355Y-85339076D01*
X163455952Y-85624944D01*
X163197658Y-85238380D01*
X162799591Y-84972400D01*
X162330038Y-84879000D01*
X162281962Y-84879000D01*
X161812409Y-84972400D01*
X161414342Y-85238380D01*
X161148362Y-85636447D01*
X161054962Y-86106000D01*
X161144737Y-86557328D01*
X156256064Y-91446000D01*
X135486600Y-91446000D01*
X135478000Y-91400293D01*
X135478000Y-88493727D01*
X135501000Y-88498385D01*
X136051000Y-88498385D01*
X136180589Y-88474001D01*
X136301000Y-88498385D01*
X136851000Y-88498385D01*
X136980589Y-88474001D01*
X137101000Y-88498385D01*
X137651000Y-88498385D01*
X137780589Y-88474001D01*
X137901000Y-88498385D01*
X138451000Y-88498385D01*
X138590708Y-88472097D01*
X138719020Y-88389530D01*
X138805101Y-88263547D01*
X138835385Y-88114000D01*
X138835385Y-86523385D01*
X140426000Y-86523385D01*
X140565708Y-86497097D01*
X140694020Y-86414530D01*
X140780101Y-86288547D01*
X140810385Y-86139000D01*
X140810385Y-85589000D01*
X140786001Y-85459411D01*
X140810385Y-85339000D01*
X140810385Y-84789000D01*
X140786001Y-84659411D01*
X140810385Y-84539000D01*
X140810385Y-84252640D01*
X140964327Y-84098699D01*
X141061000Y-83865310D01*
X141061000Y-83749750D01*
X140902250Y-83591000D01*
X139753000Y-83591000D01*
X139753000Y-83604615D01*
X139499000Y-83604615D01*
X139499000Y-83591000D01*
X138349750Y-83591000D01*
X138191000Y-83749750D01*
X138191000Y-83865310D01*
X138287673Y-84098699D01*
X138441615Y-84252640D01*
X138441615Y-84539000D01*
X138465999Y-84668589D01*
X138441615Y-84789000D01*
X138441615Y-85339000D01*
X138465999Y-85468589D01*
X138441615Y-85589000D01*
X138441615Y-86129615D01*
X137901000Y-86129615D01*
X137771411Y-86153999D01*
X137651000Y-86129615D01*
X137101000Y-86129615D01*
X136971411Y-86153999D01*
X136851000Y-86129615D01*
X136301000Y-86129615D01*
X136171411Y-86153999D01*
X136051000Y-86129615D01*
X135501000Y-86129615D01*
X135371411Y-86153999D01*
X135251000Y-86129615D01*
X134701000Y-86129615D01*
X134571411Y-86153999D01*
X134451000Y-86129615D01*
X133901000Y-86129615D01*
X133771411Y-86153999D01*
X133651000Y-86129615D01*
X133101000Y-86129615D01*
X132971411Y-86153999D01*
X132851000Y-86129615D01*
X132310385Y-86129615D01*
X132310385Y-85589000D01*
X132286001Y-85459411D01*
X132310385Y-85339000D01*
X132310385Y-85052640D01*
X132464327Y-84898699D01*
X132561000Y-84665310D01*
X132561000Y-84549750D01*
X132402250Y-84391000D01*
X131253000Y-84391000D01*
X131253000Y-84404615D01*
X130999000Y-84404615D01*
X130999000Y-84391000D01*
X129849750Y-84391000D01*
X129782924Y-84457826D01*
X129675254Y-84413118D01*
X129405927Y-84412883D01*
X129157011Y-84515733D01*
X128966402Y-84706010D01*
X128863118Y-84954746D01*
X128862883Y-85224073D01*
X128965733Y-85472989D01*
X129156010Y-85663598D01*
X129404746Y-85766882D01*
X129674073Y-85767117D01*
X129922989Y-85664267D01*
X129941615Y-85645673D01*
X129941615Y-86139000D01*
X129967903Y-86278708D01*
X130050470Y-86407020D01*
X130176453Y-86493101D01*
X130326000Y-86523385D01*
X130624000Y-86523385D01*
X130624000Y-88376065D01*
X123089032Y-95911032D01*
X122980212Y-96073893D01*
X122941999Y-96266000D01*
X100452000Y-96266000D01*
X100452000Y-84597750D01*
X124470000Y-84597750D01*
X124470000Y-84938309D01*
X124566673Y-85171698D01*
X124745301Y-85350327D01*
X124978690Y-85447000D01*
X125444250Y-85447000D01*
X125603000Y-85288250D01*
X125603000Y-84439000D01*
X125857000Y-84439000D01*
X125857000Y-85288250D01*
X126015750Y-85447000D01*
X126481310Y-85447000D01*
X126714699Y-85350327D01*
X126893327Y-85171698D01*
X126990000Y-84938309D01*
X126990000Y-84597750D01*
X126831250Y-84439000D01*
X125857000Y-84439000D01*
X125603000Y-84439000D01*
X124628750Y-84439000D01*
X124470000Y-84597750D01*
X100452000Y-84597750D01*
X100452000Y-83685691D01*
X124470000Y-83685691D01*
X124470000Y-84026250D01*
X124628750Y-84185000D01*
X125603000Y-84185000D01*
X125603000Y-84165000D01*
X125857000Y-84165000D01*
X125857000Y-84185000D01*
X126831250Y-84185000D01*
X126990000Y-84026250D01*
X126990000Y-83700073D01*
X128862883Y-83700073D01*
X128965733Y-83948989D01*
X129156010Y-84139598D01*
X129404746Y-84242882D01*
X129674073Y-84243117D01*
X129922989Y-84140267D01*
X129926262Y-84137000D01*
X130999000Y-84137000D01*
X130999000Y-84123385D01*
X131253000Y-84123385D01*
X131253000Y-84137000D01*
X132402250Y-84137000D01*
X132561000Y-83978250D01*
X132561000Y-83862690D01*
X132464327Y-83629301D01*
X132310385Y-83475360D01*
X132310385Y-83452640D01*
X132464327Y-83298699D01*
X132561000Y-83065310D01*
X132561000Y-82949750D01*
X132402250Y-82791000D01*
X131253000Y-82791000D01*
X131253000Y-82804615D01*
X130999000Y-82804615D01*
X130999000Y-82791000D01*
X129849750Y-82791000D01*
X129729222Y-82911528D01*
X129675254Y-82889118D01*
X129405927Y-82888883D01*
X129157011Y-82991733D01*
X128966402Y-83182010D01*
X128863118Y-83430746D01*
X128862883Y-83700073D01*
X126990000Y-83700073D01*
X126990000Y-83685691D01*
X126893327Y-83452302D01*
X126714699Y-83273673D01*
X126481310Y-83177000D01*
X126458022Y-83177000D01*
X126494708Y-83170097D01*
X126623020Y-83087530D01*
X126709101Y-82961547D01*
X126739385Y-82812000D01*
X126739385Y-81812000D01*
X126713097Y-81672292D01*
X126630530Y-81543980D01*
X126504547Y-81457899D01*
X126355000Y-81427615D01*
X126285942Y-81427615D01*
X126303598Y-81409990D01*
X126406882Y-81161254D01*
X126407117Y-80891927D01*
X126304267Y-80643011D01*
X126113990Y-80452402D01*
X125865254Y-80349118D01*
X125595927Y-80348883D01*
X125347011Y-80451733D01*
X125156402Y-80642010D01*
X125053118Y-80890746D01*
X125052883Y-81160073D01*
X125155733Y-81408989D01*
X125174327Y-81427615D01*
X125105000Y-81427615D01*
X124965292Y-81453903D01*
X124836980Y-81536470D01*
X124750899Y-81662453D01*
X124720615Y-81812000D01*
X124720615Y-82812000D01*
X124746903Y-82951708D01*
X124829470Y-83080020D01*
X124955453Y-83166101D01*
X125009274Y-83177000D01*
X124978690Y-83177000D01*
X124745301Y-83273673D01*
X124566673Y-83452302D01*
X124470000Y-83685691D01*
X100452000Y-83685691D01*
X100452000Y-57531000D01*
X103288585Y-57531000D01*
X103947104Y-58190669D01*
X103947104Y-58190669D01*
G37*
X103947104Y-58190669D02*
X105059251Y-58652473D01*
X106263466Y-58653524D01*
X107376417Y-58193662D01*
X108040236Y-57531000D01*
X128535000Y-57531000D01*
X128535000Y-57766310D01*
X128631673Y-57999699D01*
X128810302Y-58178327D01*
X129043691Y-58275000D01*
X129634250Y-58275000D01*
X129793000Y-58116250D01*
X129793000Y-57531000D01*
X130047000Y-57531000D01*
X130047000Y-58116250D01*
X130205750Y-58275000D01*
X130796309Y-58275000D01*
X131029698Y-58178327D01*
X131208327Y-57999699D01*
X131305000Y-57766310D01*
X131305000Y-57531000D01*
X161962585Y-57531000D01*
X162621104Y-58190669D01*
X163733251Y-58652473D01*
X164937466Y-58653524D01*
X166050417Y-58193662D01*
X166714236Y-57531000D01*
X169548000Y-57531000D01*
X169548000Y-149548000D01*
X100452000Y-149548000D01*
X100452000Y-144202378D01*
X111477227Y-144202378D01*
X112428323Y-145196631D01*
X115568413Y-146589667D01*
X119002569Y-146675004D01*
X122207974Y-145439650D01*
X122571677Y-145196631D01*
X123522773Y-144202378D01*
X146477227Y-144202378D01*
X147428323Y-145196631D01*
X150568413Y-146589667D01*
X154002569Y-146675004D01*
X157207974Y-145439650D01*
X157571677Y-145196631D01*
X158522773Y-144202378D01*
X152500000Y-138179605D01*
X146477227Y-144202378D01*
X123522773Y-144202378D01*
X117500000Y-138179605D01*
X111477227Y-144202378D01*
X100452000Y-144202378D01*
X100452000Y-135450000D01*
X101765615Y-135450000D01*
X101765615Y-140550000D01*
X101791903Y-140689708D01*
X101874470Y-140818020D01*
X102000453Y-140904101D01*
X102150000Y-140934385D01*
X104198000Y-140934385D01*
X104198000Y-141224627D01*
X104074402Y-141348010D01*
X103971118Y-141596746D01*
X103970883Y-141866073D01*
X104073733Y-142114989D01*
X104264010Y-142305598D01*
X104512746Y-142408882D01*
X104782073Y-142409117D01*
X105030989Y-142306267D01*
X105221598Y-142115990D01*
X105324882Y-141867254D01*
X105325117Y-141597927D01*
X105222267Y-141349011D01*
X105202000Y-141328709D01*
X105202000Y-140934385D01*
X107250000Y-140934385D01*
X107389708Y-140908097D01*
X107518020Y-140825530D01*
X107604101Y-140699547D01*
X107634385Y-140550000D01*
X107634385Y-139502569D01*
X108824996Y-139502569D01*
X110060350Y-142707974D01*
X110303369Y-143071677D01*
X111297622Y-144022773D01*
X117320395Y-138000000D01*
X117679605Y-138000000D01*
X123702378Y-144022773D01*
X124696631Y-143071677D01*
X126089667Y-139931587D01*
X126175004Y-136497431D01*
X125771328Y-135450000D01*
X127365615Y-135450000D01*
X127365615Y-140550000D01*
X127391903Y-140689708D01*
X127474470Y-140818020D01*
X127600453Y-140904101D01*
X127750000Y-140934385D01*
X129798000Y-140934385D01*
X129798000Y-141475995D01*
X129797999Y-141476000D01*
X129836212Y-141668107D01*
X129879000Y-141732144D01*
X129878883Y-141866073D01*
X129981733Y-142114989D01*
X130172010Y-142305598D01*
X130420746Y-142408882D01*
X130690073Y-142409117D01*
X130938989Y-142306267D01*
X131129598Y-142115990D01*
X131232882Y-141867254D01*
X131233117Y-141597927D01*
X131130267Y-141349011D01*
X130939990Y-141158402D01*
X130802000Y-141101104D01*
X130802000Y-140934385D01*
X132850000Y-140934385D01*
X132989708Y-140908097D01*
X133118020Y-140825530D01*
X133204101Y-140699547D01*
X133234385Y-140550000D01*
X133234385Y-135450000D01*
X136765615Y-135450000D01*
X136765615Y-140550000D01*
X136791903Y-140689708D01*
X136874470Y-140818020D01*
X137000453Y-140904101D01*
X137150000Y-140934385D01*
X139198000Y-140934385D01*
X139198000Y-141101957D01*
X139063011Y-141157733D01*
X138872402Y-141348010D01*
X138769118Y-141596746D01*
X138768883Y-141866073D01*
X138871733Y-142114989D01*
X139062010Y-142305598D01*
X139310746Y-142408882D01*
X139580073Y-142409117D01*
X139828989Y-142306267D01*
X140019598Y-142115990D01*
X140122882Y-141867254D01*
X140123001Y-141731150D01*
X140157178Y-141680000D01*
X140163788Y-141670108D01*
X140202000Y-141478000D01*
X140202000Y-140934385D01*
X142250000Y-140934385D01*
X142389708Y-140908097D01*
X142518020Y-140825530D01*
X142604101Y-140699547D01*
X142634385Y-140550000D01*
X142634385Y-139502569D01*
X143824996Y-139502569D01*
X145060350Y-142707974D01*
X145303369Y-143071677D01*
X146297622Y-144022773D01*
X152320395Y-138000000D01*
X152679605Y-138000000D01*
X158702378Y-144022773D01*
X159696631Y-143071677D01*
X161089667Y-139931587D01*
X161175004Y-136497431D01*
X160771328Y-135450000D01*
X162365615Y-135450000D01*
X162365615Y-140550000D01*
X162391903Y-140689708D01*
X162474470Y-140818020D01*
X162600453Y-140904101D01*
X162750000Y-140934385D01*
X164686306Y-140934385D01*
X164526402Y-141094010D01*
X164423118Y-141342746D01*
X164422883Y-141612073D01*
X164525733Y-141860989D01*
X164716010Y-142051598D01*
X164964746Y-142154882D01*
X165234073Y-142155117D01*
X165482989Y-142052267D01*
X165673598Y-141861990D01*
X165776882Y-141613254D01*
X165777065Y-141403359D01*
X165802001Y-141278000D01*
X165802000Y-141277995D01*
X165802000Y-140934385D01*
X167850000Y-140934385D01*
X167989708Y-140908097D01*
X168118020Y-140825530D01*
X168204101Y-140699547D01*
X168234385Y-140550000D01*
X168234385Y-135450000D01*
X168208097Y-135310292D01*
X168125530Y-135181980D01*
X167999547Y-135095899D01*
X167850000Y-135065615D01*
X165802000Y-135065615D01*
X165802000Y-134566005D01*
X165802001Y-134566000D01*
X165776935Y-134439989D01*
X165777117Y-134231927D01*
X165674267Y-133983011D01*
X165483990Y-133792402D01*
X165235254Y-133689118D01*
X164965927Y-133688883D01*
X164717011Y-133791733D01*
X164526402Y-133982010D01*
X164423118Y-134230746D01*
X164422883Y-134500073D01*
X164525733Y-134748989D01*
X164716010Y-134939598D01*
X164798000Y-134973643D01*
X164798000Y-135065615D01*
X162750000Y-135065615D01*
X162610292Y-135091903D01*
X162481980Y-135174470D01*
X162395899Y-135300453D01*
X162365615Y-135450000D01*
X160771328Y-135450000D01*
X159939650Y-133292026D01*
X159696631Y-132928323D01*
X158702378Y-131977227D01*
X152679605Y-138000000D01*
X152320395Y-138000000D01*
X146297622Y-131977227D01*
X145303369Y-132928323D01*
X143910333Y-136068413D01*
X143824996Y-139502569D01*
X142634385Y-139502569D01*
X142634385Y-135450000D01*
X142608097Y-135310292D01*
X142525530Y-135181980D01*
X142399547Y-135095899D01*
X142250000Y-135065615D01*
X140202000Y-135065615D01*
X140202000Y-134620000D01*
X140163788Y-134427893D01*
X140163788Y-134427892D01*
X140122999Y-134366848D01*
X140123117Y-134231927D01*
X140020267Y-133983011D01*
X139829990Y-133792402D01*
X139581254Y-133689118D01*
X139311927Y-133688883D01*
X139063011Y-133791733D01*
X138872402Y-133982010D01*
X138769118Y-134230746D01*
X138768883Y-134500073D01*
X138871733Y-134748989D01*
X139062010Y-134939598D01*
X139198000Y-134996066D01*
X139198000Y-135065615D01*
X137150000Y-135065615D01*
X137010292Y-135091903D01*
X136881980Y-135174470D01*
X136795899Y-135300453D01*
X136765615Y-135450000D01*
X133234385Y-135450000D01*
X133208097Y-135310292D01*
X133125530Y-135181980D01*
X132999547Y-135095899D01*
X132850000Y-135065615D01*
X130802000Y-135065615D01*
X130802000Y-134996870D01*
X130938989Y-134940267D01*
X131129598Y-134749990D01*
X131232882Y-134501254D01*
X131233117Y-134231927D01*
X131130267Y-133983011D01*
X130939990Y-133792402D01*
X130691254Y-133689118D01*
X130421927Y-133688883D01*
X130173011Y-133791733D01*
X129982402Y-133982010D01*
X129879118Y-134230746D01*
X129879000Y-134365856D01*
X129836212Y-134429893D01*
X129797999Y-134622000D01*
X129798000Y-134622005D01*
X129798000Y-135065615D01*
X127750000Y-135065615D01*
X127610292Y-135091903D01*
X127481980Y-135174470D01*
X127395899Y-135300453D01*
X127365615Y-135450000D01*
X125771328Y-135450000D01*
X124939650Y-133292026D01*
X124696631Y-132928323D01*
X123702378Y-131977227D01*
X117679605Y-138000000D01*
X117320395Y-138000000D01*
X111297622Y-131977227D01*
X110303369Y-132928323D01*
X108910333Y-136068413D01*
X108824996Y-139502569D01*
X107634385Y-139502569D01*
X107634385Y-135450000D01*
X107608097Y-135310292D01*
X107525530Y-135181980D01*
X107399547Y-135095899D01*
X107250000Y-135065615D01*
X105202000Y-135065615D01*
X105202000Y-134769554D01*
X105221598Y-134749990D01*
X105324882Y-134501254D01*
X105325117Y-134231927D01*
X105222267Y-133983011D01*
X105031990Y-133792402D01*
X104783254Y-133689118D01*
X104513927Y-133688883D01*
X104265011Y-133791733D01*
X104074402Y-133982010D01*
X103971118Y-134230746D01*
X103970883Y-134500073D01*
X104073733Y-134748989D01*
X104198000Y-134873473D01*
X104198000Y-135065615D01*
X102150000Y-135065615D01*
X102010292Y-135091903D01*
X101881980Y-135174470D01*
X101795899Y-135300453D01*
X101765615Y-135450000D01*
X100452000Y-135450000D01*
X100452000Y-131797622D01*
X111477227Y-131797622D01*
X117500000Y-137820395D01*
X123522773Y-131797622D01*
X146477227Y-131797622D01*
X152500000Y-137820395D01*
X158522773Y-131797622D01*
X157571677Y-130803369D01*
X154431587Y-129410333D01*
X150997431Y-129324996D01*
X147792026Y-130560350D01*
X147428323Y-130803369D01*
X146477227Y-131797622D01*
X123522773Y-131797622D01*
X122571677Y-130803369D01*
X119431587Y-129410333D01*
X115997431Y-129324996D01*
X112792026Y-130560350D01*
X112428323Y-130803369D01*
X111477227Y-131797622D01*
X100452000Y-131797622D01*
X100452000Y-96266000D01*
X122941999Y-96266000D01*
X122942000Y-96266005D01*
X122942000Y-111759995D01*
X122941999Y-111760000D01*
X122980212Y-111952107D01*
X123089032Y-112114968D01*
X125629030Y-114654965D01*
X125629032Y-114654968D01*
X125791893Y-114763788D01*
X125984000Y-114802000D01*
X144760064Y-114802000D01*
X145963680Y-116005615D01*
X145558000Y-116005615D01*
X145418292Y-116031903D01*
X145289980Y-116114470D01*
X145203899Y-116240453D01*
X145184145Y-116338000D01*
X144473463Y-116338000D01*
X144401990Y-116266402D01*
X144153254Y-116163118D01*
X143883927Y-116162883D01*
X143635011Y-116265733D01*
X143562618Y-116338000D01*
X139393463Y-116338000D01*
X139321990Y-116266402D01*
X139073254Y-116163118D01*
X138803927Y-116162883D01*
X138555011Y-116265733D01*
X138482618Y-116338000D01*
X134313463Y-116338000D01*
X134241990Y-116266402D01*
X133993254Y-116163118D01*
X133723927Y-116162883D01*
X133475011Y-116265733D01*
X133402618Y-116338000D01*
X129233463Y-116338000D01*
X129161990Y-116266402D01*
X128913254Y-116163118D01*
X128643927Y-116162883D01*
X128395011Y-116265733D01*
X128204402Y-116456010D01*
X128101118Y-116704746D01*
X128100883Y-116974073D01*
X128203733Y-117222989D01*
X128394010Y-117413598D01*
X128642746Y-117516882D01*
X128912073Y-117517117D01*
X129160989Y-117414267D01*
X129233382Y-117342000D01*
X133402537Y-117342000D01*
X133474010Y-117413598D01*
X133722746Y-117516882D01*
X133992073Y-117517117D01*
X134240989Y-117414267D01*
X134313382Y-117342000D01*
X138482537Y-117342000D01*
X138554010Y-117413598D01*
X138802746Y-117516882D01*
X139072073Y-117517117D01*
X139320989Y-117414267D01*
X139393382Y-117342000D01*
X143562537Y-117342000D01*
X143634010Y-117413598D01*
X143882746Y-117516882D01*
X144152073Y-117517117D01*
X144400989Y-117414267D01*
X144473382Y-117342000D01*
X145183400Y-117342000D01*
X145199903Y-117429708D01*
X145282470Y-117558020D01*
X145408453Y-117644101D01*
X145558000Y-117674385D01*
X146058000Y-117674385D01*
X146197708Y-117648097D01*
X146326020Y-117565530D01*
X146412101Y-117439547D01*
X146442385Y-117290000D01*
X146442385Y-116484320D01*
X146673615Y-116715550D01*
X146673615Y-117290000D01*
X146699903Y-117429708D01*
X146782470Y-117558020D01*
X146908453Y-117644101D01*
X147058000Y-117674385D01*
X147558000Y-117674385D01*
X147697708Y-117648097D01*
X147826020Y-117565530D01*
X147912101Y-117439547D01*
X147942385Y-117290000D01*
X147942385Y-116390000D01*
X147916097Y-116250292D01*
X147833530Y-116121980D01*
X147707547Y-116035899D01*
X147558000Y-116005615D01*
X147383550Y-116005615D01*
X145322968Y-113945032D01*
X145160107Y-113836212D01*
X144968000Y-113797999D01*
X144967995Y-113798000D01*
X126191935Y-113798000D01*
X124288009Y-111894073D01*
X128100883Y-111894073D01*
X128203733Y-112142989D01*
X128394010Y-112333598D01*
X128642746Y-112436882D01*
X128912073Y-112437117D01*
X129160989Y-112334267D01*
X129233382Y-112262000D01*
X133402537Y-112262000D01*
X133474010Y-112333598D01*
X133722746Y-112436882D01*
X133992073Y-112437117D01*
X134240989Y-112334267D01*
X134313382Y-112262000D01*
X138482537Y-112262000D01*
X138554010Y-112333598D01*
X138802746Y-112436882D01*
X139072073Y-112437117D01*
X139320989Y-112334267D01*
X139393382Y-112262000D01*
X143562537Y-112262000D01*
X143634010Y-112333598D01*
X143882746Y-112436882D01*
X144152073Y-112437117D01*
X144400989Y-112334267D01*
X144473382Y-112262000D01*
X145183400Y-112262000D01*
X145199903Y-112349708D01*
X145282470Y-112478020D01*
X145408453Y-112564101D01*
X145558000Y-112594385D01*
X146058000Y-112594385D01*
X146197708Y-112568097D01*
X146326020Y-112485530D01*
X146412101Y-112359547D01*
X146442385Y-112210000D01*
X146442385Y-111310000D01*
X146416097Y-111170292D01*
X146333530Y-111041980D01*
X146207547Y-110955899D01*
X146058000Y-110925615D01*
X145558000Y-110925615D01*
X145418292Y-110951903D01*
X145289980Y-111034470D01*
X145203899Y-111160453D01*
X145184145Y-111258000D01*
X144473463Y-111258000D01*
X144401990Y-111186402D01*
X144153254Y-111083118D01*
X143883927Y-111082883D01*
X143635011Y-111185733D01*
X143562618Y-111258000D01*
X139393463Y-111258000D01*
X139321990Y-111186402D01*
X139073254Y-111083118D01*
X138803927Y-111082883D01*
X138555011Y-111185733D01*
X138482618Y-111258000D01*
X134313463Y-111258000D01*
X134241990Y-111186402D01*
X133993254Y-111083118D01*
X133723927Y-111082883D01*
X133475011Y-111185733D01*
X133402618Y-111258000D01*
X129233463Y-111258000D01*
X129161990Y-111186402D01*
X128913254Y-111083118D01*
X128643927Y-111082883D01*
X128395011Y-111185733D01*
X128204402Y-111376010D01*
X128101118Y-111624746D01*
X128100883Y-111894073D01*
X124288009Y-111894073D01*
X123946000Y-111552064D01*
X123946000Y-108907936D01*
X124867032Y-109828968D01*
X125029893Y-109937788D01*
X125222000Y-109976001D01*
X125222005Y-109976000D01*
X145514064Y-109976000D01*
X146702993Y-111164928D01*
X146673615Y-111310000D01*
X146673615Y-112210000D01*
X146699903Y-112349708D01*
X146782470Y-112478020D01*
X146908453Y-112564101D01*
X147058000Y-112594385D01*
X147558000Y-112594385D01*
X147697708Y-112568097D01*
X147826020Y-112485530D01*
X147912101Y-112359547D01*
X147942385Y-112210000D01*
X147942385Y-111310000D01*
X147916097Y-111170292D01*
X147833530Y-111041980D01*
X147802152Y-111020540D01*
X147771788Y-110867893D01*
X147662968Y-110705032D01*
X147662965Y-110705030D01*
X146076968Y-109119032D01*
X145914107Y-109010212D01*
X145722000Y-108971999D01*
X145721995Y-108972000D01*
X125429936Y-108972000D01*
X124708000Y-108250064D01*
X124708000Y-103827936D01*
X125883030Y-105002965D01*
X125883032Y-105002968D01*
X125980660Y-105068200D01*
X126045892Y-105111788D01*
X126238000Y-105150000D01*
X145268064Y-105150000D01*
X145963679Y-105845615D01*
X145558000Y-105845615D01*
X145418292Y-105871903D01*
X145289980Y-105954470D01*
X145203899Y-106080453D01*
X145184145Y-106178000D01*
X144473463Y-106178000D01*
X144401990Y-106106402D01*
X144153254Y-106003118D01*
X143883927Y-106002883D01*
X143635011Y-106105733D01*
X143562618Y-106178000D01*
X139393463Y-106178000D01*
X139321990Y-106106402D01*
X139073254Y-106003118D01*
X138803927Y-106002883D01*
X138555011Y-106105733D01*
X138482618Y-106178000D01*
X134313463Y-106178000D01*
X134241990Y-106106402D01*
X133993254Y-106003118D01*
X133723927Y-106002883D01*
X133475011Y-106105733D01*
X133402618Y-106178000D01*
X129233463Y-106178000D01*
X129161990Y-106106402D01*
X128913254Y-106003118D01*
X128643927Y-106002883D01*
X128395011Y-106105733D01*
X128204402Y-106296010D01*
X128101118Y-106544746D01*
X128100883Y-106814073D01*
X128203733Y-107062989D01*
X128394010Y-107253598D01*
X128642746Y-107356882D01*
X128912073Y-107357117D01*
X129160989Y-107254267D01*
X129233382Y-107182000D01*
X133402537Y-107182000D01*
X133474010Y-107253598D01*
X133722746Y-107356882D01*
X133992073Y-107357117D01*
X134240989Y-107254267D01*
X134313382Y-107182000D01*
X138482537Y-107182000D01*
X138554010Y-107253598D01*
X138802746Y-107356882D01*
X139072073Y-107357117D01*
X139320989Y-107254267D01*
X139393382Y-107182000D01*
X143562537Y-107182000D01*
X143634010Y-107253598D01*
X143882746Y-107356882D01*
X144152073Y-107357117D01*
X144400989Y-107254267D01*
X144473382Y-107182000D01*
X145183400Y-107182000D01*
X145199903Y-107269708D01*
X145282470Y-107398020D01*
X145408453Y-107484101D01*
X145558000Y-107514385D01*
X146058000Y-107514385D01*
X146197708Y-107488097D01*
X146326020Y-107405530D01*
X146412101Y-107279547D01*
X146442385Y-107130000D01*
X146442385Y-106324320D01*
X146673615Y-106555550D01*
X146673615Y-107130000D01*
X146699903Y-107269708D01*
X146782470Y-107398020D01*
X146908453Y-107484101D01*
X147058000Y-107514385D01*
X147558000Y-107514385D01*
X147697708Y-107488097D01*
X147826020Y-107405530D01*
X147912101Y-107279547D01*
X147942385Y-107130000D01*
X147942385Y-106230000D01*
X147916097Y-106090292D01*
X147833530Y-105961980D01*
X147707547Y-105875899D01*
X147558000Y-105845615D01*
X147383550Y-105845615D01*
X145830968Y-104293032D01*
X145668107Y-104184212D01*
X145476000Y-104145999D01*
X145475995Y-104146000D01*
X126445935Y-104146000D01*
X125470000Y-103170064D01*
X125470000Y-101734073D01*
X128100883Y-101734073D01*
X128203733Y-101982989D01*
X128394010Y-102173598D01*
X128642746Y-102276882D01*
X128912073Y-102277117D01*
X129160989Y-102174267D01*
X129233382Y-102102000D01*
X133402537Y-102102000D01*
X133474010Y-102173598D01*
X133722746Y-102276882D01*
X133992073Y-102277117D01*
X134240989Y-102174267D01*
X134313382Y-102102000D01*
X138482537Y-102102000D01*
X138554010Y-102173598D01*
X138802746Y-102276882D01*
X139072073Y-102277117D01*
X139320989Y-102174267D01*
X139393382Y-102102000D01*
X143562537Y-102102000D01*
X143634010Y-102173598D01*
X143882746Y-102276882D01*
X144152073Y-102277117D01*
X144400989Y-102174267D01*
X144473382Y-102102000D01*
X145183400Y-102102000D01*
X145199903Y-102189708D01*
X145282470Y-102318020D01*
X145408453Y-102404101D01*
X145558000Y-102434385D01*
X146058000Y-102434385D01*
X146197708Y-102408097D01*
X146326020Y-102325530D01*
X146412101Y-102199547D01*
X146442385Y-102050000D01*
X146442385Y-101150000D01*
X146416097Y-101010292D01*
X146333530Y-100881980D01*
X146207547Y-100795899D01*
X146058000Y-100765615D01*
X145558000Y-100765615D01*
X145418292Y-100791903D01*
X145289980Y-100874470D01*
X145203899Y-101000453D01*
X145184145Y-101098000D01*
X144473463Y-101098000D01*
X144401990Y-101026402D01*
X144153254Y-100923118D01*
X143883927Y-100922883D01*
X143635011Y-101025733D01*
X143562618Y-101098000D01*
X139393463Y-101098000D01*
X139321990Y-101026402D01*
X139073254Y-100923118D01*
X138803927Y-100922883D01*
X138555011Y-101025733D01*
X138482618Y-101098000D01*
X134313463Y-101098000D01*
X134241990Y-101026402D01*
X133993254Y-100923118D01*
X133723927Y-100922883D01*
X133475011Y-101025733D01*
X133402618Y-101098000D01*
X129233463Y-101098000D01*
X129161990Y-101026402D01*
X128913254Y-100923118D01*
X128643927Y-100922883D01*
X128395011Y-101025733D01*
X128204402Y-101216010D01*
X128101118Y-101464746D01*
X128100883Y-101734073D01*
X125470000Y-101734073D01*
X125470000Y-97489936D01*
X130816000Y-92143935D01*
X130816000Y-93217995D01*
X130815999Y-93218000D01*
X130854212Y-93410107D01*
X130963032Y-93572968D01*
X134519030Y-97128965D01*
X134519032Y-97128968D01*
X134681893Y-97237788D01*
X134874000Y-97276000D01*
X142974064Y-97276000D01*
X146702993Y-101004928D01*
X146673615Y-101150000D01*
X146673615Y-102050000D01*
X146699903Y-102189708D01*
X146782470Y-102318020D01*
X146908453Y-102404101D01*
X147058000Y-102434385D01*
X147558000Y-102434385D01*
X147697708Y-102408097D01*
X147826020Y-102325530D01*
X147912101Y-102199547D01*
X147942385Y-102050000D01*
X147942385Y-101150000D01*
X147916097Y-101010292D01*
X147833530Y-100881980D01*
X147802151Y-100860539D01*
X147789293Y-100795899D01*
X147771788Y-100707892D01*
X147728200Y-100642660D01*
X147662968Y-100545032D01*
X147662965Y-100545030D01*
X143536968Y-96419032D01*
X143374107Y-96310212D01*
X143182000Y-96271999D01*
X143181995Y-96272000D01*
X135081935Y-96272000D01*
X131820000Y-93010064D01*
X131820000Y-92155936D01*
X131910898Y-92065038D01*
X131910883Y-92082073D01*
X132013733Y-92330989D01*
X132204010Y-92521598D01*
X132452746Y-92624882D01*
X132722073Y-92625117D01*
X132791650Y-92596368D01*
X132836470Y-92666020D01*
X132962453Y-92752101D01*
X133112000Y-92782385D01*
X133612000Y-92782385D01*
X133751708Y-92756097D01*
X133880020Y-92673530D01*
X133966101Y-92547547D01*
X133996385Y-92398000D01*
X133996385Y-91498000D01*
X133970097Y-91358292D01*
X133887530Y-91229980D01*
X133761547Y-91143899D01*
X133612000Y-91113615D01*
X133112000Y-91113615D01*
X132972292Y-91139903D01*
X132843980Y-91222470D01*
X132791404Y-91299416D01*
X132723254Y-91271118D01*
X132704834Y-91271102D01*
X134474000Y-89501935D01*
X134474000Y-91139582D01*
X134472292Y-91139903D01*
X134343980Y-91222470D01*
X134257899Y-91348453D01*
X134227615Y-91498000D01*
X134227615Y-92398000D01*
X134253903Y-92537708D01*
X134336470Y-92666020D01*
X134462453Y-92752101D01*
X134612000Y-92782385D01*
X135112000Y-92782385D01*
X135251708Y-92756097D01*
X135380020Y-92673530D01*
X135466101Y-92547547D01*
X135485855Y-92450000D01*
X156463995Y-92450000D01*
X156464000Y-92450001D01*
X156656107Y-92411788D01*
X156818968Y-92302968D01*
X161870734Y-87251202D01*
X162281962Y-87333000D01*
X162330038Y-87333000D01*
X162799591Y-87239600D01*
X163197658Y-86973620D01*
X163455952Y-86587056D01*
X163574355Y-86872924D01*
X163964642Y-87301183D01*
X164489108Y-87547486D01*
X164719000Y-87426819D01*
X164719000Y-86233000D01*
X164973000Y-86233000D01*
X164973000Y-87426819D01*
X165202892Y-87547486D01*
X165727358Y-87301183D01*
X166117645Y-86872924D01*
X166287476Y-86462890D01*
X166166155Y-86233000D01*
X164973000Y-86233000D01*
X164719000Y-86233000D01*
X164699000Y-86233000D01*
X164699000Y-85979000D01*
X164719000Y-85979000D01*
X164719000Y-85959000D01*
X164973000Y-85959000D01*
X164973000Y-85979000D01*
X166166155Y-85979000D01*
X166287476Y-85749110D01*
X166117645Y-85339076D01*
X165727358Y-84910817D01*
X165296046Y-84708262D01*
X165339591Y-84699600D01*
X165737658Y-84433620D01*
X166003638Y-84035553D01*
X166097038Y-83566000D01*
X166007263Y-83114673D01*
X167232968Y-81888968D01*
X167341788Y-81726107D01*
X167380001Y-81534000D01*
X167380000Y-81533995D01*
X167380000Y-79248005D01*
X167380001Y-79248000D01*
X167341788Y-79055893D01*
X167232968Y-78893032D01*
X163168968Y-74829032D01*
X163006107Y-74720212D01*
X162814000Y-74681999D01*
X162813995Y-74682000D01*
X137878000Y-74682000D01*
X137878000Y-73966005D01*
X137878001Y-73966000D01*
X137839788Y-73773893D01*
X137730968Y-73611032D01*
X136541686Y-72421750D01*
X137565000Y-72421750D01*
X137565000Y-72887310D01*
X137661673Y-73120699D01*
X137840302Y-73299327D01*
X138073691Y-73396000D01*
X138414250Y-73396000D01*
X138573000Y-73237250D01*
X138573000Y-72263000D01*
X137723750Y-72263000D01*
X137565000Y-72421750D01*
X136541686Y-72421750D01*
X135504626Y-71384690D01*
X137565000Y-71384690D01*
X137565000Y-71850250D01*
X137723750Y-72009000D01*
X138573000Y-72009000D01*
X138573000Y-71034750D01*
X138414250Y-70876000D01*
X138073691Y-70876000D01*
X137840302Y-70972673D01*
X137661673Y-71151301D01*
X137565000Y-71384690D01*
X135504626Y-71384690D01*
X135154960Y-71035024D01*
X135262073Y-71035117D01*
X135510989Y-70932267D01*
X135701598Y-70741990D01*
X135804882Y-70493254D01*
X135805117Y-70223927D01*
X135702267Y-69975011D01*
X135511990Y-69784402D01*
X135487866Y-69774385D01*
X136090000Y-69774385D01*
X136229708Y-69748097D01*
X136229822Y-69748023D01*
X136360000Y-69774385D01*
X137116359Y-69774385D01*
X137270302Y-69928327D01*
X137503691Y-70025000D01*
X137844250Y-70025000D01*
X138003000Y-69866250D01*
X138003000Y-68517000D01*
X137983000Y-68517000D01*
X137983000Y-68263000D01*
X138003000Y-68263000D01*
X138003000Y-66913750D01*
X138257000Y-66913750D01*
X138257000Y-68263000D01*
X138277000Y-68263000D01*
X138277000Y-68517000D01*
X138257000Y-68517000D01*
X138257000Y-69866250D01*
X138415750Y-70025000D01*
X138756309Y-70025000D01*
X138989698Y-69928327D01*
X139143641Y-69774385D01*
X139900000Y-69774385D01*
X140039708Y-69748097D01*
X140168020Y-69665530D01*
X140198000Y-69621653D01*
X140198000Y-71126991D01*
X140060292Y-71152903D01*
X139931980Y-71235470D01*
X139845899Y-71361453D01*
X139835000Y-71415274D01*
X139835000Y-71384690D01*
X139738327Y-71151301D01*
X139559698Y-70972673D01*
X139326309Y-70876000D01*
X138985750Y-70876000D01*
X138827000Y-71034750D01*
X138827000Y-72009000D01*
X138847000Y-72009000D01*
X138847000Y-72263000D01*
X138827000Y-72263000D01*
X138827000Y-73237250D01*
X138985750Y-73396000D01*
X139326309Y-73396000D01*
X139559698Y-73299327D01*
X139738327Y-73120699D01*
X139835000Y-72887310D01*
X139835000Y-72864022D01*
X139841903Y-72900708D01*
X139924470Y-73029020D01*
X140050453Y-73115101D01*
X140200000Y-73145385D01*
X141200000Y-73145385D01*
X141339708Y-73119097D01*
X141468020Y-73036530D01*
X141554101Y-72910547D01*
X141584385Y-72761000D01*
X141584385Y-72691942D01*
X141602010Y-72709598D01*
X141850746Y-72812882D01*
X142120073Y-72813117D01*
X142368989Y-72710267D01*
X142559598Y-72519990D01*
X142662882Y-72271254D01*
X142663117Y-72001927D01*
X142560267Y-71753011D01*
X142369990Y-71562402D01*
X142121254Y-71459118D01*
X141851927Y-71458883D01*
X141603011Y-71561733D01*
X141584385Y-71580327D01*
X141584385Y-71511000D01*
X141558097Y-71371292D01*
X141475530Y-71242980D01*
X141349547Y-71156899D01*
X141202000Y-71127020D01*
X141202000Y-68940000D01*
X141163788Y-68747893D01*
X141054968Y-68585032D01*
X141054965Y-68585030D01*
X140983935Y-68514000D01*
X141002907Y-68495029D01*
X141104073Y-68495117D01*
X141352989Y-68392267D01*
X141543598Y-68201990D01*
X141646882Y-67953254D01*
X141647117Y-67683927D01*
X141544267Y-67435011D01*
X141353990Y-67244402D01*
X141105254Y-67141118D01*
X140835927Y-67140883D01*
X140587011Y-67243733D01*
X140396402Y-67434010D01*
X140293118Y-67682746D01*
X140293029Y-67785036D01*
X140284385Y-67793679D01*
X140284385Y-67390000D01*
X140258097Y-67250292D01*
X140175530Y-67121980D01*
X140049547Y-67035899D01*
X139900000Y-67005615D01*
X139143641Y-67005615D01*
X138989698Y-66851673D01*
X138756309Y-66755000D01*
X138415750Y-66755000D01*
X138257000Y-66913750D01*
X138003000Y-66913750D01*
X137844250Y-66755000D01*
X137553091Y-66755000D01*
X137582882Y-66683254D01*
X137583117Y-66413927D01*
X137480267Y-66165011D01*
X137289990Y-65974402D01*
X137041254Y-65871118D01*
X136771927Y-65870883D01*
X136523011Y-65973733D01*
X136332402Y-66164010D01*
X136270977Y-66311939D01*
X136210267Y-66165011D01*
X136019990Y-65974402D01*
X135771254Y-65871118D01*
X135501927Y-65870883D01*
X135253011Y-65973733D01*
X135062402Y-66164010D01*
X134959118Y-66412746D01*
X134958883Y-66682073D01*
X135061733Y-66930989D01*
X135134000Y-67003382D01*
X135134000Y-67005615D01*
X135090000Y-67005615D01*
X134950292Y-67031903D01*
X134950178Y-67031977D01*
X134820000Y-67005615D01*
X133820000Y-67005615D01*
X133680292Y-67031903D01*
X133680178Y-67031977D01*
X133550000Y-67005615D01*
X132550000Y-67005615D01*
X132410292Y-67031903D01*
X132410178Y-67031977D01*
X132280000Y-67005615D01*
X131280000Y-67005615D01*
X131140292Y-67031903D01*
X131140178Y-67031977D01*
X131010000Y-67005615D01*
X130010000Y-67005615D01*
X129870292Y-67031903D01*
X129741980Y-67114470D01*
X129655899Y-67240453D01*
X129625615Y-67390000D01*
X129625615Y-69390000D01*
X129651903Y-69529708D01*
X129734470Y-69658020D01*
X129860453Y-69744101D01*
X130010000Y-69774385D01*
X131010000Y-69774385D01*
X131149708Y-69748097D01*
X131149822Y-69748023D01*
X131278000Y-69773980D01*
X131278000Y-72069995D01*
X131277999Y-72070000D01*
X131316212Y-72262107D01*
X131425032Y-72424968D01*
X135554754Y-76554690D01*
X135517254Y-76539118D01*
X135247927Y-76538883D01*
X134999011Y-76641733D01*
X134808402Y-76832010D01*
X134705118Y-77080746D01*
X134704883Y-77350073D01*
X134807733Y-77598989D01*
X134838306Y-77629615D01*
X134701000Y-77629615D01*
X134571411Y-77653999D01*
X134451000Y-77629615D01*
X133901000Y-77629615D01*
X133771411Y-77653999D01*
X133651000Y-77629615D01*
X133101000Y-77629615D01*
X132971411Y-77653999D01*
X132851000Y-77629615D01*
X132301000Y-77629615D01*
X132161292Y-77655903D01*
X132032980Y-77738470D01*
X131946899Y-77864453D01*
X131916615Y-78014000D01*
X131916615Y-79604615D01*
X130326000Y-79604615D01*
X130186292Y-79630903D01*
X130057980Y-79713470D01*
X129971899Y-79839453D01*
X129941615Y-79989000D01*
X129941615Y-80539000D01*
X129965999Y-80668589D01*
X129941615Y-80789000D01*
X129941615Y-81232058D01*
X129923990Y-81214402D01*
X129675254Y-81111118D01*
X129405927Y-81110883D01*
X129157011Y-81213733D01*
X128966402Y-81404010D01*
X128863118Y-81652746D01*
X128862883Y-81922073D01*
X128965733Y-82170989D01*
X129156010Y-82361598D01*
X129404746Y-82464882D01*
X129674073Y-82465117D01*
X129747520Y-82434770D01*
X129849750Y-82537000D01*
X130999000Y-82537000D01*
X130999000Y-82523385D01*
X131253000Y-82523385D01*
X131253000Y-82537000D01*
X132402250Y-82537000D01*
X132561000Y-82378250D01*
X132561000Y-82262690D01*
X132464327Y-82029301D01*
X132310385Y-81875360D01*
X132310385Y-81589000D01*
X132286001Y-81459411D01*
X132310385Y-81339000D01*
X132310385Y-80881769D01*
X132452746Y-80940882D01*
X132722073Y-80941117D01*
X132970989Y-80838267D01*
X132987864Y-80821421D01*
X133004013Y-80837598D01*
X133252749Y-80940882D01*
X133522076Y-80941117D01*
X133770992Y-80838267D01*
X133829845Y-80779517D01*
X133845957Y-80795657D01*
X134094693Y-80898941D01*
X134364020Y-80899176D01*
X134612936Y-80796326D01*
X134794534Y-80615045D01*
X134807733Y-80646989D01*
X134998010Y-80837598D01*
X135246746Y-80940882D01*
X135516073Y-80941117D01*
X135764989Y-80838267D01*
X135955598Y-80647990D01*
X136017023Y-80500061D01*
X136077733Y-80646989D01*
X136268010Y-80837598D01*
X136516746Y-80940882D01*
X136786073Y-80941117D01*
X137034989Y-80838267D01*
X137225598Y-80647990D01*
X137328882Y-80399254D01*
X137329117Y-80129927D01*
X137274765Y-79998385D01*
X137553249Y-79998385D01*
X137499118Y-80128746D01*
X137498883Y-80398073D01*
X137601733Y-80646989D01*
X137792010Y-80837598D01*
X138040746Y-80940882D01*
X138310073Y-80941117D01*
X138441615Y-80886765D01*
X138441615Y-81339000D01*
X138465999Y-81468589D01*
X138441615Y-81589000D01*
X138441615Y-82139000D01*
X138465999Y-82268589D01*
X138441615Y-82389000D01*
X138441615Y-82675360D01*
X138287673Y-82829301D01*
X138191000Y-83062690D01*
X138191000Y-83178250D01*
X138349750Y-83337000D01*
X139499000Y-83337000D01*
X139499000Y-83323385D01*
X139753000Y-83323385D01*
X139753000Y-83337000D01*
X140902250Y-83337000D01*
X141061000Y-83178250D01*
X141061000Y-83062690D01*
X140964327Y-82829301D01*
X140810385Y-82675360D01*
X140810385Y-82389000D01*
X140786001Y-82259411D01*
X140810385Y-82139000D01*
X140810385Y-81589000D01*
X140806057Y-81566000D01*
X141060471Y-81566000D01*
X141094010Y-81599598D01*
X141342746Y-81702882D01*
X141612073Y-81703117D01*
X141860989Y-81600267D01*
X142051598Y-81409990D01*
X142154882Y-81161254D01*
X142155117Y-80891927D01*
X142103085Y-80766000D01*
X154732064Y-80766000D01*
X157887030Y-83920965D01*
X157887032Y-83920968D01*
X157972761Y-83978250D01*
X158049892Y-84029788D01*
X158242000Y-84068000D01*
X161170042Y-84068000D01*
X161414342Y-84433620D01*
X161812409Y-84699600D01*
X162281962Y-84793000D01*
X162330038Y-84793000D01*
X162799591Y-84699600D01*
X163197658Y-84433620D01*
X163463638Y-84035553D01*
X163557038Y-83566000D01*
X163463638Y-83096447D01*
X163197658Y-82698380D01*
X162799591Y-82432400D01*
X162330038Y-82339000D01*
X162281962Y-82339000D01*
X161812409Y-82432400D01*
X161414342Y-82698380D01*
X161170042Y-83064000D01*
X158449935Y-83064000D01*
X155294968Y-79909032D01*
X155132107Y-79800212D01*
X154940000Y-79761999D01*
X154939995Y-79762000D01*
X140727926Y-79762000D01*
X140701530Y-79720980D01*
X140575547Y-79634899D01*
X140426000Y-79604615D01*
X138835385Y-79604615D01*
X138835385Y-79316000D01*
X160986064Y-79316000D01*
X161461680Y-79791615D01*
X161456000Y-79791615D01*
X161316292Y-79817903D01*
X161187980Y-79900470D01*
X161101899Y-80026453D01*
X161071615Y-80176000D01*
X161071615Y-81876000D01*
X161097903Y-82015708D01*
X161180470Y-82144020D01*
X161306453Y-82230101D01*
X161456000Y-82260385D01*
X163156000Y-82260385D01*
X163295708Y-82234097D01*
X163424020Y-82151530D01*
X163510101Y-82025547D01*
X163540385Y-81876000D01*
X163540385Y-81026000D01*
X163594962Y-81026000D01*
X163688362Y-81495553D01*
X163954342Y-81893620D01*
X164352409Y-82159600D01*
X164821962Y-82253000D01*
X164870038Y-82253000D01*
X165339591Y-82159600D01*
X165737658Y-81893620D01*
X166003638Y-81495553D01*
X166097038Y-81026000D01*
X166003638Y-80556447D01*
X165737658Y-80158380D01*
X165339591Y-79892400D01*
X164870038Y-79799000D01*
X164821962Y-79799000D01*
X164352409Y-79892400D01*
X163954342Y-80158380D01*
X163688362Y-80556447D01*
X163594962Y-81026000D01*
X163540385Y-81026000D01*
X163540385Y-80176000D01*
X163514097Y-80036292D01*
X163431530Y-79907980D01*
X163305547Y-79821899D01*
X163156000Y-79791615D01*
X162781269Y-79791615D01*
X162769788Y-79733893D01*
X162660968Y-79571032D01*
X162660965Y-79571030D01*
X161548968Y-78459032D01*
X161386107Y-78350212D01*
X161194000Y-78311999D01*
X161193995Y-78312000D01*
X138835385Y-78312000D01*
X138835385Y-78014000D01*
X138809097Y-77874292D01*
X138726530Y-77745980D01*
X138678000Y-77712821D01*
X138678000Y-77182117D01*
X138682020Y-77179530D01*
X138768101Y-77053547D01*
X138798385Y-76904000D01*
X138798385Y-76004000D01*
X138772097Y-75864292D01*
X138689530Y-75735980D01*
X138616382Y-75686000D01*
X162606064Y-75686000D01*
X166376000Y-79455936D01*
X166376000Y-81326064D01*
X165281266Y-82420798D01*
X164870038Y-82339000D01*
X164821962Y-82339000D01*
X164352409Y-82432400D01*
X163954342Y-82698380D01*
X163688362Y-83096447D01*
X163594962Y-83566000D01*
X163688362Y-84035553D01*
X163954342Y-84433620D01*
X164352409Y-84699600D01*
X164395954Y-84708262D01*
X163964642Y-84910817D01*
X163574355Y-85339076D01*
X163455952Y-85624944D01*
X163197658Y-85238380D01*
X162799591Y-84972400D01*
X162330038Y-84879000D01*
X162281962Y-84879000D01*
X161812409Y-84972400D01*
X161414342Y-85238380D01*
X161148362Y-85636447D01*
X161054962Y-86106000D01*
X161144737Y-86557328D01*
X156256064Y-91446000D01*
X135486600Y-91446000D01*
X135478000Y-91400293D01*
X135478000Y-88493727D01*
X135501000Y-88498385D01*
X136051000Y-88498385D01*
X136180589Y-88474001D01*
X136301000Y-88498385D01*
X136851000Y-88498385D01*
X136980589Y-88474001D01*
X137101000Y-88498385D01*
X137651000Y-88498385D01*
X137780589Y-88474001D01*
X137901000Y-88498385D01*
X138451000Y-88498385D01*
X138590708Y-88472097D01*
X138719020Y-88389530D01*
X138805101Y-88263547D01*
X138835385Y-88114000D01*
X138835385Y-86523385D01*
X140426000Y-86523385D01*
X140565708Y-86497097D01*
X140694020Y-86414530D01*
X140780101Y-86288547D01*
X140810385Y-86139000D01*
X140810385Y-85589000D01*
X140786001Y-85459411D01*
X140810385Y-85339000D01*
X140810385Y-84789000D01*
X140786001Y-84659411D01*
X140810385Y-84539000D01*
X140810385Y-84252640D01*
X140964327Y-84098699D01*
X141061000Y-83865310D01*
X141061000Y-83749750D01*
X140902250Y-83591000D01*
X139753000Y-83591000D01*
X139753000Y-83604615D01*
X139499000Y-83604615D01*
X139499000Y-83591000D01*
X138349750Y-83591000D01*
X138191000Y-83749750D01*
X138191000Y-83865310D01*
X138287673Y-84098699D01*
X138441615Y-84252640D01*
X138441615Y-84539000D01*
X138465999Y-84668589D01*
X138441615Y-84789000D01*
X138441615Y-85339000D01*
X138465999Y-85468589D01*
X138441615Y-85589000D01*
X138441615Y-86129615D01*
X137901000Y-86129615D01*
X137771411Y-86153999D01*
X137651000Y-86129615D01*
X137101000Y-86129615D01*
X136971411Y-86153999D01*
X136851000Y-86129615D01*
X136301000Y-86129615D01*
X136171411Y-86153999D01*
X136051000Y-86129615D01*
X135501000Y-86129615D01*
X135371411Y-86153999D01*
X135251000Y-86129615D01*
X134701000Y-86129615D01*
X134571411Y-86153999D01*
X134451000Y-86129615D01*
X133901000Y-86129615D01*
X133771411Y-86153999D01*
X133651000Y-86129615D01*
X133101000Y-86129615D01*
X132971411Y-86153999D01*
X132851000Y-86129615D01*
X132310385Y-86129615D01*
X132310385Y-85589000D01*
X132286001Y-85459411D01*
X132310385Y-85339000D01*
X132310385Y-85052640D01*
X132464327Y-84898699D01*
X132561000Y-84665310D01*
X132561000Y-84549750D01*
X132402250Y-84391000D01*
X131253000Y-84391000D01*
X131253000Y-84404615D01*
X130999000Y-84404615D01*
X130999000Y-84391000D01*
X129849750Y-84391000D01*
X129782924Y-84457826D01*
X129675254Y-84413118D01*
X129405927Y-84412883D01*
X129157011Y-84515733D01*
X128966402Y-84706010D01*
X128863118Y-84954746D01*
X128862883Y-85224073D01*
X128965733Y-85472989D01*
X129156010Y-85663598D01*
X129404746Y-85766882D01*
X129674073Y-85767117D01*
X129922989Y-85664267D01*
X129941615Y-85645673D01*
X129941615Y-86139000D01*
X129967903Y-86278708D01*
X130050470Y-86407020D01*
X130176453Y-86493101D01*
X130326000Y-86523385D01*
X130624000Y-86523385D01*
X130624000Y-88376065D01*
X123089032Y-95911032D01*
X122980212Y-96073893D01*
X122941999Y-96266000D01*
X100452000Y-96266000D01*
X100452000Y-84597750D01*
X124470000Y-84597750D01*
X124470000Y-84938309D01*
X124566673Y-85171698D01*
X124745301Y-85350327D01*
X124978690Y-85447000D01*
X125444250Y-85447000D01*
X125603000Y-85288250D01*
X125603000Y-84439000D01*
X125857000Y-84439000D01*
X125857000Y-85288250D01*
X126015750Y-85447000D01*
X126481310Y-85447000D01*
X126714699Y-85350327D01*
X126893327Y-85171698D01*
X126990000Y-84938309D01*
X126990000Y-84597750D01*
X126831250Y-84439000D01*
X125857000Y-84439000D01*
X125603000Y-84439000D01*
X124628750Y-84439000D01*
X124470000Y-84597750D01*
X100452000Y-84597750D01*
X100452000Y-83685691D01*
X124470000Y-83685691D01*
X124470000Y-84026250D01*
X124628750Y-84185000D01*
X125603000Y-84185000D01*
X125603000Y-84165000D01*
X125857000Y-84165000D01*
X125857000Y-84185000D01*
X126831250Y-84185000D01*
X126990000Y-84026250D01*
X126990000Y-83700073D01*
X128862883Y-83700073D01*
X128965733Y-83948989D01*
X129156010Y-84139598D01*
X129404746Y-84242882D01*
X129674073Y-84243117D01*
X129922989Y-84140267D01*
X129926262Y-84137000D01*
X130999000Y-84137000D01*
X130999000Y-84123385D01*
X131253000Y-84123385D01*
X131253000Y-84137000D01*
X132402250Y-84137000D01*
X132561000Y-83978250D01*
X132561000Y-83862690D01*
X132464327Y-83629301D01*
X132310385Y-83475360D01*
X132310385Y-83452640D01*
X132464327Y-83298699D01*
X132561000Y-83065310D01*
X132561000Y-82949750D01*
X132402250Y-82791000D01*
X131253000Y-82791000D01*
X131253000Y-82804615D01*
X130999000Y-82804615D01*
X130999000Y-82791000D01*
X129849750Y-82791000D01*
X129729222Y-82911528D01*
X129675254Y-82889118D01*
X129405927Y-82888883D01*
X129157011Y-82991733D01*
X128966402Y-83182010D01*
X128863118Y-83430746D01*
X128862883Y-83700073D01*
X126990000Y-83700073D01*
X126990000Y-83685691D01*
X126893327Y-83452302D01*
X126714699Y-83273673D01*
X126481310Y-83177000D01*
X126458022Y-83177000D01*
X126494708Y-83170097D01*
X126623020Y-83087530D01*
X126709101Y-82961547D01*
X126739385Y-82812000D01*
X126739385Y-81812000D01*
X126713097Y-81672292D01*
X126630530Y-81543980D01*
X126504547Y-81457899D01*
X126355000Y-81427615D01*
X126285942Y-81427615D01*
X126303598Y-81409990D01*
X126406882Y-81161254D01*
X126407117Y-80891927D01*
X126304267Y-80643011D01*
X126113990Y-80452402D01*
X125865254Y-80349118D01*
X125595927Y-80348883D01*
X125347011Y-80451733D01*
X125156402Y-80642010D01*
X125053118Y-80890746D01*
X125052883Y-81160073D01*
X125155733Y-81408989D01*
X125174327Y-81427615D01*
X125105000Y-81427615D01*
X124965292Y-81453903D01*
X124836980Y-81536470D01*
X124750899Y-81662453D01*
X124720615Y-81812000D01*
X124720615Y-82812000D01*
X124746903Y-82951708D01*
X124829470Y-83080020D01*
X124955453Y-83166101D01*
X125009274Y-83177000D01*
X124978690Y-83177000D01*
X124745301Y-83273673D01*
X124566673Y-83452302D01*
X124470000Y-83685691D01*
X100452000Y-83685691D01*
X100452000Y-57531000D01*
X103288585Y-57531000D01*
X103947104Y-58190669D01*
M02*
