G04 #@! TF.FileFunction,Soldermask,Top*
%FSLAX46Y46*%
G04 Gerber Fmt 4.6, Leading zero omitted, Abs format (unit mm)*
G04 Created by KiCad (PCBNEW 4.0.6) date 09/11/17 20:09:05*
%MOMM*%
%LPD*%
G01*
G04 APERTURE LIST*
%ADD10C,0.100000*%
%ADD11R,1.200000X1.200000*%
%ADD12C,5.700000*%
%ADD13R,2.100000X2.100000*%
%ADD14O,2.100000X2.100000*%
%ADD15R,2.200000X1.500000*%
G04 APERTURE END LIST*
D10*
D11*
X132880000Y-101600000D03*
X131280000Y-101600000D03*
X143040000Y-116840000D03*
X141440000Y-116840000D03*
X137960000Y-116840000D03*
X136360000Y-116840000D03*
X132880000Y-111760000D03*
X131280000Y-111760000D03*
X143040000Y-101600000D03*
X141440000Y-101600000D03*
X143040000Y-106680000D03*
X141440000Y-106680000D03*
X143040000Y-111760000D03*
X141440000Y-111760000D03*
X137960000Y-111760000D03*
X136360000Y-111760000D03*
X137960000Y-101600000D03*
X136360000Y-101600000D03*
X132880000Y-116840000D03*
X131280000Y-116840000D03*
X137960000Y-106680000D03*
X136360000Y-106680000D03*
X127800000Y-106680000D03*
X126200000Y-106680000D03*
X127800000Y-111760000D03*
X126200000Y-111760000D03*
X127800000Y-116840000D03*
X126200000Y-116840000D03*
X132880000Y-106680000D03*
X131280000Y-106680000D03*
D12*
X164338000Y-55626000D03*
D11*
X127800000Y-101600000D03*
X126200000Y-101600000D03*
D13*
X162306000Y-81026000D03*
D14*
X164846000Y-81026000D03*
X162306000Y-83566000D03*
X164846000Y-83566000D03*
X162306000Y-86106000D03*
X164846000Y-86106000D03*
D15*
X131900000Y-143002000D03*
X138100000Y-143002000D03*
X131900000Y-146702000D03*
X138100000Y-146702000D03*
D12*
X105664000Y-55626000D03*
M02*
