G04 #@! TF.FileFunction,Legend,Top*
%FSLAX46Y46*%
G04 Gerber Fmt 4.6, Leading zero omitted, Abs format (unit mm)*
G04 Created by KiCad (PCBNEW 4.0.6) date 09/11/17 20:09:05*
%MOMM*%
%LPD*%
G01*
G04 APERTURE LIST*
%ADD10C,0.100000*%
%ADD11C,0.120000*%
%ADD12C,0.150000*%
%ADD13R,1.200000X1.200000*%
%ADD14C,5.700000*%
%ADD15R,2.100000X2.100000*%
%ADD16O,2.100000X2.100000*%
%ADD17R,2.200000X1.500000*%
G04 APERTURE END LIST*
D10*
D11*
X130780000Y-101100000D02*
X130780000Y-102100000D01*
X130780000Y-102100000D02*
X132880000Y-102100000D01*
X130780000Y-101100000D02*
X132880000Y-101100000D01*
X140940000Y-116340000D02*
X140940000Y-117340000D01*
X140940000Y-117340000D02*
X143040000Y-117340000D01*
X140940000Y-116340000D02*
X143040000Y-116340000D01*
X135860000Y-116340000D02*
X135860000Y-117340000D01*
X135860000Y-117340000D02*
X137960000Y-117340000D01*
X135860000Y-116340000D02*
X137960000Y-116340000D01*
X130780000Y-111260000D02*
X130780000Y-112260000D01*
X130780000Y-112260000D02*
X132880000Y-112260000D01*
X130780000Y-111260000D02*
X132880000Y-111260000D01*
X140940000Y-101100000D02*
X140940000Y-102100000D01*
X140940000Y-102100000D02*
X143040000Y-102100000D01*
X140940000Y-101100000D02*
X143040000Y-101100000D01*
X140940000Y-106180000D02*
X140940000Y-107180000D01*
X140940000Y-107180000D02*
X143040000Y-107180000D01*
X140940000Y-106180000D02*
X143040000Y-106180000D01*
X140940000Y-111260000D02*
X140940000Y-112260000D01*
X140940000Y-112260000D02*
X143040000Y-112260000D01*
X140940000Y-111260000D02*
X143040000Y-111260000D01*
X135860000Y-111260000D02*
X135860000Y-112260000D01*
X135860000Y-112260000D02*
X137960000Y-112260000D01*
X135860000Y-111260000D02*
X137960000Y-111260000D01*
X135860000Y-101100000D02*
X135860000Y-102100000D01*
X135860000Y-102100000D02*
X137960000Y-102100000D01*
X135860000Y-101100000D02*
X137960000Y-101100000D01*
X130780000Y-116340000D02*
X130780000Y-117340000D01*
X130780000Y-117340000D02*
X132880000Y-117340000D01*
X130780000Y-116340000D02*
X132880000Y-116340000D01*
X135860000Y-106180000D02*
X135860000Y-107180000D01*
X135860000Y-107180000D02*
X137960000Y-107180000D01*
X135860000Y-106180000D02*
X137960000Y-106180000D01*
X125700000Y-106180000D02*
X125700000Y-107180000D01*
X125700000Y-107180000D02*
X127800000Y-107180000D01*
X125700000Y-106180000D02*
X127800000Y-106180000D01*
X125700000Y-111260000D02*
X125700000Y-112260000D01*
X125700000Y-112260000D02*
X127800000Y-112260000D01*
X125700000Y-111260000D02*
X127800000Y-111260000D01*
X125700000Y-116340000D02*
X125700000Y-117340000D01*
X125700000Y-117340000D02*
X127800000Y-117340000D01*
X125700000Y-116340000D02*
X127800000Y-116340000D01*
X130780000Y-106180000D02*
X130780000Y-107180000D01*
X130780000Y-107180000D02*
X132880000Y-107180000D01*
X130780000Y-106180000D02*
X132880000Y-106180000D01*
X125700000Y-101100000D02*
X125700000Y-102100000D01*
X125700000Y-102100000D02*
X127800000Y-102100000D01*
X125700000Y-101100000D02*
X127800000Y-101100000D01*
X160976000Y-87436000D02*
X166176000Y-87436000D01*
X160976000Y-82296000D02*
X160976000Y-87436000D01*
X166176000Y-79696000D02*
X166176000Y-87436000D01*
X160976000Y-82296000D02*
X163576000Y-82296000D01*
X163576000Y-82296000D02*
X163576000Y-79696000D01*
X163576000Y-79696000D02*
X166176000Y-79696000D01*
X160976000Y-81026000D02*
X160976000Y-79696000D01*
X160976000Y-79696000D02*
X162306000Y-79696000D01*
X133550000Y-142152000D02*
X136450000Y-142152000D01*
X133100000Y-142602000D02*
X133550000Y-142152000D01*
X132300000Y-145852000D02*
X132300000Y-143852000D01*
X133550000Y-147552000D02*
X133100000Y-147102000D01*
X136450000Y-147552000D02*
X133550000Y-147552000D01*
X136900000Y-147102000D02*
X136450000Y-147552000D01*
X137700000Y-143852000D02*
X137700000Y-145852000D01*
X136450000Y-142152000D02*
X136900000Y-142602000D01*
D12*
X131341905Y-100802381D02*
X131341905Y-99802381D01*
X131580000Y-99802381D01*
X131722858Y-99850000D01*
X131818096Y-99945238D01*
X131865715Y-100040476D01*
X131913334Y-100230952D01*
X131913334Y-100373810D01*
X131865715Y-100564286D01*
X131818096Y-100659524D01*
X131722858Y-100754762D01*
X131580000Y-100802381D01*
X131341905Y-100802381D01*
X132818096Y-99802381D02*
X132341905Y-99802381D01*
X132294286Y-100278571D01*
X132341905Y-100230952D01*
X132437143Y-100183333D01*
X132675239Y-100183333D01*
X132770477Y-100230952D01*
X132818096Y-100278571D01*
X132865715Y-100373810D01*
X132865715Y-100611905D01*
X132818096Y-100707143D01*
X132770477Y-100754762D01*
X132675239Y-100802381D01*
X132437143Y-100802381D01*
X132341905Y-100754762D01*
X132294286Y-100707143D01*
X141025714Y-116042381D02*
X141025714Y-115042381D01*
X141263809Y-115042381D01*
X141406667Y-115090000D01*
X141501905Y-115185238D01*
X141549524Y-115280476D01*
X141597143Y-115470952D01*
X141597143Y-115613810D01*
X141549524Y-115804286D01*
X141501905Y-115899524D01*
X141406667Y-115994762D01*
X141263809Y-116042381D01*
X141025714Y-116042381D01*
X142549524Y-116042381D02*
X141978095Y-116042381D01*
X142263809Y-116042381D02*
X142263809Y-115042381D01*
X142168571Y-115185238D01*
X142073333Y-115280476D01*
X141978095Y-115328095D01*
X143406667Y-115042381D02*
X143216190Y-115042381D01*
X143120952Y-115090000D01*
X143073333Y-115137619D01*
X142978095Y-115280476D01*
X142930476Y-115470952D01*
X142930476Y-115851905D01*
X142978095Y-115947143D01*
X143025714Y-115994762D01*
X143120952Y-116042381D01*
X143311429Y-116042381D01*
X143406667Y-115994762D01*
X143454286Y-115947143D01*
X143501905Y-115851905D01*
X143501905Y-115613810D01*
X143454286Y-115518571D01*
X143406667Y-115470952D01*
X143311429Y-115423333D01*
X143120952Y-115423333D01*
X143025714Y-115470952D01*
X142978095Y-115518571D01*
X142930476Y-115613810D01*
X135945714Y-116042381D02*
X135945714Y-115042381D01*
X136183809Y-115042381D01*
X136326667Y-115090000D01*
X136421905Y-115185238D01*
X136469524Y-115280476D01*
X136517143Y-115470952D01*
X136517143Y-115613810D01*
X136469524Y-115804286D01*
X136421905Y-115899524D01*
X136326667Y-115994762D01*
X136183809Y-116042381D01*
X135945714Y-116042381D01*
X137469524Y-116042381D02*
X136898095Y-116042381D01*
X137183809Y-116042381D02*
X137183809Y-115042381D01*
X137088571Y-115185238D01*
X136993333Y-115280476D01*
X136898095Y-115328095D01*
X137850476Y-115137619D02*
X137898095Y-115090000D01*
X137993333Y-115042381D01*
X138231429Y-115042381D01*
X138326667Y-115090000D01*
X138374286Y-115137619D01*
X138421905Y-115232857D01*
X138421905Y-115328095D01*
X138374286Y-115470952D01*
X137802857Y-116042381D01*
X138421905Y-116042381D01*
X131341905Y-110962381D02*
X131341905Y-109962381D01*
X131580000Y-109962381D01*
X131722858Y-110010000D01*
X131818096Y-110105238D01*
X131865715Y-110200476D01*
X131913334Y-110390952D01*
X131913334Y-110533810D01*
X131865715Y-110724286D01*
X131818096Y-110819524D01*
X131722858Y-110914762D01*
X131580000Y-110962381D01*
X131341905Y-110962381D01*
X132246667Y-109962381D02*
X132913334Y-109962381D01*
X132484762Y-110962381D01*
X141025714Y-100802381D02*
X141025714Y-99802381D01*
X141263809Y-99802381D01*
X141406667Y-99850000D01*
X141501905Y-99945238D01*
X141549524Y-100040476D01*
X141597143Y-100230952D01*
X141597143Y-100373810D01*
X141549524Y-100564286D01*
X141501905Y-100659524D01*
X141406667Y-100754762D01*
X141263809Y-100802381D01*
X141025714Y-100802381D01*
X142549524Y-100802381D02*
X141978095Y-100802381D01*
X142263809Y-100802381D02*
X142263809Y-99802381D01*
X142168571Y-99945238D01*
X142073333Y-100040476D01*
X141978095Y-100088095D01*
X142882857Y-99802381D02*
X143501905Y-99802381D01*
X143168571Y-100183333D01*
X143311429Y-100183333D01*
X143406667Y-100230952D01*
X143454286Y-100278571D01*
X143501905Y-100373810D01*
X143501905Y-100611905D01*
X143454286Y-100707143D01*
X143406667Y-100754762D01*
X143311429Y-100802381D01*
X143025714Y-100802381D01*
X142930476Y-100754762D01*
X142882857Y-100707143D01*
X141025714Y-105882381D02*
X141025714Y-104882381D01*
X141263809Y-104882381D01*
X141406667Y-104930000D01*
X141501905Y-105025238D01*
X141549524Y-105120476D01*
X141597143Y-105310952D01*
X141597143Y-105453810D01*
X141549524Y-105644286D01*
X141501905Y-105739524D01*
X141406667Y-105834762D01*
X141263809Y-105882381D01*
X141025714Y-105882381D01*
X142549524Y-105882381D02*
X141978095Y-105882381D01*
X142263809Y-105882381D02*
X142263809Y-104882381D01*
X142168571Y-105025238D01*
X142073333Y-105120476D01*
X141978095Y-105168095D01*
X143406667Y-105215714D02*
X143406667Y-105882381D01*
X143168571Y-104834762D02*
X142930476Y-105549048D01*
X143549524Y-105549048D01*
X141025714Y-110962381D02*
X141025714Y-109962381D01*
X141263809Y-109962381D01*
X141406667Y-110010000D01*
X141501905Y-110105238D01*
X141549524Y-110200476D01*
X141597143Y-110390952D01*
X141597143Y-110533810D01*
X141549524Y-110724286D01*
X141501905Y-110819524D01*
X141406667Y-110914762D01*
X141263809Y-110962381D01*
X141025714Y-110962381D01*
X142549524Y-110962381D02*
X141978095Y-110962381D01*
X142263809Y-110962381D02*
X142263809Y-109962381D01*
X142168571Y-110105238D01*
X142073333Y-110200476D01*
X141978095Y-110248095D01*
X143454286Y-109962381D02*
X142978095Y-109962381D01*
X142930476Y-110438571D01*
X142978095Y-110390952D01*
X143073333Y-110343333D01*
X143311429Y-110343333D01*
X143406667Y-110390952D01*
X143454286Y-110438571D01*
X143501905Y-110533810D01*
X143501905Y-110771905D01*
X143454286Y-110867143D01*
X143406667Y-110914762D01*
X143311429Y-110962381D01*
X143073333Y-110962381D01*
X142978095Y-110914762D01*
X142930476Y-110867143D01*
X135945714Y-110962381D02*
X135945714Y-109962381D01*
X136183809Y-109962381D01*
X136326667Y-110010000D01*
X136421905Y-110105238D01*
X136469524Y-110200476D01*
X136517143Y-110390952D01*
X136517143Y-110533810D01*
X136469524Y-110724286D01*
X136421905Y-110819524D01*
X136326667Y-110914762D01*
X136183809Y-110962381D01*
X135945714Y-110962381D01*
X137469524Y-110962381D02*
X136898095Y-110962381D01*
X137183809Y-110962381D02*
X137183809Y-109962381D01*
X137088571Y-110105238D01*
X136993333Y-110200476D01*
X136898095Y-110248095D01*
X138421905Y-110962381D02*
X137850476Y-110962381D01*
X138136190Y-110962381D02*
X138136190Y-109962381D01*
X138040952Y-110105238D01*
X137945714Y-110200476D01*
X137850476Y-110248095D01*
X136421905Y-100802381D02*
X136421905Y-99802381D01*
X136660000Y-99802381D01*
X136802858Y-99850000D01*
X136898096Y-99945238D01*
X136945715Y-100040476D01*
X136993334Y-100230952D01*
X136993334Y-100373810D01*
X136945715Y-100564286D01*
X136898096Y-100659524D01*
X136802858Y-100754762D01*
X136660000Y-100802381D01*
X136421905Y-100802381D01*
X137469524Y-100802381D02*
X137660000Y-100802381D01*
X137755239Y-100754762D01*
X137802858Y-100707143D01*
X137898096Y-100564286D01*
X137945715Y-100373810D01*
X137945715Y-99992857D01*
X137898096Y-99897619D01*
X137850477Y-99850000D01*
X137755239Y-99802381D01*
X137564762Y-99802381D01*
X137469524Y-99850000D01*
X137421905Y-99897619D01*
X137374286Y-99992857D01*
X137374286Y-100230952D01*
X137421905Y-100326190D01*
X137469524Y-100373810D01*
X137564762Y-100421429D01*
X137755239Y-100421429D01*
X137850477Y-100373810D01*
X137898096Y-100326190D01*
X137945715Y-100230952D01*
X131341905Y-116042381D02*
X131341905Y-115042381D01*
X131580000Y-115042381D01*
X131722858Y-115090000D01*
X131818096Y-115185238D01*
X131865715Y-115280476D01*
X131913334Y-115470952D01*
X131913334Y-115613810D01*
X131865715Y-115804286D01*
X131818096Y-115899524D01*
X131722858Y-115994762D01*
X131580000Y-116042381D01*
X131341905Y-116042381D01*
X132484762Y-115470952D02*
X132389524Y-115423333D01*
X132341905Y-115375714D01*
X132294286Y-115280476D01*
X132294286Y-115232857D01*
X132341905Y-115137619D01*
X132389524Y-115090000D01*
X132484762Y-115042381D01*
X132675239Y-115042381D01*
X132770477Y-115090000D01*
X132818096Y-115137619D01*
X132865715Y-115232857D01*
X132865715Y-115280476D01*
X132818096Y-115375714D01*
X132770477Y-115423333D01*
X132675239Y-115470952D01*
X132484762Y-115470952D01*
X132389524Y-115518571D01*
X132341905Y-115566190D01*
X132294286Y-115661429D01*
X132294286Y-115851905D01*
X132341905Y-115947143D01*
X132389524Y-115994762D01*
X132484762Y-116042381D01*
X132675239Y-116042381D01*
X132770477Y-115994762D01*
X132818096Y-115947143D01*
X132865715Y-115851905D01*
X132865715Y-115661429D01*
X132818096Y-115566190D01*
X132770477Y-115518571D01*
X132675239Y-115470952D01*
X135945714Y-105882381D02*
X135945714Y-104882381D01*
X136183809Y-104882381D01*
X136326667Y-104930000D01*
X136421905Y-105025238D01*
X136469524Y-105120476D01*
X136517143Y-105310952D01*
X136517143Y-105453810D01*
X136469524Y-105644286D01*
X136421905Y-105739524D01*
X136326667Y-105834762D01*
X136183809Y-105882381D01*
X135945714Y-105882381D01*
X137469524Y-105882381D02*
X136898095Y-105882381D01*
X137183809Y-105882381D02*
X137183809Y-104882381D01*
X137088571Y-105025238D01*
X136993333Y-105120476D01*
X136898095Y-105168095D01*
X138088571Y-104882381D02*
X138183810Y-104882381D01*
X138279048Y-104930000D01*
X138326667Y-104977619D01*
X138374286Y-105072857D01*
X138421905Y-105263333D01*
X138421905Y-105501429D01*
X138374286Y-105691905D01*
X138326667Y-105787143D01*
X138279048Y-105834762D01*
X138183810Y-105882381D01*
X138088571Y-105882381D01*
X137993333Y-105834762D01*
X137945714Y-105787143D01*
X137898095Y-105691905D01*
X137850476Y-105501429D01*
X137850476Y-105263333D01*
X137898095Y-105072857D01*
X137945714Y-104977619D01*
X137993333Y-104930000D01*
X138088571Y-104882381D01*
X126261905Y-105882381D02*
X126261905Y-104882381D01*
X126500000Y-104882381D01*
X126642858Y-104930000D01*
X126738096Y-105025238D01*
X126785715Y-105120476D01*
X126833334Y-105310952D01*
X126833334Y-105453810D01*
X126785715Y-105644286D01*
X126738096Y-105739524D01*
X126642858Y-105834762D01*
X126500000Y-105882381D01*
X126261905Y-105882381D01*
X127214286Y-104977619D02*
X127261905Y-104930000D01*
X127357143Y-104882381D01*
X127595239Y-104882381D01*
X127690477Y-104930000D01*
X127738096Y-104977619D01*
X127785715Y-105072857D01*
X127785715Y-105168095D01*
X127738096Y-105310952D01*
X127166667Y-105882381D01*
X127785715Y-105882381D01*
X126261905Y-110962381D02*
X126261905Y-109962381D01*
X126500000Y-109962381D01*
X126642858Y-110010000D01*
X126738096Y-110105238D01*
X126785715Y-110200476D01*
X126833334Y-110390952D01*
X126833334Y-110533810D01*
X126785715Y-110724286D01*
X126738096Y-110819524D01*
X126642858Y-110914762D01*
X126500000Y-110962381D01*
X126261905Y-110962381D01*
X127166667Y-109962381D02*
X127785715Y-109962381D01*
X127452381Y-110343333D01*
X127595239Y-110343333D01*
X127690477Y-110390952D01*
X127738096Y-110438571D01*
X127785715Y-110533810D01*
X127785715Y-110771905D01*
X127738096Y-110867143D01*
X127690477Y-110914762D01*
X127595239Y-110962381D01*
X127309524Y-110962381D01*
X127214286Y-110914762D01*
X127166667Y-110867143D01*
X126261905Y-116042381D02*
X126261905Y-115042381D01*
X126500000Y-115042381D01*
X126642858Y-115090000D01*
X126738096Y-115185238D01*
X126785715Y-115280476D01*
X126833334Y-115470952D01*
X126833334Y-115613810D01*
X126785715Y-115804286D01*
X126738096Y-115899524D01*
X126642858Y-115994762D01*
X126500000Y-116042381D01*
X126261905Y-116042381D01*
X127690477Y-115375714D02*
X127690477Y-116042381D01*
X127452381Y-114994762D02*
X127214286Y-115709048D01*
X127833334Y-115709048D01*
X131341905Y-105882381D02*
X131341905Y-104882381D01*
X131580000Y-104882381D01*
X131722858Y-104930000D01*
X131818096Y-105025238D01*
X131865715Y-105120476D01*
X131913334Y-105310952D01*
X131913334Y-105453810D01*
X131865715Y-105644286D01*
X131818096Y-105739524D01*
X131722858Y-105834762D01*
X131580000Y-105882381D01*
X131341905Y-105882381D01*
X132770477Y-104882381D02*
X132580000Y-104882381D01*
X132484762Y-104930000D01*
X132437143Y-104977619D01*
X132341905Y-105120476D01*
X132294286Y-105310952D01*
X132294286Y-105691905D01*
X132341905Y-105787143D01*
X132389524Y-105834762D01*
X132484762Y-105882381D01*
X132675239Y-105882381D01*
X132770477Y-105834762D01*
X132818096Y-105787143D01*
X132865715Y-105691905D01*
X132865715Y-105453810D01*
X132818096Y-105358571D01*
X132770477Y-105310952D01*
X132675239Y-105263333D01*
X132484762Y-105263333D01*
X132389524Y-105310952D01*
X132341905Y-105358571D01*
X132294286Y-105453810D01*
X126261905Y-100802381D02*
X126261905Y-99802381D01*
X126500000Y-99802381D01*
X126642858Y-99850000D01*
X126738096Y-99945238D01*
X126785715Y-100040476D01*
X126833334Y-100230952D01*
X126833334Y-100373810D01*
X126785715Y-100564286D01*
X126738096Y-100659524D01*
X126642858Y-100754762D01*
X126500000Y-100802381D01*
X126261905Y-100802381D01*
X127785715Y-100802381D02*
X127214286Y-100802381D01*
X127500000Y-100802381D02*
X127500000Y-99802381D01*
X127404762Y-99945238D01*
X127309524Y-100040476D01*
X127214286Y-100088095D01*
X163242667Y-78148381D02*
X163242667Y-78862667D01*
X163195047Y-79005524D01*
X163099809Y-79100762D01*
X162956952Y-79148381D01*
X162861714Y-79148381D01*
X164242667Y-79148381D02*
X163671238Y-79148381D01*
X163956952Y-79148381D02*
X163956952Y-78148381D01*
X163861714Y-78291238D01*
X163766476Y-78386476D01*
X163671238Y-78434095D01*
X133666667Y-141656762D02*
X133809524Y-141704381D01*
X134047620Y-141704381D01*
X134142858Y-141656762D01*
X134190477Y-141609143D01*
X134238096Y-141513905D01*
X134238096Y-141418667D01*
X134190477Y-141323429D01*
X134142858Y-141275810D01*
X134047620Y-141228190D01*
X133857143Y-141180571D01*
X133761905Y-141132952D01*
X133714286Y-141085333D01*
X133666667Y-140990095D01*
X133666667Y-140894857D01*
X133714286Y-140799619D01*
X133761905Y-140752000D01*
X133857143Y-140704381D01*
X134095239Y-140704381D01*
X134238096Y-140752000D01*
X134571429Y-140704381D02*
X134809524Y-141704381D01*
X135000001Y-140990095D01*
X135190477Y-141704381D01*
X135428572Y-140704381D01*
X136333334Y-141704381D02*
X135761905Y-141704381D01*
X136047619Y-141704381D02*
X136047619Y-140704381D01*
X135952381Y-140847238D01*
X135857143Y-140942476D01*
X135761905Y-140990095D01*
%LPC*%
D13*
X132880000Y-101600000D03*
X131280000Y-101600000D03*
X143040000Y-116840000D03*
X141440000Y-116840000D03*
X137960000Y-116840000D03*
X136360000Y-116840000D03*
X132880000Y-111760000D03*
X131280000Y-111760000D03*
X143040000Y-101600000D03*
X141440000Y-101600000D03*
X143040000Y-106680000D03*
X141440000Y-106680000D03*
X143040000Y-111760000D03*
X141440000Y-111760000D03*
X137960000Y-111760000D03*
X136360000Y-111760000D03*
X137960000Y-101600000D03*
X136360000Y-101600000D03*
X132880000Y-116840000D03*
X131280000Y-116840000D03*
X137960000Y-106680000D03*
X136360000Y-106680000D03*
X127800000Y-106680000D03*
X126200000Y-106680000D03*
X127800000Y-111760000D03*
X126200000Y-111760000D03*
X127800000Y-116840000D03*
X126200000Y-116840000D03*
X132880000Y-106680000D03*
X131280000Y-106680000D03*
D14*
X164338000Y-55626000D03*
D13*
X127800000Y-101600000D03*
X126200000Y-101600000D03*
D15*
X162306000Y-81026000D03*
D16*
X164846000Y-81026000D03*
X162306000Y-83566000D03*
X164846000Y-83566000D03*
X162306000Y-86106000D03*
X164846000Y-86106000D03*
D17*
X131900000Y-143002000D03*
X138100000Y-143002000D03*
X131900000Y-146702000D03*
X138100000Y-146702000D03*
D14*
X105664000Y-55626000D03*
M02*
