M48
;DRILL file {KiCad 4.0.6} date 09/11/17 20:09:33
;FORMAT={-:-/ absolute / inch / decimal}
FMAT,2
INCH,TZ
T1C0.016
T2C0.039
%
G90
G05
M72
T1
X4.12Y-5.29
X4.12Y-5.58
X4.95Y-3.19
X5.07Y-4.
X5.07Y-4.2
X5.07Y-4.4
X5.07Y-4.6
X5.1Y-3.22
X5.1Y-3.29
X5.1Y-3.35
X5.14Y-5.29
X5.14Y-5.58
X5.22Y-3.16
X5.22Y-3.62
X5.2515Y-3.16
X5.27Y-4.
X5.27Y-4.2
X5.27Y-4.4
X5.27Y-4.6
X5.2846Y-3.1583
X5.32Y-2.77
X5.33Y-3.04
X5.33Y-3.16
X5.34Y-2.62
X5.38Y-3.16
X5.39Y-2.62
X5.44Y-3.16
X5.47Y-4.
X5.47Y-4.2
X5.47Y-4.4
X5.47Y-4.6
X5.49Y-5.29
X5.49Y-5.58
X5.51Y-5.78
X5.55Y-2.67
X5.57Y-3.19
X5.59Y-2.84
X5.67Y-4.
X5.67Y-4.2
X5.67Y-4.4
X5.67Y-4.6
X6.5Y-5.29
X6.5Y-5.57
T2
X6.39Y-3.19
X6.39Y-3.29
X6.39Y-3.39
X6.49Y-3.19
X6.49Y-3.29
X6.49Y-3.39
T0
M30
