G04 #@! TF.FileFunction,Copper,L1,Top,Signal*
%FSLAX46Y46*%
G04 Gerber Fmt 4.6, Leading zero omitted, Abs format (unit mm)*
G04 Created by KiCad (PCBNEW 4.0.6) date 09/11/17 20:09:05*
%MOMM*%
%LPD*%
G01*
G04 APERTURE LIST*
%ADD10C,0.100000*%
%ADD11R,0.800000X0.800000*%
%ADD12R,1.700000X1.700000*%
%ADD13O,1.700000X1.700000*%
%ADD14R,1.800000X1.100000*%
%ADD15C,0.600000*%
%ADD16C,0.250000*%
%ADD17C,0.254000*%
G04 APERTURE END LIST*
D10*
D11*
X132880000Y-101600000D03*
X131280000Y-101600000D03*
X143040000Y-116840000D03*
X141440000Y-116840000D03*
X137960000Y-116840000D03*
X136360000Y-116840000D03*
X132880000Y-111760000D03*
X131280000Y-111760000D03*
X143040000Y-101600000D03*
X141440000Y-101600000D03*
X143040000Y-106680000D03*
X141440000Y-106680000D03*
X143040000Y-111760000D03*
X141440000Y-111760000D03*
X137960000Y-111760000D03*
X136360000Y-111760000D03*
X137960000Y-101600000D03*
X136360000Y-101600000D03*
X132880000Y-116840000D03*
X131280000Y-116840000D03*
X137960000Y-106680000D03*
X136360000Y-106680000D03*
X127800000Y-106680000D03*
X126200000Y-106680000D03*
X127800000Y-111760000D03*
X126200000Y-111760000D03*
X127800000Y-116840000D03*
X126200000Y-116840000D03*
X132880000Y-106680000D03*
X131280000Y-106680000D03*
X127800000Y-101600000D03*
X126200000Y-101600000D03*
D12*
X162306000Y-81026000D03*
D13*
X164846000Y-81026000D03*
X162306000Y-83566000D03*
X164846000Y-83566000D03*
X162306000Y-86106000D03*
X164846000Y-86106000D03*
D14*
X131900000Y-143002000D03*
X138100000Y-143002000D03*
X131900000Y-146702000D03*
X138100000Y-146702000D03*
D15*
X141986000Y-72136000D03*
X140970000Y-67818000D03*
X141478000Y-81026000D03*
X125730000Y-81026000D03*
X132588000Y-91948000D03*
X129540000Y-83566000D03*
X165100000Y-134366000D03*
X139446000Y-141732000D03*
X139446000Y-134366000D03*
X165100000Y-141478000D03*
X130556000Y-141732000D03*
X130556000Y-134366000D03*
X129540000Y-81788000D03*
X104648000Y-141732000D03*
X104648000Y-134366000D03*
X139954000Y-146812000D03*
X144018000Y-101600000D03*
X138938000Y-101600000D03*
X133858000Y-101600000D03*
X128778000Y-101600000D03*
X129540000Y-85090000D03*
X144018000Y-106680000D03*
X138938000Y-106680000D03*
X133858000Y-106680000D03*
X128778000Y-106680000D03*
X144018000Y-111760000D03*
X138938000Y-111760000D03*
X133858000Y-111760000D03*
X128778000Y-111760000D03*
X144018000Y-116840000D03*
X138938000Y-116840000D03*
X133858000Y-116840000D03*
X128778000Y-116840000D03*
X132588000Y-80264000D03*
X133388003Y-80264000D03*
X134229947Y-80222059D03*
X135128000Y-70358000D03*
X138176000Y-80264000D03*
X135382000Y-80264000D03*
X135636000Y-66548000D03*
X135382000Y-77216000D03*
X136906000Y-66548000D03*
X136652000Y-80264000D03*
D16*
X138100000Y-146702000D02*
X139844000Y-146702000D01*
X139844000Y-146702000D02*
X139954000Y-146812000D01*
X131900000Y-146702000D02*
X133050000Y-146702000D01*
X133050000Y-146702000D02*
X138100000Y-146702000D01*
X144018000Y-101600000D02*
X143040000Y-101600000D01*
X138938000Y-101600000D02*
X137960000Y-101600000D01*
X132880000Y-101600000D02*
X133858000Y-101600000D01*
X127800000Y-101600000D02*
X128778000Y-101600000D01*
X126200000Y-101600000D02*
X126200000Y-88430000D01*
X126200000Y-88430000D02*
X129540000Y-85090000D01*
X126200000Y-106680000D02*
X126200000Y-101600000D01*
X126200000Y-111760000D02*
X126200000Y-106680000D01*
X126200000Y-116840000D02*
X126200000Y-111760000D01*
X144018000Y-106680000D02*
X143040000Y-106680000D01*
X138938000Y-106680000D02*
X137960000Y-106680000D01*
X133858000Y-106680000D02*
X132880000Y-106680000D01*
X127800000Y-106680000D02*
X128778000Y-106680000D01*
X144018000Y-111760000D02*
X143040000Y-111760000D01*
X138938000Y-111760000D02*
X137960000Y-111760000D01*
X133858000Y-111760000D02*
X132880000Y-111760000D01*
X127800000Y-111760000D02*
X128778000Y-111760000D01*
X144018000Y-116840000D02*
X143040000Y-116840000D01*
X138938000Y-116840000D02*
X137960000Y-116840000D01*
X133858000Y-116840000D02*
X132880000Y-116840000D01*
X127800000Y-116840000D02*
X128778000Y-116840000D01*
X131280000Y-101600000D02*
X131280000Y-81572000D01*
X131280000Y-81572000D02*
X132588000Y-80264000D01*
X131280000Y-116840000D02*
X131280000Y-111760000D01*
X131280000Y-111760000D02*
X131280000Y-106680000D01*
X131280000Y-106680000D02*
X131280000Y-106030000D01*
X131280000Y-106030000D02*
X131280000Y-101600000D01*
X136360000Y-101600000D02*
X136360000Y-83235997D01*
X136360000Y-83235997D02*
X133388003Y-80264000D01*
X136360000Y-106680000D02*
X136360000Y-101600000D01*
X136360000Y-111760000D02*
X136360000Y-111110000D01*
X136360000Y-111110000D02*
X136360000Y-106680000D01*
X136360000Y-116840000D02*
X136360000Y-111760000D01*
X141440000Y-101600000D02*
X141440000Y-87432112D01*
X141440000Y-87432112D02*
X134229947Y-80222059D01*
X141440000Y-106680000D02*
X141440000Y-101600000D01*
X141440000Y-111760000D02*
X141440000Y-106680000D01*
X141440000Y-116840000D02*
X141440000Y-111760000D01*
X138176000Y-73882116D02*
X138176000Y-73406000D01*
X138176000Y-73406000D02*
X135128000Y-70358000D01*
X138176000Y-80264000D02*
X138176000Y-73882116D01*
X145796000Y-90904228D02*
X145796000Y-90678000D01*
X145796000Y-90678000D02*
X135382000Y-80264000D01*
X145796000Y-118110000D02*
X145796000Y-90904228D01*
X138100000Y-125806000D02*
X145796000Y-118110000D01*
X138100000Y-143002000D02*
X138100000Y-125806000D01*
X131900000Y-143002000D02*
X133050000Y-143002000D01*
X133050000Y-143002000D02*
X138100000Y-143002000D01*
X135382000Y-77216000D02*
X133756941Y-75590941D01*
X133756941Y-75590941D02*
X133756941Y-68427059D01*
X133756941Y-68427059D02*
X135636000Y-66548000D01*
X136652000Y-80264000D02*
X137277001Y-80889001D01*
X138476001Y-80889001D02*
X138801001Y-80564001D01*
X137277001Y-80889001D02*
X138476001Y-80889001D01*
X138801001Y-80564001D02*
X138801001Y-68443001D01*
X138801001Y-68443001D02*
X136906000Y-66548000D01*
D17*
G36*
X103947104Y-58190669D02*
X105059251Y-58652473D01*
X106263466Y-58653524D01*
X107376417Y-58193662D01*
X108040236Y-57531000D01*
X161962585Y-57531000D01*
X162621104Y-58190669D01*
X163733251Y-58652473D01*
X164937466Y-58653524D01*
X166050417Y-58193662D01*
X166714236Y-57531000D01*
X169548000Y-57531000D01*
X169548000Y-149548000D01*
X100452000Y-149548000D01*
X100452000Y-146152000D01*
X130615615Y-146152000D01*
X130615615Y-147252000D01*
X130641903Y-147391708D01*
X130724470Y-147520020D01*
X130850453Y-147606101D01*
X131000000Y-147636385D01*
X132800000Y-147636385D01*
X132939708Y-147610097D01*
X133068020Y-147527530D01*
X133154101Y-147401547D01*
X133184385Y-147252000D01*
X133184385Y-147204000D01*
X136815615Y-147204000D01*
X136815615Y-147252000D01*
X136841903Y-147391708D01*
X136924470Y-147520020D01*
X137050453Y-147606101D01*
X137200000Y-147636385D01*
X139000000Y-147636385D01*
X139139708Y-147610097D01*
X139268020Y-147527530D01*
X139354101Y-147401547D01*
X139384385Y-147252000D01*
X139384385Y-147204000D01*
X139388728Y-147204000D01*
X139570010Y-147385598D01*
X139818746Y-147488882D01*
X140088073Y-147489117D01*
X140336989Y-147386267D01*
X140527598Y-147195990D01*
X140630882Y-146947254D01*
X140631117Y-146677927D01*
X140528267Y-146429011D01*
X140337990Y-146238402D01*
X140089254Y-146135118D01*
X139819927Y-146134883D01*
X139662332Y-146200000D01*
X139384385Y-146200000D01*
X139384385Y-146152000D01*
X139358097Y-146012292D01*
X139275530Y-145883980D01*
X139149547Y-145797899D01*
X139000000Y-145767615D01*
X137200000Y-145767615D01*
X137060292Y-145793903D01*
X136931980Y-145876470D01*
X136845899Y-146002453D01*
X136815615Y-146152000D01*
X136815615Y-146200000D01*
X133184385Y-146200000D01*
X133184385Y-146152000D01*
X133158097Y-146012292D01*
X133075530Y-145883980D01*
X132949547Y-145797899D01*
X132800000Y-145767615D01*
X131000000Y-145767615D01*
X130860292Y-145793903D01*
X130731980Y-145876470D01*
X130645899Y-146002453D01*
X130615615Y-146152000D01*
X100452000Y-146152000D01*
X100452000Y-101200000D01*
X125415615Y-101200000D01*
X125415615Y-102000000D01*
X125441903Y-102139708D01*
X125524470Y-102268020D01*
X125650453Y-102354101D01*
X125698000Y-102363730D01*
X125698000Y-105914808D01*
X125660292Y-105921903D01*
X125531980Y-106004470D01*
X125445899Y-106130453D01*
X125415615Y-106280000D01*
X125415615Y-107080000D01*
X125441903Y-107219708D01*
X125524470Y-107348020D01*
X125650453Y-107434101D01*
X125698000Y-107443730D01*
X125698000Y-110994808D01*
X125660292Y-111001903D01*
X125531980Y-111084470D01*
X125445899Y-111210453D01*
X125415615Y-111360000D01*
X125415615Y-112160000D01*
X125441903Y-112299708D01*
X125524470Y-112428020D01*
X125650453Y-112514101D01*
X125698000Y-112523730D01*
X125698000Y-116074808D01*
X125660292Y-116081903D01*
X125531980Y-116164470D01*
X125445899Y-116290453D01*
X125415615Y-116440000D01*
X125415615Y-117240000D01*
X125441903Y-117379708D01*
X125524470Y-117508020D01*
X125650453Y-117594101D01*
X125800000Y-117624385D01*
X126600000Y-117624385D01*
X126739708Y-117598097D01*
X126868020Y-117515530D01*
X126954101Y-117389547D01*
X126984385Y-117240000D01*
X126984385Y-116440000D01*
X127015615Y-116440000D01*
X127015615Y-117240000D01*
X127041903Y-117379708D01*
X127124470Y-117508020D01*
X127250453Y-117594101D01*
X127400000Y-117624385D01*
X128200000Y-117624385D01*
X128339708Y-117598097D01*
X128468020Y-117515530D01*
X128505917Y-117460066D01*
X128642746Y-117516882D01*
X128912073Y-117517117D01*
X129160989Y-117414267D01*
X129351598Y-117223990D01*
X129454882Y-116975254D01*
X129455117Y-116705927D01*
X129352267Y-116457011D01*
X129161990Y-116266402D01*
X128913254Y-116163118D01*
X128643927Y-116162883D01*
X128506275Y-116219759D01*
X128475530Y-116171980D01*
X128349547Y-116085899D01*
X128200000Y-116055615D01*
X127400000Y-116055615D01*
X127260292Y-116081903D01*
X127131980Y-116164470D01*
X127045899Y-116290453D01*
X127015615Y-116440000D01*
X126984385Y-116440000D01*
X126958097Y-116300292D01*
X126875530Y-116171980D01*
X126749547Y-116085899D01*
X126702000Y-116076270D01*
X126702000Y-112525192D01*
X126739708Y-112518097D01*
X126868020Y-112435530D01*
X126954101Y-112309547D01*
X126984385Y-112160000D01*
X126984385Y-111360000D01*
X127015615Y-111360000D01*
X127015615Y-112160000D01*
X127041903Y-112299708D01*
X127124470Y-112428020D01*
X127250453Y-112514101D01*
X127400000Y-112544385D01*
X128200000Y-112544385D01*
X128339708Y-112518097D01*
X128468020Y-112435530D01*
X128505917Y-112380066D01*
X128642746Y-112436882D01*
X128912073Y-112437117D01*
X129160989Y-112334267D01*
X129351598Y-112143990D01*
X129454882Y-111895254D01*
X129455117Y-111625927D01*
X129352267Y-111377011D01*
X129161990Y-111186402D01*
X128913254Y-111083118D01*
X128643927Y-111082883D01*
X128506275Y-111139759D01*
X128475530Y-111091980D01*
X128349547Y-111005899D01*
X128200000Y-110975615D01*
X127400000Y-110975615D01*
X127260292Y-111001903D01*
X127131980Y-111084470D01*
X127045899Y-111210453D01*
X127015615Y-111360000D01*
X126984385Y-111360000D01*
X126958097Y-111220292D01*
X126875530Y-111091980D01*
X126749547Y-111005899D01*
X126702000Y-110996270D01*
X126702000Y-107445192D01*
X126739708Y-107438097D01*
X126868020Y-107355530D01*
X126954101Y-107229547D01*
X126984385Y-107080000D01*
X126984385Y-106280000D01*
X127015615Y-106280000D01*
X127015615Y-107080000D01*
X127041903Y-107219708D01*
X127124470Y-107348020D01*
X127250453Y-107434101D01*
X127400000Y-107464385D01*
X128200000Y-107464385D01*
X128339708Y-107438097D01*
X128468020Y-107355530D01*
X128505917Y-107300066D01*
X128642746Y-107356882D01*
X128912073Y-107357117D01*
X129160989Y-107254267D01*
X129351598Y-107063990D01*
X129454882Y-106815254D01*
X129455117Y-106545927D01*
X129352267Y-106297011D01*
X129161990Y-106106402D01*
X128913254Y-106003118D01*
X128643927Y-106002883D01*
X128506275Y-106059759D01*
X128475530Y-106011980D01*
X128349547Y-105925899D01*
X128200000Y-105895615D01*
X127400000Y-105895615D01*
X127260292Y-105921903D01*
X127131980Y-106004470D01*
X127045899Y-106130453D01*
X127015615Y-106280000D01*
X126984385Y-106280000D01*
X126958097Y-106140292D01*
X126875530Y-106011980D01*
X126749547Y-105925899D01*
X126702000Y-105916270D01*
X126702000Y-102365192D01*
X126739708Y-102358097D01*
X126868020Y-102275530D01*
X126954101Y-102149547D01*
X126984385Y-102000000D01*
X126984385Y-101200000D01*
X127015615Y-101200000D01*
X127015615Y-102000000D01*
X127041903Y-102139708D01*
X127124470Y-102268020D01*
X127250453Y-102354101D01*
X127400000Y-102384385D01*
X128200000Y-102384385D01*
X128339708Y-102358097D01*
X128468020Y-102275530D01*
X128505917Y-102220066D01*
X128642746Y-102276882D01*
X128912073Y-102277117D01*
X129160989Y-102174267D01*
X129351598Y-101983990D01*
X129454882Y-101735254D01*
X129455117Y-101465927D01*
X129352267Y-101217011D01*
X129335286Y-101200000D01*
X130495615Y-101200000D01*
X130495615Y-102000000D01*
X130521903Y-102139708D01*
X130604470Y-102268020D01*
X130730453Y-102354101D01*
X130778000Y-102363730D01*
X130778000Y-105914808D01*
X130740292Y-105921903D01*
X130611980Y-106004470D01*
X130525899Y-106130453D01*
X130495615Y-106280000D01*
X130495615Y-107080000D01*
X130521903Y-107219708D01*
X130604470Y-107348020D01*
X130730453Y-107434101D01*
X130778000Y-107443730D01*
X130778000Y-110994808D01*
X130740292Y-111001903D01*
X130611980Y-111084470D01*
X130525899Y-111210453D01*
X130495615Y-111360000D01*
X130495615Y-112160000D01*
X130521903Y-112299708D01*
X130604470Y-112428020D01*
X130730453Y-112514101D01*
X130778000Y-112523730D01*
X130778000Y-116074808D01*
X130740292Y-116081903D01*
X130611980Y-116164470D01*
X130525899Y-116290453D01*
X130495615Y-116440000D01*
X130495615Y-117240000D01*
X130521903Y-117379708D01*
X130604470Y-117508020D01*
X130730453Y-117594101D01*
X130880000Y-117624385D01*
X131680000Y-117624385D01*
X131819708Y-117598097D01*
X131948020Y-117515530D01*
X132034101Y-117389547D01*
X132064385Y-117240000D01*
X132064385Y-116440000D01*
X132095615Y-116440000D01*
X132095615Y-117240000D01*
X132121903Y-117379708D01*
X132204470Y-117508020D01*
X132330453Y-117594101D01*
X132480000Y-117624385D01*
X133280000Y-117624385D01*
X133419708Y-117598097D01*
X133548020Y-117515530D01*
X133585917Y-117460066D01*
X133722746Y-117516882D01*
X133992073Y-117517117D01*
X134240989Y-117414267D01*
X134431598Y-117223990D01*
X134534882Y-116975254D01*
X134535117Y-116705927D01*
X134432267Y-116457011D01*
X134241990Y-116266402D01*
X133993254Y-116163118D01*
X133723927Y-116162883D01*
X133586275Y-116219759D01*
X133555530Y-116171980D01*
X133429547Y-116085899D01*
X133280000Y-116055615D01*
X132480000Y-116055615D01*
X132340292Y-116081903D01*
X132211980Y-116164470D01*
X132125899Y-116290453D01*
X132095615Y-116440000D01*
X132064385Y-116440000D01*
X132038097Y-116300292D01*
X131955530Y-116171980D01*
X131829547Y-116085899D01*
X131782000Y-116076270D01*
X131782000Y-112525192D01*
X131819708Y-112518097D01*
X131948020Y-112435530D01*
X132034101Y-112309547D01*
X132064385Y-112160000D01*
X132064385Y-111360000D01*
X132095615Y-111360000D01*
X132095615Y-112160000D01*
X132121903Y-112299708D01*
X132204470Y-112428020D01*
X132330453Y-112514101D01*
X132480000Y-112544385D01*
X133280000Y-112544385D01*
X133419708Y-112518097D01*
X133548020Y-112435530D01*
X133585917Y-112380066D01*
X133722746Y-112436882D01*
X133992073Y-112437117D01*
X134240989Y-112334267D01*
X134431598Y-112143990D01*
X134534882Y-111895254D01*
X134535117Y-111625927D01*
X134432267Y-111377011D01*
X134241990Y-111186402D01*
X133993254Y-111083118D01*
X133723927Y-111082883D01*
X133586275Y-111139759D01*
X133555530Y-111091980D01*
X133429547Y-111005899D01*
X133280000Y-110975615D01*
X132480000Y-110975615D01*
X132340292Y-111001903D01*
X132211980Y-111084470D01*
X132125899Y-111210453D01*
X132095615Y-111360000D01*
X132064385Y-111360000D01*
X132038097Y-111220292D01*
X131955530Y-111091980D01*
X131829547Y-111005899D01*
X131782000Y-110996270D01*
X131782000Y-107445192D01*
X131819708Y-107438097D01*
X131948020Y-107355530D01*
X132034101Y-107229547D01*
X132064385Y-107080000D01*
X132064385Y-106280000D01*
X132095615Y-106280000D01*
X132095615Y-107080000D01*
X132121903Y-107219708D01*
X132204470Y-107348020D01*
X132330453Y-107434101D01*
X132480000Y-107464385D01*
X133280000Y-107464385D01*
X133419708Y-107438097D01*
X133548020Y-107355530D01*
X133585917Y-107300066D01*
X133722746Y-107356882D01*
X133992073Y-107357117D01*
X134240989Y-107254267D01*
X134431598Y-107063990D01*
X134534882Y-106815254D01*
X134535117Y-106545927D01*
X134432267Y-106297011D01*
X134241990Y-106106402D01*
X133993254Y-106003118D01*
X133723927Y-106002883D01*
X133586275Y-106059759D01*
X133555530Y-106011980D01*
X133429547Y-105925899D01*
X133280000Y-105895615D01*
X132480000Y-105895615D01*
X132340292Y-105921903D01*
X132211980Y-106004470D01*
X132125899Y-106130453D01*
X132095615Y-106280000D01*
X132064385Y-106280000D01*
X132038097Y-106140292D01*
X131955530Y-106011980D01*
X131829547Y-105925899D01*
X131782000Y-105916270D01*
X131782000Y-102365192D01*
X131819708Y-102358097D01*
X131948020Y-102275530D01*
X132034101Y-102149547D01*
X132064385Y-102000000D01*
X132064385Y-101200000D01*
X132095615Y-101200000D01*
X132095615Y-102000000D01*
X132121903Y-102139708D01*
X132204470Y-102268020D01*
X132330453Y-102354101D01*
X132480000Y-102384385D01*
X133280000Y-102384385D01*
X133419708Y-102358097D01*
X133548020Y-102275530D01*
X133585917Y-102220066D01*
X133722746Y-102276882D01*
X133992073Y-102277117D01*
X134240989Y-102174267D01*
X134431598Y-101983990D01*
X134534882Y-101735254D01*
X134535117Y-101465927D01*
X134432267Y-101217011D01*
X134241990Y-101026402D01*
X133993254Y-100923118D01*
X133723927Y-100922883D01*
X133586275Y-100979759D01*
X133555530Y-100931980D01*
X133429547Y-100845899D01*
X133280000Y-100815615D01*
X132480000Y-100815615D01*
X132340292Y-100841903D01*
X132211980Y-100924470D01*
X132125899Y-101050453D01*
X132095615Y-101200000D01*
X132064385Y-101200000D01*
X132038097Y-101060292D01*
X131955530Y-100931980D01*
X131829547Y-100845899D01*
X131782000Y-100836270D01*
X131782000Y-81779936D01*
X132620907Y-80941029D01*
X132722073Y-80941117D01*
X132970989Y-80838267D01*
X132987864Y-80821421D01*
X133004013Y-80837598D01*
X133252749Y-80940882D01*
X133355038Y-80940971D01*
X135858000Y-83443932D01*
X135858000Y-100834808D01*
X135820292Y-100841903D01*
X135691980Y-100924470D01*
X135605899Y-101050453D01*
X135575615Y-101200000D01*
X135575615Y-102000000D01*
X135601903Y-102139708D01*
X135684470Y-102268020D01*
X135810453Y-102354101D01*
X135858000Y-102363730D01*
X135858000Y-105914808D01*
X135820292Y-105921903D01*
X135691980Y-106004470D01*
X135605899Y-106130453D01*
X135575615Y-106280000D01*
X135575615Y-107080000D01*
X135601903Y-107219708D01*
X135684470Y-107348020D01*
X135810453Y-107434101D01*
X135858000Y-107443730D01*
X135858000Y-110994808D01*
X135820292Y-111001903D01*
X135691980Y-111084470D01*
X135605899Y-111210453D01*
X135575615Y-111360000D01*
X135575615Y-112160000D01*
X135601903Y-112299708D01*
X135684470Y-112428020D01*
X135810453Y-112514101D01*
X135858000Y-112523730D01*
X135858000Y-116074808D01*
X135820292Y-116081903D01*
X135691980Y-116164470D01*
X135605899Y-116290453D01*
X135575615Y-116440000D01*
X135575615Y-117240000D01*
X135601903Y-117379708D01*
X135684470Y-117508020D01*
X135810453Y-117594101D01*
X135960000Y-117624385D01*
X136760000Y-117624385D01*
X136899708Y-117598097D01*
X137028020Y-117515530D01*
X137114101Y-117389547D01*
X137144385Y-117240000D01*
X137144385Y-116440000D01*
X137175615Y-116440000D01*
X137175615Y-117240000D01*
X137201903Y-117379708D01*
X137284470Y-117508020D01*
X137410453Y-117594101D01*
X137560000Y-117624385D01*
X138360000Y-117624385D01*
X138499708Y-117598097D01*
X138628020Y-117515530D01*
X138665917Y-117460066D01*
X138802746Y-117516882D01*
X139072073Y-117517117D01*
X139320989Y-117414267D01*
X139511598Y-117223990D01*
X139614882Y-116975254D01*
X139615117Y-116705927D01*
X139512267Y-116457011D01*
X139321990Y-116266402D01*
X139073254Y-116163118D01*
X138803927Y-116162883D01*
X138666275Y-116219759D01*
X138635530Y-116171980D01*
X138509547Y-116085899D01*
X138360000Y-116055615D01*
X137560000Y-116055615D01*
X137420292Y-116081903D01*
X137291980Y-116164470D01*
X137205899Y-116290453D01*
X137175615Y-116440000D01*
X137144385Y-116440000D01*
X137118097Y-116300292D01*
X137035530Y-116171980D01*
X136909547Y-116085899D01*
X136862000Y-116076270D01*
X136862000Y-112525192D01*
X136899708Y-112518097D01*
X137028020Y-112435530D01*
X137114101Y-112309547D01*
X137144385Y-112160000D01*
X137144385Y-111360000D01*
X137175615Y-111360000D01*
X137175615Y-112160000D01*
X137201903Y-112299708D01*
X137284470Y-112428020D01*
X137410453Y-112514101D01*
X137560000Y-112544385D01*
X138360000Y-112544385D01*
X138499708Y-112518097D01*
X138628020Y-112435530D01*
X138665917Y-112380066D01*
X138802746Y-112436882D01*
X139072073Y-112437117D01*
X139320989Y-112334267D01*
X139511598Y-112143990D01*
X139614882Y-111895254D01*
X139615117Y-111625927D01*
X139512267Y-111377011D01*
X139321990Y-111186402D01*
X139073254Y-111083118D01*
X138803927Y-111082883D01*
X138666275Y-111139759D01*
X138635530Y-111091980D01*
X138509547Y-111005899D01*
X138360000Y-110975615D01*
X137560000Y-110975615D01*
X137420292Y-111001903D01*
X137291980Y-111084470D01*
X137205899Y-111210453D01*
X137175615Y-111360000D01*
X137144385Y-111360000D01*
X137118097Y-111220292D01*
X137035530Y-111091980D01*
X136909547Y-111005899D01*
X136862000Y-110996270D01*
X136862000Y-107445192D01*
X136899708Y-107438097D01*
X137028020Y-107355530D01*
X137114101Y-107229547D01*
X137144385Y-107080000D01*
X137144385Y-106280000D01*
X137175615Y-106280000D01*
X137175615Y-107080000D01*
X137201903Y-107219708D01*
X137284470Y-107348020D01*
X137410453Y-107434101D01*
X137560000Y-107464385D01*
X138360000Y-107464385D01*
X138499708Y-107438097D01*
X138628020Y-107355530D01*
X138665917Y-107300066D01*
X138802746Y-107356882D01*
X139072073Y-107357117D01*
X139320989Y-107254267D01*
X139511598Y-107063990D01*
X139614882Y-106815254D01*
X139615117Y-106545927D01*
X139512267Y-106297011D01*
X139321990Y-106106402D01*
X139073254Y-106003118D01*
X138803927Y-106002883D01*
X138666275Y-106059759D01*
X138635530Y-106011980D01*
X138509547Y-105925899D01*
X138360000Y-105895615D01*
X137560000Y-105895615D01*
X137420292Y-105921903D01*
X137291980Y-106004470D01*
X137205899Y-106130453D01*
X137175615Y-106280000D01*
X137144385Y-106280000D01*
X137118097Y-106140292D01*
X137035530Y-106011980D01*
X136909547Y-105925899D01*
X136862000Y-105916270D01*
X136862000Y-102365192D01*
X136899708Y-102358097D01*
X137028020Y-102275530D01*
X137114101Y-102149547D01*
X137144385Y-102000000D01*
X137144385Y-101200000D01*
X137175615Y-101200000D01*
X137175615Y-102000000D01*
X137201903Y-102139708D01*
X137284470Y-102268020D01*
X137410453Y-102354101D01*
X137560000Y-102384385D01*
X138360000Y-102384385D01*
X138499708Y-102358097D01*
X138628020Y-102275530D01*
X138665917Y-102220066D01*
X138802746Y-102276882D01*
X139072073Y-102277117D01*
X139320989Y-102174267D01*
X139511598Y-101983990D01*
X139614882Y-101735254D01*
X139615117Y-101465927D01*
X139512267Y-101217011D01*
X139321990Y-101026402D01*
X139073254Y-100923118D01*
X138803927Y-100922883D01*
X138666275Y-100979759D01*
X138635530Y-100931980D01*
X138509547Y-100845899D01*
X138360000Y-100815615D01*
X137560000Y-100815615D01*
X137420292Y-100841903D01*
X137291980Y-100924470D01*
X137205899Y-101050453D01*
X137175615Y-101200000D01*
X137144385Y-101200000D01*
X137118097Y-101060292D01*
X137035530Y-100931980D01*
X136909547Y-100845899D01*
X136862000Y-100836270D01*
X136862000Y-83564048D01*
X140938000Y-87640047D01*
X140938000Y-100834808D01*
X140900292Y-100841903D01*
X140771980Y-100924470D01*
X140685899Y-101050453D01*
X140655615Y-101200000D01*
X140655615Y-102000000D01*
X140681903Y-102139708D01*
X140764470Y-102268020D01*
X140890453Y-102354101D01*
X140938000Y-102363730D01*
X140938000Y-105914808D01*
X140900292Y-105921903D01*
X140771980Y-106004470D01*
X140685899Y-106130453D01*
X140655615Y-106280000D01*
X140655615Y-107080000D01*
X140681903Y-107219708D01*
X140764470Y-107348020D01*
X140890453Y-107434101D01*
X140938000Y-107443730D01*
X140938000Y-110994808D01*
X140900292Y-111001903D01*
X140771980Y-111084470D01*
X140685899Y-111210453D01*
X140655615Y-111360000D01*
X140655615Y-112160000D01*
X140681903Y-112299708D01*
X140764470Y-112428020D01*
X140890453Y-112514101D01*
X140938000Y-112523730D01*
X140938000Y-116074808D01*
X140900292Y-116081903D01*
X140771980Y-116164470D01*
X140685899Y-116290453D01*
X140655615Y-116440000D01*
X140655615Y-117240000D01*
X140681903Y-117379708D01*
X140764470Y-117508020D01*
X140890453Y-117594101D01*
X141040000Y-117624385D01*
X141840000Y-117624385D01*
X141979708Y-117598097D01*
X142108020Y-117515530D01*
X142194101Y-117389547D01*
X142224385Y-117240000D01*
X142224385Y-116440000D01*
X142255615Y-116440000D01*
X142255615Y-117240000D01*
X142281903Y-117379708D01*
X142364470Y-117508020D01*
X142490453Y-117594101D01*
X142640000Y-117624385D01*
X143440000Y-117624385D01*
X143579708Y-117598097D01*
X143708020Y-117515530D01*
X143745917Y-117460066D01*
X143882746Y-117516882D01*
X144152073Y-117517117D01*
X144400989Y-117414267D01*
X144591598Y-117223990D01*
X144694882Y-116975254D01*
X144695117Y-116705927D01*
X144592267Y-116457011D01*
X144401990Y-116266402D01*
X144153254Y-116163118D01*
X143883927Y-116162883D01*
X143746275Y-116219759D01*
X143715530Y-116171980D01*
X143589547Y-116085899D01*
X143440000Y-116055615D01*
X142640000Y-116055615D01*
X142500292Y-116081903D01*
X142371980Y-116164470D01*
X142285899Y-116290453D01*
X142255615Y-116440000D01*
X142224385Y-116440000D01*
X142198097Y-116300292D01*
X142115530Y-116171980D01*
X141989547Y-116085899D01*
X141942000Y-116076270D01*
X141942000Y-112525192D01*
X141979708Y-112518097D01*
X142108020Y-112435530D01*
X142194101Y-112309547D01*
X142224385Y-112160000D01*
X142224385Y-111360000D01*
X142255615Y-111360000D01*
X142255615Y-112160000D01*
X142281903Y-112299708D01*
X142364470Y-112428020D01*
X142490453Y-112514101D01*
X142640000Y-112544385D01*
X143440000Y-112544385D01*
X143579708Y-112518097D01*
X143708020Y-112435530D01*
X143745917Y-112380066D01*
X143882746Y-112436882D01*
X144152073Y-112437117D01*
X144400989Y-112334267D01*
X144591598Y-112143990D01*
X144694882Y-111895254D01*
X144695117Y-111625927D01*
X144592267Y-111377011D01*
X144401990Y-111186402D01*
X144153254Y-111083118D01*
X143883927Y-111082883D01*
X143746275Y-111139759D01*
X143715530Y-111091980D01*
X143589547Y-111005899D01*
X143440000Y-110975615D01*
X142640000Y-110975615D01*
X142500292Y-111001903D01*
X142371980Y-111084470D01*
X142285899Y-111210453D01*
X142255615Y-111360000D01*
X142224385Y-111360000D01*
X142198097Y-111220292D01*
X142115530Y-111091980D01*
X141989547Y-111005899D01*
X141942000Y-110996270D01*
X141942000Y-107445192D01*
X141979708Y-107438097D01*
X142108020Y-107355530D01*
X142194101Y-107229547D01*
X142224385Y-107080000D01*
X142224385Y-106280000D01*
X142255615Y-106280000D01*
X142255615Y-107080000D01*
X142281903Y-107219708D01*
X142364470Y-107348020D01*
X142490453Y-107434101D01*
X142640000Y-107464385D01*
X143440000Y-107464385D01*
X143579708Y-107438097D01*
X143708020Y-107355530D01*
X143745917Y-107300066D01*
X143882746Y-107356882D01*
X144152073Y-107357117D01*
X144400989Y-107254267D01*
X144591598Y-107063990D01*
X144694882Y-106815254D01*
X144695117Y-106545927D01*
X144592267Y-106297011D01*
X144401990Y-106106402D01*
X144153254Y-106003118D01*
X143883927Y-106002883D01*
X143746275Y-106059759D01*
X143715530Y-106011980D01*
X143589547Y-105925899D01*
X143440000Y-105895615D01*
X142640000Y-105895615D01*
X142500292Y-105921903D01*
X142371980Y-106004470D01*
X142285899Y-106130453D01*
X142255615Y-106280000D01*
X142224385Y-106280000D01*
X142198097Y-106140292D01*
X142115530Y-106011980D01*
X141989547Y-105925899D01*
X141942000Y-105916270D01*
X141942000Y-102365192D01*
X141979708Y-102358097D01*
X142108020Y-102275530D01*
X142194101Y-102149547D01*
X142224385Y-102000000D01*
X142224385Y-101200000D01*
X142255615Y-101200000D01*
X142255615Y-102000000D01*
X142281903Y-102139708D01*
X142364470Y-102268020D01*
X142490453Y-102354101D01*
X142640000Y-102384385D01*
X143440000Y-102384385D01*
X143579708Y-102358097D01*
X143708020Y-102275530D01*
X143745917Y-102220066D01*
X143882746Y-102276882D01*
X144152073Y-102277117D01*
X144400989Y-102174267D01*
X144591598Y-101983990D01*
X144694882Y-101735254D01*
X144695117Y-101465927D01*
X144592267Y-101217011D01*
X144401990Y-101026402D01*
X144153254Y-100923118D01*
X143883927Y-100922883D01*
X143746275Y-100979759D01*
X143715530Y-100931980D01*
X143589547Y-100845899D01*
X143440000Y-100815615D01*
X142640000Y-100815615D01*
X142500292Y-100841903D01*
X142371980Y-100924470D01*
X142285899Y-101050453D01*
X142255615Y-101200000D01*
X142224385Y-101200000D01*
X142198097Y-101060292D01*
X142115530Y-100931980D01*
X141989547Y-100845899D01*
X141942000Y-100836270D01*
X141942000Y-87533936D01*
X145294000Y-90885936D01*
X145294000Y-117902065D01*
X137745032Y-125451032D01*
X137636212Y-125613893D01*
X137597999Y-125806000D01*
X137598000Y-125806005D01*
X137598000Y-142067615D01*
X137200000Y-142067615D01*
X137060292Y-142093903D01*
X136931980Y-142176470D01*
X136845899Y-142302453D01*
X136815615Y-142452000D01*
X136815615Y-142500000D01*
X133184385Y-142500000D01*
X133184385Y-142452000D01*
X133158097Y-142312292D01*
X133075530Y-142183980D01*
X132949547Y-142097899D01*
X132800000Y-142067615D01*
X131000000Y-142067615D01*
X130860292Y-142093903D01*
X130731980Y-142176470D01*
X130645899Y-142302453D01*
X130615615Y-142452000D01*
X130615615Y-143552000D01*
X130641903Y-143691708D01*
X130724470Y-143820020D01*
X130850453Y-143906101D01*
X131000000Y-143936385D01*
X132800000Y-143936385D01*
X132939708Y-143910097D01*
X133068020Y-143827530D01*
X133154101Y-143701547D01*
X133184385Y-143552000D01*
X133184385Y-143504000D01*
X136815615Y-143504000D01*
X136815615Y-143552000D01*
X136841903Y-143691708D01*
X136924470Y-143820020D01*
X137050453Y-143906101D01*
X137200000Y-143936385D01*
X139000000Y-143936385D01*
X139139708Y-143910097D01*
X139268020Y-143827530D01*
X139354101Y-143701547D01*
X139384385Y-143552000D01*
X139384385Y-142452000D01*
X139358097Y-142312292D01*
X139275530Y-142183980D01*
X139149547Y-142097899D01*
X139000000Y-142067615D01*
X138602000Y-142067615D01*
X138602000Y-126013936D01*
X146150965Y-118464970D01*
X146150968Y-118464968D01*
X146259788Y-118302107D01*
X146298001Y-118110000D01*
X146298000Y-118109995D01*
X146298000Y-90678005D01*
X146298001Y-90678000D01*
X146259788Y-90485892D01*
X146150968Y-90323032D01*
X141933936Y-86106000D01*
X161054962Y-86106000D01*
X161148362Y-86575553D01*
X161414342Y-86973620D01*
X161812409Y-87239600D01*
X162281962Y-87333000D01*
X162330038Y-87333000D01*
X162799591Y-87239600D01*
X163197658Y-86973620D01*
X163463638Y-86575553D01*
X163557038Y-86106000D01*
X163594962Y-86106000D01*
X163688362Y-86575553D01*
X163954342Y-86973620D01*
X164352409Y-87239600D01*
X164821962Y-87333000D01*
X164870038Y-87333000D01*
X165339591Y-87239600D01*
X165737658Y-86973620D01*
X166003638Y-86575553D01*
X166097038Y-86106000D01*
X166003638Y-85636447D01*
X165737658Y-85238380D01*
X165339591Y-84972400D01*
X164870038Y-84879000D01*
X164821962Y-84879000D01*
X164352409Y-84972400D01*
X163954342Y-85238380D01*
X163688362Y-85636447D01*
X163594962Y-86106000D01*
X163557038Y-86106000D01*
X163463638Y-85636447D01*
X163197658Y-85238380D01*
X162799591Y-84972400D01*
X162330038Y-84879000D01*
X162281962Y-84879000D01*
X161812409Y-84972400D01*
X161414342Y-85238380D01*
X161148362Y-85636447D01*
X161054962Y-86106000D01*
X141933936Y-86106000D01*
X139393936Y-83566000D01*
X161054962Y-83566000D01*
X161148362Y-84035553D01*
X161414342Y-84433620D01*
X161812409Y-84699600D01*
X162281962Y-84793000D01*
X162330038Y-84793000D01*
X162799591Y-84699600D01*
X163197658Y-84433620D01*
X163463638Y-84035553D01*
X163557038Y-83566000D01*
X163463638Y-83096447D01*
X163197658Y-82698380D01*
X162799591Y-82432400D01*
X162330038Y-82339000D01*
X162281962Y-82339000D01*
X161812409Y-82432400D01*
X161414342Y-82698380D01*
X161148362Y-83096447D01*
X161054962Y-83566000D01*
X139393936Y-83566000D01*
X137204521Y-81376585D01*
X137277001Y-81391002D01*
X137277006Y-81391001D01*
X138475996Y-81391001D01*
X138476001Y-81391002D01*
X138668108Y-81352789D01*
X138830969Y-81243969D01*
X139155966Y-80918971D01*
X139155969Y-80918969D01*
X139221201Y-80821341D01*
X139264789Y-80756109D01*
X139303001Y-80564001D01*
X139303001Y-80176000D01*
X161071615Y-80176000D01*
X161071615Y-81876000D01*
X161097903Y-82015708D01*
X161180470Y-82144020D01*
X161306453Y-82230101D01*
X161456000Y-82260385D01*
X163156000Y-82260385D01*
X163295708Y-82234097D01*
X163424020Y-82151530D01*
X163510101Y-82025547D01*
X163540385Y-81876000D01*
X163540385Y-81710908D01*
X163574355Y-81792924D01*
X163964642Y-82221183D01*
X164395954Y-82423738D01*
X164352409Y-82432400D01*
X163954342Y-82698380D01*
X163688362Y-83096447D01*
X163594962Y-83566000D01*
X163688362Y-84035553D01*
X163954342Y-84433620D01*
X164352409Y-84699600D01*
X164821962Y-84793000D01*
X164870038Y-84793000D01*
X165339591Y-84699600D01*
X165737658Y-84433620D01*
X166003638Y-84035553D01*
X166097038Y-83566000D01*
X166003638Y-83096447D01*
X165737658Y-82698380D01*
X165339591Y-82432400D01*
X165296046Y-82423738D01*
X165727358Y-82221183D01*
X166117645Y-81792924D01*
X166287476Y-81382890D01*
X166166155Y-81153000D01*
X164973000Y-81153000D01*
X164973000Y-81173000D01*
X164719000Y-81173000D01*
X164719000Y-81153000D01*
X164699000Y-81153000D01*
X164699000Y-80899000D01*
X164719000Y-80899000D01*
X164719000Y-79705181D01*
X164973000Y-79705181D01*
X164973000Y-80899000D01*
X166166155Y-80899000D01*
X166287476Y-80669110D01*
X166117645Y-80259076D01*
X165727358Y-79830817D01*
X165202892Y-79584514D01*
X164973000Y-79705181D01*
X164719000Y-79705181D01*
X164489108Y-79584514D01*
X163964642Y-79830817D01*
X163574355Y-80259076D01*
X163540385Y-80341092D01*
X163540385Y-80176000D01*
X163514097Y-80036292D01*
X163431530Y-79907980D01*
X163305547Y-79821899D01*
X163156000Y-79791615D01*
X161456000Y-79791615D01*
X161316292Y-79817903D01*
X161187980Y-79900470D01*
X161101899Y-80026453D01*
X161071615Y-80176000D01*
X139303001Y-80176000D01*
X139303001Y-68443001D01*
X139264789Y-68250894D01*
X139264789Y-68250893D01*
X139155969Y-68088033D01*
X137583029Y-66515093D01*
X137583117Y-66413927D01*
X137480267Y-66165011D01*
X137289990Y-65974402D01*
X137041254Y-65871118D01*
X136771927Y-65870883D01*
X136523011Y-65973733D01*
X136332402Y-66164010D01*
X136270977Y-66311939D01*
X136210267Y-66165011D01*
X136019990Y-65974402D01*
X135771254Y-65871118D01*
X135501927Y-65870883D01*
X135253011Y-65973733D01*
X135062402Y-66164010D01*
X134959118Y-66412746D01*
X134959029Y-66515036D01*
X133401973Y-68072091D01*
X133293153Y-68234952D01*
X133254940Y-68427059D01*
X133254941Y-68427064D01*
X133254941Y-75590936D01*
X133254940Y-75590941D01*
X133293153Y-75783048D01*
X133401973Y-75945909D01*
X134704971Y-77248906D01*
X134704883Y-77350073D01*
X134807733Y-77598989D01*
X134998010Y-77789598D01*
X135246746Y-77892882D01*
X135516073Y-77893117D01*
X135764989Y-77790267D01*
X135955598Y-77599990D01*
X136058882Y-77351254D01*
X136059117Y-77081927D01*
X135956267Y-76833011D01*
X135765990Y-76642402D01*
X135517254Y-76539118D01*
X135414964Y-76539029D01*
X134258941Y-75383005D01*
X134258941Y-68634995D01*
X135668906Y-67225029D01*
X135770073Y-67225117D01*
X136018989Y-67122267D01*
X136209598Y-66931990D01*
X136271023Y-66784061D01*
X136331733Y-66930989D01*
X136522010Y-67121598D01*
X136770746Y-67224882D01*
X136873035Y-67224971D01*
X138299001Y-68650937D01*
X138299001Y-72819065D01*
X135805029Y-70325093D01*
X135805117Y-70223927D01*
X135702267Y-69975011D01*
X135511990Y-69784402D01*
X135263254Y-69681118D01*
X134993927Y-69680883D01*
X134745011Y-69783733D01*
X134554402Y-69974010D01*
X134451118Y-70222746D01*
X134450883Y-70492073D01*
X134553733Y-70740989D01*
X134744010Y-70931598D01*
X134992746Y-71034882D01*
X135095035Y-71034971D01*
X137674000Y-73613936D01*
X137674000Y-79808537D01*
X137602402Y-79880010D01*
X137499118Y-80128746D01*
X137498893Y-80387001D01*
X137484937Y-80387001D01*
X137329029Y-80231093D01*
X137329117Y-80129927D01*
X137226267Y-79881011D01*
X137035990Y-79690402D01*
X136787254Y-79587118D01*
X136517927Y-79586883D01*
X136269011Y-79689733D01*
X136078402Y-79880010D01*
X136016977Y-80027939D01*
X135956267Y-79881011D01*
X135765990Y-79690402D01*
X135517254Y-79587118D01*
X135247927Y-79586883D01*
X134999011Y-79689733D01*
X134817413Y-79871014D01*
X134804214Y-79839070D01*
X134613937Y-79648461D01*
X134365201Y-79545177D01*
X134095874Y-79544942D01*
X133846958Y-79647792D01*
X133788105Y-79706542D01*
X133771993Y-79690402D01*
X133523257Y-79587118D01*
X133253930Y-79586883D01*
X133005014Y-79689733D01*
X132988139Y-79706579D01*
X132971990Y-79690402D01*
X132723254Y-79587118D01*
X132453927Y-79586883D01*
X132205011Y-79689733D01*
X132014402Y-79880010D01*
X131911118Y-80128746D01*
X131911029Y-80231036D01*
X130925032Y-81217032D01*
X130816212Y-81379893D01*
X130777999Y-81572000D01*
X130778000Y-81572005D01*
X130778000Y-100834808D01*
X130740292Y-100841903D01*
X130611980Y-100924470D01*
X130525899Y-101050453D01*
X130495615Y-101200000D01*
X129335286Y-101200000D01*
X129161990Y-101026402D01*
X128913254Y-100923118D01*
X128643927Y-100922883D01*
X128506275Y-100979759D01*
X128475530Y-100931980D01*
X128349547Y-100845899D01*
X128200000Y-100815615D01*
X127400000Y-100815615D01*
X127260292Y-100841903D01*
X127131980Y-100924470D01*
X127045899Y-101050453D01*
X127015615Y-101200000D01*
X126984385Y-101200000D01*
X126958097Y-101060292D01*
X126875530Y-100931980D01*
X126749547Y-100845899D01*
X126702000Y-100836270D01*
X126702000Y-88637936D01*
X129572906Y-85767029D01*
X129674073Y-85767117D01*
X129922989Y-85664267D01*
X130113598Y-85473990D01*
X130216882Y-85225254D01*
X130217117Y-84955927D01*
X130114267Y-84707011D01*
X129923990Y-84516402D01*
X129675254Y-84413118D01*
X129405927Y-84412883D01*
X129157011Y-84515733D01*
X128966402Y-84706010D01*
X128863118Y-84954746D01*
X128863029Y-85057036D01*
X125845032Y-88075032D01*
X125736212Y-88237893D01*
X125697999Y-88430000D01*
X125698000Y-88430005D01*
X125698000Y-100834808D01*
X125660292Y-100841903D01*
X125531980Y-100924470D01*
X125445899Y-101050453D01*
X125415615Y-101200000D01*
X100452000Y-101200000D01*
X100452000Y-57531000D01*
X103288585Y-57531000D01*
X103947104Y-58190669D01*
X103947104Y-58190669D01*
G37*
X103947104Y-58190669D02*
X105059251Y-58652473D01*
X106263466Y-58653524D01*
X107376417Y-58193662D01*
X108040236Y-57531000D01*
X161962585Y-57531000D01*
X162621104Y-58190669D01*
X163733251Y-58652473D01*
X164937466Y-58653524D01*
X166050417Y-58193662D01*
X166714236Y-57531000D01*
X169548000Y-57531000D01*
X169548000Y-149548000D01*
X100452000Y-149548000D01*
X100452000Y-146152000D01*
X130615615Y-146152000D01*
X130615615Y-147252000D01*
X130641903Y-147391708D01*
X130724470Y-147520020D01*
X130850453Y-147606101D01*
X131000000Y-147636385D01*
X132800000Y-147636385D01*
X132939708Y-147610097D01*
X133068020Y-147527530D01*
X133154101Y-147401547D01*
X133184385Y-147252000D01*
X133184385Y-147204000D01*
X136815615Y-147204000D01*
X136815615Y-147252000D01*
X136841903Y-147391708D01*
X136924470Y-147520020D01*
X137050453Y-147606101D01*
X137200000Y-147636385D01*
X139000000Y-147636385D01*
X139139708Y-147610097D01*
X139268020Y-147527530D01*
X139354101Y-147401547D01*
X139384385Y-147252000D01*
X139384385Y-147204000D01*
X139388728Y-147204000D01*
X139570010Y-147385598D01*
X139818746Y-147488882D01*
X140088073Y-147489117D01*
X140336989Y-147386267D01*
X140527598Y-147195990D01*
X140630882Y-146947254D01*
X140631117Y-146677927D01*
X140528267Y-146429011D01*
X140337990Y-146238402D01*
X140089254Y-146135118D01*
X139819927Y-146134883D01*
X139662332Y-146200000D01*
X139384385Y-146200000D01*
X139384385Y-146152000D01*
X139358097Y-146012292D01*
X139275530Y-145883980D01*
X139149547Y-145797899D01*
X139000000Y-145767615D01*
X137200000Y-145767615D01*
X137060292Y-145793903D01*
X136931980Y-145876470D01*
X136845899Y-146002453D01*
X136815615Y-146152000D01*
X136815615Y-146200000D01*
X133184385Y-146200000D01*
X133184385Y-146152000D01*
X133158097Y-146012292D01*
X133075530Y-145883980D01*
X132949547Y-145797899D01*
X132800000Y-145767615D01*
X131000000Y-145767615D01*
X130860292Y-145793903D01*
X130731980Y-145876470D01*
X130645899Y-146002453D01*
X130615615Y-146152000D01*
X100452000Y-146152000D01*
X100452000Y-101200000D01*
X125415615Y-101200000D01*
X125415615Y-102000000D01*
X125441903Y-102139708D01*
X125524470Y-102268020D01*
X125650453Y-102354101D01*
X125698000Y-102363730D01*
X125698000Y-105914808D01*
X125660292Y-105921903D01*
X125531980Y-106004470D01*
X125445899Y-106130453D01*
X125415615Y-106280000D01*
X125415615Y-107080000D01*
X125441903Y-107219708D01*
X125524470Y-107348020D01*
X125650453Y-107434101D01*
X125698000Y-107443730D01*
X125698000Y-110994808D01*
X125660292Y-111001903D01*
X125531980Y-111084470D01*
X125445899Y-111210453D01*
X125415615Y-111360000D01*
X125415615Y-112160000D01*
X125441903Y-112299708D01*
X125524470Y-112428020D01*
X125650453Y-112514101D01*
X125698000Y-112523730D01*
X125698000Y-116074808D01*
X125660292Y-116081903D01*
X125531980Y-116164470D01*
X125445899Y-116290453D01*
X125415615Y-116440000D01*
X125415615Y-117240000D01*
X125441903Y-117379708D01*
X125524470Y-117508020D01*
X125650453Y-117594101D01*
X125800000Y-117624385D01*
X126600000Y-117624385D01*
X126739708Y-117598097D01*
X126868020Y-117515530D01*
X126954101Y-117389547D01*
X126984385Y-117240000D01*
X126984385Y-116440000D01*
X127015615Y-116440000D01*
X127015615Y-117240000D01*
X127041903Y-117379708D01*
X127124470Y-117508020D01*
X127250453Y-117594101D01*
X127400000Y-117624385D01*
X128200000Y-117624385D01*
X128339708Y-117598097D01*
X128468020Y-117515530D01*
X128505917Y-117460066D01*
X128642746Y-117516882D01*
X128912073Y-117517117D01*
X129160989Y-117414267D01*
X129351598Y-117223990D01*
X129454882Y-116975254D01*
X129455117Y-116705927D01*
X129352267Y-116457011D01*
X129161990Y-116266402D01*
X128913254Y-116163118D01*
X128643927Y-116162883D01*
X128506275Y-116219759D01*
X128475530Y-116171980D01*
X128349547Y-116085899D01*
X128200000Y-116055615D01*
X127400000Y-116055615D01*
X127260292Y-116081903D01*
X127131980Y-116164470D01*
X127045899Y-116290453D01*
X127015615Y-116440000D01*
X126984385Y-116440000D01*
X126958097Y-116300292D01*
X126875530Y-116171980D01*
X126749547Y-116085899D01*
X126702000Y-116076270D01*
X126702000Y-112525192D01*
X126739708Y-112518097D01*
X126868020Y-112435530D01*
X126954101Y-112309547D01*
X126984385Y-112160000D01*
X126984385Y-111360000D01*
X127015615Y-111360000D01*
X127015615Y-112160000D01*
X127041903Y-112299708D01*
X127124470Y-112428020D01*
X127250453Y-112514101D01*
X127400000Y-112544385D01*
X128200000Y-112544385D01*
X128339708Y-112518097D01*
X128468020Y-112435530D01*
X128505917Y-112380066D01*
X128642746Y-112436882D01*
X128912073Y-112437117D01*
X129160989Y-112334267D01*
X129351598Y-112143990D01*
X129454882Y-111895254D01*
X129455117Y-111625927D01*
X129352267Y-111377011D01*
X129161990Y-111186402D01*
X128913254Y-111083118D01*
X128643927Y-111082883D01*
X128506275Y-111139759D01*
X128475530Y-111091980D01*
X128349547Y-111005899D01*
X128200000Y-110975615D01*
X127400000Y-110975615D01*
X127260292Y-111001903D01*
X127131980Y-111084470D01*
X127045899Y-111210453D01*
X127015615Y-111360000D01*
X126984385Y-111360000D01*
X126958097Y-111220292D01*
X126875530Y-111091980D01*
X126749547Y-111005899D01*
X126702000Y-110996270D01*
X126702000Y-107445192D01*
X126739708Y-107438097D01*
X126868020Y-107355530D01*
X126954101Y-107229547D01*
X126984385Y-107080000D01*
X126984385Y-106280000D01*
X127015615Y-106280000D01*
X127015615Y-107080000D01*
X127041903Y-107219708D01*
X127124470Y-107348020D01*
X127250453Y-107434101D01*
X127400000Y-107464385D01*
X128200000Y-107464385D01*
X128339708Y-107438097D01*
X128468020Y-107355530D01*
X128505917Y-107300066D01*
X128642746Y-107356882D01*
X128912073Y-107357117D01*
X129160989Y-107254267D01*
X129351598Y-107063990D01*
X129454882Y-106815254D01*
X129455117Y-106545927D01*
X129352267Y-106297011D01*
X129161990Y-106106402D01*
X128913254Y-106003118D01*
X128643927Y-106002883D01*
X128506275Y-106059759D01*
X128475530Y-106011980D01*
X128349547Y-105925899D01*
X128200000Y-105895615D01*
X127400000Y-105895615D01*
X127260292Y-105921903D01*
X127131980Y-106004470D01*
X127045899Y-106130453D01*
X127015615Y-106280000D01*
X126984385Y-106280000D01*
X126958097Y-106140292D01*
X126875530Y-106011980D01*
X126749547Y-105925899D01*
X126702000Y-105916270D01*
X126702000Y-102365192D01*
X126739708Y-102358097D01*
X126868020Y-102275530D01*
X126954101Y-102149547D01*
X126984385Y-102000000D01*
X126984385Y-101200000D01*
X127015615Y-101200000D01*
X127015615Y-102000000D01*
X127041903Y-102139708D01*
X127124470Y-102268020D01*
X127250453Y-102354101D01*
X127400000Y-102384385D01*
X128200000Y-102384385D01*
X128339708Y-102358097D01*
X128468020Y-102275530D01*
X128505917Y-102220066D01*
X128642746Y-102276882D01*
X128912073Y-102277117D01*
X129160989Y-102174267D01*
X129351598Y-101983990D01*
X129454882Y-101735254D01*
X129455117Y-101465927D01*
X129352267Y-101217011D01*
X129335286Y-101200000D01*
X130495615Y-101200000D01*
X130495615Y-102000000D01*
X130521903Y-102139708D01*
X130604470Y-102268020D01*
X130730453Y-102354101D01*
X130778000Y-102363730D01*
X130778000Y-105914808D01*
X130740292Y-105921903D01*
X130611980Y-106004470D01*
X130525899Y-106130453D01*
X130495615Y-106280000D01*
X130495615Y-107080000D01*
X130521903Y-107219708D01*
X130604470Y-107348020D01*
X130730453Y-107434101D01*
X130778000Y-107443730D01*
X130778000Y-110994808D01*
X130740292Y-111001903D01*
X130611980Y-111084470D01*
X130525899Y-111210453D01*
X130495615Y-111360000D01*
X130495615Y-112160000D01*
X130521903Y-112299708D01*
X130604470Y-112428020D01*
X130730453Y-112514101D01*
X130778000Y-112523730D01*
X130778000Y-116074808D01*
X130740292Y-116081903D01*
X130611980Y-116164470D01*
X130525899Y-116290453D01*
X130495615Y-116440000D01*
X130495615Y-117240000D01*
X130521903Y-117379708D01*
X130604470Y-117508020D01*
X130730453Y-117594101D01*
X130880000Y-117624385D01*
X131680000Y-117624385D01*
X131819708Y-117598097D01*
X131948020Y-117515530D01*
X132034101Y-117389547D01*
X132064385Y-117240000D01*
X132064385Y-116440000D01*
X132095615Y-116440000D01*
X132095615Y-117240000D01*
X132121903Y-117379708D01*
X132204470Y-117508020D01*
X132330453Y-117594101D01*
X132480000Y-117624385D01*
X133280000Y-117624385D01*
X133419708Y-117598097D01*
X133548020Y-117515530D01*
X133585917Y-117460066D01*
X133722746Y-117516882D01*
X133992073Y-117517117D01*
X134240989Y-117414267D01*
X134431598Y-117223990D01*
X134534882Y-116975254D01*
X134535117Y-116705927D01*
X134432267Y-116457011D01*
X134241990Y-116266402D01*
X133993254Y-116163118D01*
X133723927Y-116162883D01*
X133586275Y-116219759D01*
X133555530Y-116171980D01*
X133429547Y-116085899D01*
X133280000Y-116055615D01*
X132480000Y-116055615D01*
X132340292Y-116081903D01*
X132211980Y-116164470D01*
X132125899Y-116290453D01*
X132095615Y-116440000D01*
X132064385Y-116440000D01*
X132038097Y-116300292D01*
X131955530Y-116171980D01*
X131829547Y-116085899D01*
X131782000Y-116076270D01*
X131782000Y-112525192D01*
X131819708Y-112518097D01*
X131948020Y-112435530D01*
X132034101Y-112309547D01*
X132064385Y-112160000D01*
X132064385Y-111360000D01*
X132095615Y-111360000D01*
X132095615Y-112160000D01*
X132121903Y-112299708D01*
X132204470Y-112428020D01*
X132330453Y-112514101D01*
X132480000Y-112544385D01*
X133280000Y-112544385D01*
X133419708Y-112518097D01*
X133548020Y-112435530D01*
X133585917Y-112380066D01*
X133722746Y-112436882D01*
X133992073Y-112437117D01*
X134240989Y-112334267D01*
X134431598Y-112143990D01*
X134534882Y-111895254D01*
X134535117Y-111625927D01*
X134432267Y-111377011D01*
X134241990Y-111186402D01*
X133993254Y-111083118D01*
X133723927Y-111082883D01*
X133586275Y-111139759D01*
X133555530Y-111091980D01*
X133429547Y-111005899D01*
X133280000Y-110975615D01*
X132480000Y-110975615D01*
X132340292Y-111001903D01*
X132211980Y-111084470D01*
X132125899Y-111210453D01*
X132095615Y-111360000D01*
X132064385Y-111360000D01*
X132038097Y-111220292D01*
X131955530Y-111091980D01*
X131829547Y-111005899D01*
X131782000Y-110996270D01*
X131782000Y-107445192D01*
X131819708Y-107438097D01*
X131948020Y-107355530D01*
X132034101Y-107229547D01*
X132064385Y-107080000D01*
X132064385Y-106280000D01*
X132095615Y-106280000D01*
X132095615Y-107080000D01*
X132121903Y-107219708D01*
X132204470Y-107348020D01*
X132330453Y-107434101D01*
X132480000Y-107464385D01*
X133280000Y-107464385D01*
X133419708Y-107438097D01*
X133548020Y-107355530D01*
X133585917Y-107300066D01*
X133722746Y-107356882D01*
X133992073Y-107357117D01*
X134240989Y-107254267D01*
X134431598Y-107063990D01*
X134534882Y-106815254D01*
X134535117Y-106545927D01*
X134432267Y-106297011D01*
X134241990Y-106106402D01*
X133993254Y-106003118D01*
X133723927Y-106002883D01*
X133586275Y-106059759D01*
X133555530Y-106011980D01*
X133429547Y-105925899D01*
X133280000Y-105895615D01*
X132480000Y-105895615D01*
X132340292Y-105921903D01*
X132211980Y-106004470D01*
X132125899Y-106130453D01*
X132095615Y-106280000D01*
X132064385Y-106280000D01*
X132038097Y-106140292D01*
X131955530Y-106011980D01*
X131829547Y-105925899D01*
X131782000Y-105916270D01*
X131782000Y-102365192D01*
X131819708Y-102358097D01*
X131948020Y-102275530D01*
X132034101Y-102149547D01*
X132064385Y-102000000D01*
X132064385Y-101200000D01*
X132095615Y-101200000D01*
X132095615Y-102000000D01*
X132121903Y-102139708D01*
X132204470Y-102268020D01*
X132330453Y-102354101D01*
X132480000Y-102384385D01*
X133280000Y-102384385D01*
X133419708Y-102358097D01*
X133548020Y-102275530D01*
X133585917Y-102220066D01*
X133722746Y-102276882D01*
X133992073Y-102277117D01*
X134240989Y-102174267D01*
X134431598Y-101983990D01*
X134534882Y-101735254D01*
X134535117Y-101465927D01*
X134432267Y-101217011D01*
X134241990Y-101026402D01*
X133993254Y-100923118D01*
X133723927Y-100922883D01*
X133586275Y-100979759D01*
X133555530Y-100931980D01*
X133429547Y-100845899D01*
X133280000Y-100815615D01*
X132480000Y-100815615D01*
X132340292Y-100841903D01*
X132211980Y-100924470D01*
X132125899Y-101050453D01*
X132095615Y-101200000D01*
X132064385Y-101200000D01*
X132038097Y-101060292D01*
X131955530Y-100931980D01*
X131829547Y-100845899D01*
X131782000Y-100836270D01*
X131782000Y-81779936D01*
X132620907Y-80941029D01*
X132722073Y-80941117D01*
X132970989Y-80838267D01*
X132987864Y-80821421D01*
X133004013Y-80837598D01*
X133252749Y-80940882D01*
X133355038Y-80940971D01*
X135858000Y-83443932D01*
X135858000Y-100834808D01*
X135820292Y-100841903D01*
X135691980Y-100924470D01*
X135605899Y-101050453D01*
X135575615Y-101200000D01*
X135575615Y-102000000D01*
X135601903Y-102139708D01*
X135684470Y-102268020D01*
X135810453Y-102354101D01*
X135858000Y-102363730D01*
X135858000Y-105914808D01*
X135820292Y-105921903D01*
X135691980Y-106004470D01*
X135605899Y-106130453D01*
X135575615Y-106280000D01*
X135575615Y-107080000D01*
X135601903Y-107219708D01*
X135684470Y-107348020D01*
X135810453Y-107434101D01*
X135858000Y-107443730D01*
X135858000Y-110994808D01*
X135820292Y-111001903D01*
X135691980Y-111084470D01*
X135605899Y-111210453D01*
X135575615Y-111360000D01*
X135575615Y-112160000D01*
X135601903Y-112299708D01*
X135684470Y-112428020D01*
X135810453Y-112514101D01*
X135858000Y-112523730D01*
X135858000Y-116074808D01*
X135820292Y-116081903D01*
X135691980Y-116164470D01*
X135605899Y-116290453D01*
X135575615Y-116440000D01*
X135575615Y-117240000D01*
X135601903Y-117379708D01*
X135684470Y-117508020D01*
X135810453Y-117594101D01*
X135960000Y-117624385D01*
X136760000Y-117624385D01*
X136899708Y-117598097D01*
X137028020Y-117515530D01*
X137114101Y-117389547D01*
X137144385Y-117240000D01*
X137144385Y-116440000D01*
X137175615Y-116440000D01*
X137175615Y-117240000D01*
X137201903Y-117379708D01*
X137284470Y-117508020D01*
X137410453Y-117594101D01*
X137560000Y-117624385D01*
X138360000Y-117624385D01*
X138499708Y-117598097D01*
X138628020Y-117515530D01*
X138665917Y-117460066D01*
X138802746Y-117516882D01*
X139072073Y-117517117D01*
X139320989Y-117414267D01*
X139511598Y-117223990D01*
X139614882Y-116975254D01*
X139615117Y-116705927D01*
X139512267Y-116457011D01*
X139321990Y-116266402D01*
X139073254Y-116163118D01*
X138803927Y-116162883D01*
X138666275Y-116219759D01*
X138635530Y-116171980D01*
X138509547Y-116085899D01*
X138360000Y-116055615D01*
X137560000Y-116055615D01*
X137420292Y-116081903D01*
X137291980Y-116164470D01*
X137205899Y-116290453D01*
X137175615Y-116440000D01*
X137144385Y-116440000D01*
X137118097Y-116300292D01*
X137035530Y-116171980D01*
X136909547Y-116085899D01*
X136862000Y-116076270D01*
X136862000Y-112525192D01*
X136899708Y-112518097D01*
X137028020Y-112435530D01*
X137114101Y-112309547D01*
X137144385Y-112160000D01*
X137144385Y-111360000D01*
X137175615Y-111360000D01*
X137175615Y-112160000D01*
X137201903Y-112299708D01*
X137284470Y-112428020D01*
X137410453Y-112514101D01*
X137560000Y-112544385D01*
X138360000Y-112544385D01*
X138499708Y-112518097D01*
X138628020Y-112435530D01*
X138665917Y-112380066D01*
X138802746Y-112436882D01*
X139072073Y-112437117D01*
X139320989Y-112334267D01*
X139511598Y-112143990D01*
X139614882Y-111895254D01*
X139615117Y-111625927D01*
X139512267Y-111377011D01*
X139321990Y-111186402D01*
X139073254Y-111083118D01*
X138803927Y-111082883D01*
X138666275Y-111139759D01*
X138635530Y-111091980D01*
X138509547Y-111005899D01*
X138360000Y-110975615D01*
X137560000Y-110975615D01*
X137420292Y-111001903D01*
X137291980Y-111084470D01*
X137205899Y-111210453D01*
X137175615Y-111360000D01*
X137144385Y-111360000D01*
X137118097Y-111220292D01*
X137035530Y-111091980D01*
X136909547Y-111005899D01*
X136862000Y-110996270D01*
X136862000Y-107445192D01*
X136899708Y-107438097D01*
X137028020Y-107355530D01*
X137114101Y-107229547D01*
X137144385Y-107080000D01*
X137144385Y-106280000D01*
X137175615Y-106280000D01*
X137175615Y-107080000D01*
X137201903Y-107219708D01*
X137284470Y-107348020D01*
X137410453Y-107434101D01*
X137560000Y-107464385D01*
X138360000Y-107464385D01*
X138499708Y-107438097D01*
X138628020Y-107355530D01*
X138665917Y-107300066D01*
X138802746Y-107356882D01*
X139072073Y-107357117D01*
X139320989Y-107254267D01*
X139511598Y-107063990D01*
X139614882Y-106815254D01*
X139615117Y-106545927D01*
X139512267Y-106297011D01*
X139321990Y-106106402D01*
X139073254Y-106003118D01*
X138803927Y-106002883D01*
X138666275Y-106059759D01*
X138635530Y-106011980D01*
X138509547Y-105925899D01*
X138360000Y-105895615D01*
X137560000Y-105895615D01*
X137420292Y-105921903D01*
X137291980Y-106004470D01*
X137205899Y-106130453D01*
X137175615Y-106280000D01*
X137144385Y-106280000D01*
X137118097Y-106140292D01*
X137035530Y-106011980D01*
X136909547Y-105925899D01*
X136862000Y-105916270D01*
X136862000Y-102365192D01*
X136899708Y-102358097D01*
X137028020Y-102275530D01*
X137114101Y-102149547D01*
X137144385Y-102000000D01*
X137144385Y-101200000D01*
X137175615Y-101200000D01*
X137175615Y-102000000D01*
X137201903Y-102139708D01*
X137284470Y-102268020D01*
X137410453Y-102354101D01*
X137560000Y-102384385D01*
X138360000Y-102384385D01*
X138499708Y-102358097D01*
X138628020Y-102275530D01*
X138665917Y-102220066D01*
X138802746Y-102276882D01*
X139072073Y-102277117D01*
X139320989Y-102174267D01*
X139511598Y-101983990D01*
X139614882Y-101735254D01*
X139615117Y-101465927D01*
X139512267Y-101217011D01*
X139321990Y-101026402D01*
X139073254Y-100923118D01*
X138803927Y-100922883D01*
X138666275Y-100979759D01*
X138635530Y-100931980D01*
X138509547Y-100845899D01*
X138360000Y-100815615D01*
X137560000Y-100815615D01*
X137420292Y-100841903D01*
X137291980Y-100924470D01*
X137205899Y-101050453D01*
X137175615Y-101200000D01*
X137144385Y-101200000D01*
X137118097Y-101060292D01*
X137035530Y-100931980D01*
X136909547Y-100845899D01*
X136862000Y-100836270D01*
X136862000Y-83564048D01*
X140938000Y-87640047D01*
X140938000Y-100834808D01*
X140900292Y-100841903D01*
X140771980Y-100924470D01*
X140685899Y-101050453D01*
X140655615Y-101200000D01*
X140655615Y-102000000D01*
X140681903Y-102139708D01*
X140764470Y-102268020D01*
X140890453Y-102354101D01*
X140938000Y-102363730D01*
X140938000Y-105914808D01*
X140900292Y-105921903D01*
X140771980Y-106004470D01*
X140685899Y-106130453D01*
X140655615Y-106280000D01*
X140655615Y-107080000D01*
X140681903Y-107219708D01*
X140764470Y-107348020D01*
X140890453Y-107434101D01*
X140938000Y-107443730D01*
X140938000Y-110994808D01*
X140900292Y-111001903D01*
X140771980Y-111084470D01*
X140685899Y-111210453D01*
X140655615Y-111360000D01*
X140655615Y-112160000D01*
X140681903Y-112299708D01*
X140764470Y-112428020D01*
X140890453Y-112514101D01*
X140938000Y-112523730D01*
X140938000Y-116074808D01*
X140900292Y-116081903D01*
X140771980Y-116164470D01*
X140685899Y-116290453D01*
X140655615Y-116440000D01*
X140655615Y-117240000D01*
X140681903Y-117379708D01*
X140764470Y-117508020D01*
X140890453Y-117594101D01*
X141040000Y-117624385D01*
X141840000Y-117624385D01*
X141979708Y-117598097D01*
X142108020Y-117515530D01*
X142194101Y-117389547D01*
X142224385Y-117240000D01*
X142224385Y-116440000D01*
X142255615Y-116440000D01*
X142255615Y-117240000D01*
X142281903Y-117379708D01*
X142364470Y-117508020D01*
X142490453Y-117594101D01*
X142640000Y-117624385D01*
X143440000Y-117624385D01*
X143579708Y-117598097D01*
X143708020Y-117515530D01*
X143745917Y-117460066D01*
X143882746Y-117516882D01*
X144152073Y-117517117D01*
X144400989Y-117414267D01*
X144591598Y-117223990D01*
X144694882Y-116975254D01*
X144695117Y-116705927D01*
X144592267Y-116457011D01*
X144401990Y-116266402D01*
X144153254Y-116163118D01*
X143883927Y-116162883D01*
X143746275Y-116219759D01*
X143715530Y-116171980D01*
X143589547Y-116085899D01*
X143440000Y-116055615D01*
X142640000Y-116055615D01*
X142500292Y-116081903D01*
X142371980Y-116164470D01*
X142285899Y-116290453D01*
X142255615Y-116440000D01*
X142224385Y-116440000D01*
X142198097Y-116300292D01*
X142115530Y-116171980D01*
X141989547Y-116085899D01*
X141942000Y-116076270D01*
X141942000Y-112525192D01*
X141979708Y-112518097D01*
X142108020Y-112435530D01*
X142194101Y-112309547D01*
X142224385Y-112160000D01*
X142224385Y-111360000D01*
X142255615Y-111360000D01*
X142255615Y-112160000D01*
X142281903Y-112299708D01*
X142364470Y-112428020D01*
X142490453Y-112514101D01*
X142640000Y-112544385D01*
X143440000Y-112544385D01*
X143579708Y-112518097D01*
X143708020Y-112435530D01*
X143745917Y-112380066D01*
X143882746Y-112436882D01*
X144152073Y-112437117D01*
X144400989Y-112334267D01*
X144591598Y-112143990D01*
X144694882Y-111895254D01*
X144695117Y-111625927D01*
X144592267Y-111377011D01*
X144401990Y-111186402D01*
X144153254Y-111083118D01*
X143883927Y-111082883D01*
X143746275Y-111139759D01*
X143715530Y-111091980D01*
X143589547Y-111005899D01*
X143440000Y-110975615D01*
X142640000Y-110975615D01*
X142500292Y-111001903D01*
X142371980Y-111084470D01*
X142285899Y-111210453D01*
X142255615Y-111360000D01*
X142224385Y-111360000D01*
X142198097Y-111220292D01*
X142115530Y-111091980D01*
X141989547Y-111005899D01*
X141942000Y-110996270D01*
X141942000Y-107445192D01*
X141979708Y-107438097D01*
X142108020Y-107355530D01*
X142194101Y-107229547D01*
X142224385Y-107080000D01*
X142224385Y-106280000D01*
X142255615Y-106280000D01*
X142255615Y-107080000D01*
X142281903Y-107219708D01*
X142364470Y-107348020D01*
X142490453Y-107434101D01*
X142640000Y-107464385D01*
X143440000Y-107464385D01*
X143579708Y-107438097D01*
X143708020Y-107355530D01*
X143745917Y-107300066D01*
X143882746Y-107356882D01*
X144152073Y-107357117D01*
X144400989Y-107254267D01*
X144591598Y-107063990D01*
X144694882Y-106815254D01*
X144695117Y-106545927D01*
X144592267Y-106297011D01*
X144401990Y-106106402D01*
X144153254Y-106003118D01*
X143883927Y-106002883D01*
X143746275Y-106059759D01*
X143715530Y-106011980D01*
X143589547Y-105925899D01*
X143440000Y-105895615D01*
X142640000Y-105895615D01*
X142500292Y-105921903D01*
X142371980Y-106004470D01*
X142285899Y-106130453D01*
X142255615Y-106280000D01*
X142224385Y-106280000D01*
X142198097Y-106140292D01*
X142115530Y-106011980D01*
X141989547Y-105925899D01*
X141942000Y-105916270D01*
X141942000Y-102365192D01*
X141979708Y-102358097D01*
X142108020Y-102275530D01*
X142194101Y-102149547D01*
X142224385Y-102000000D01*
X142224385Y-101200000D01*
X142255615Y-101200000D01*
X142255615Y-102000000D01*
X142281903Y-102139708D01*
X142364470Y-102268020D01*
X142490453Y-102354101D01*
X142640000Y-102384385D01*
X143440000Y-102384385D01*
X143579708Y-102358097D01*
X143708020Y-102275530D01*
X143745917Y-102220066D01*
X143882746Y-102276882D01*
X144152073Y-102277117D01*
X144400989Y-102174267D01*
X144591598Y-101983990D01*
X144694882Y-101735254D01*
X144695117Y-101465927D01*
X144592267Y-101217011D01*
X144401990Y-101026402D01*
X144153254Y-100923118D01*
X143883927Y-100922883D01*
X143746275Y-100979759D01*
X143715530Y-100931980D01*
X143589547Y-100845899D01*
X143440000Y-100815615D01*
X142640000Y-100815615D01*
X142500292Y-100841903D01*
X142371980Y-100924470D01*
X142285899Y-101050453D01*
X142255615Y-101200000D01*
X142224385Y-101200000D01*
X142198097Y-101060292D01*
X142115530Y-100931980D01*
X141989547Y-100845899D01*
X141942000Y-100836270D01*
X141942000Y-87533936D01*
X145294000Y-90885936D01*
X145294000Y-117902065D01*
X137745032Y-125451032D01*
X137636212Y-125613893D01*
X137597999Y-125806000D01*
X137598000Y-125806005D01*
X137598000Y-142067615D01*
X137200000Y-142067615D01*
X137060292Y-142093903D01*
X136931980Y-142176470D01*
X136845899Y-142302453D01*
X136815615Y-142452000D01*
X136815615Y-142500000D01*
X133184385Y-142500000D01*
X133184385Y-142452000D01*
X133158097Y-142312292D01*
X133075530Y-142183980D01*
X132949547Y-142097899D01*
X132800000Y-142067615D01*
X131000000Y-142067615D01*
X130860292Y-142093903D01*
X130731980Y-142176470D01*
X130645899Y-142302453D01*
X130615615Y-142452000D01*
X130615615Y-143552000D01*
X130641903Y-143691708D01*
X130724470Y-143820020D01*
X130850453Y-143906101D01*
X131000000Y-143936385D01*
X132800000Y-143936385D01*
X132939708Y-143910097D01*
X133068020Y-143827530D01*
X133154101Y-143701547D01*
X133184385Y-143552000D01*
X133184385Y-143504000D01*
X136815615Y-143504000D01*
X136815615Y-143552000D01*
X136841903Y-143691708D01*
X136924470Y-143820020D01*
X137050453Y-143906101D01*
X137200000Y-143936385D01*
X139000000Y-143936385D01*
X139139708Y-143910097D01*
X139268020Y-143827530D01*
X139354101Y-143701547D01*
X139384385Y-143552000D01*
X139384385Y-142452000D01*
X139358097Y-142312292D01*
X139275530Y-142183980D01*
X139149547Y-142097899D01*
X139000000Y-142067615D01*
X138602000Y-142067615D01*
X138602000Y-126013936D01*
X146150965Y-118464970D01*
X146150968Y-118464968D01*
X146259788Y-118302107D01*
X146298001Y-118110000D01*
X146298000Y-118109995D01*
X146298000Y-90678005D01*
X146298001Y-90678000D01*
X146259788Y-90485892D01*
X146150968Y-90323032D01*
X141933936Y-86106000D01*
X161054962Y-86106000D01*
X161148362Y-86575553D01*
X161414342Y-86973620D01*
X161812409Y-87239600D01*
X162281962Y-87333000D01*
X162330038Y-87333000D01*
X162799591Y-87239600D01*
X163197658Y-86973620D01*
X163463638Y-86575553D01*
X163557038Y-86106000D01*
X163594962Y-86106000D01*
X163688362Y-86575553D01*
X163954342Y-86973620D01*
X164352409Y-87239600D01*
X164821962Y-87333000D01*
X164870038Y-87333000D01*
X165339591Y-87239600D01*
X165737658Y-86973620D01*
X166003638Y-86575553D01*
X166097038Y-86106000D01*
X166003638Y-85636447D01*
X165737658Y-85238380D01*
X165339591Y-84972400D01*
X164870038Y-84879000D01*
X164821962Y-84879000D01*
X164352409Y-84972400D01*
X163954342Y-85238380D01*
X163688362Y-85636447D01*
X163594962Y-86106000D01*
X163557038Y-86106000D01*
X163463638Y-85636447D01*
X163197658Y-85238380D01*
X162799591Y-84972400D01*
X162330038Y-84879000D01*
X162281962Y-84879000D01*
X161812409Y-84972400D01*
X161414342Y-85238380D01*
X161148362Y-85636447D01*
X161054962Y-86106000D01*
X141933936Y-86106000D01*
X139393936Y-83566000D01*
X161054962Y-83566000D01*
X161148362Y-84035553D01*
X161414342Y-84433620D01*
X161812409Y-84699600D01*
X162281962Y-84793000D01*
X162330038Y-84793000D01*
X162799591Y-84699600D01*
X163197658Y-84433620D01*
X163463638Y-84035553D01*
X163557038Y-83566000D01*
X163463638Y-83096447D01*
X163197658Y-82698380D01*
X162799591Y-82432400D01*
X162330038Y-82339000D01*
X162281962Y-82339000D01*
X161812409Y-82432400D01*
X161414342Y-82698380D01*
X161148362Y-83096447D01*
X161054962Y-83566000D01*
X139393936Y-83566000D01*
X137204521Y-81376585D01*
X137277001Y-81391002D01*
X137277006Y-81391001D01*
X138475996Y-81391001D01*
X138476001Y-81391002D01*
X138668108Y-81352789D01*
X138830969Y-81243969D01*
X139155966Y-80918971D01*
X139155969Y-80918969D01*
X139221201Y-80821341D01*
X139264789Y-80756109D01*
X139303001Y-80564001D01*
X139303001Y-80176000D01*
X161071615Y-80176000D01*
X161071615Y-81876000D01*
X161097903Y-82015708D01*
X161180470Y-82144020D01*
X161306453Y-82230101D01*
X161456000Y-82260385D01*
X163156000Y-82260385D01*
X163295708Y-82234097D01*
X163424020Y-82151530D01*
X163510101Y-82025547D01*
X163540385Y-81876000D01*
X163540385Y-81710908D01*
X163574355Y-81792924D01*
X163964642Y-82221183D01*
X164395954Y-82423738D01*
X164352409Y-82432400D01*
X163954342Y-82698380D01*
X163688362Y-83096447D01*
X163594962Y-83566000D01*
X163688362Y-84035553D01*
X163954342Y-84433620D01*
X164352409Y-84699600D01*
X164821962Y-84793000D01*
X164870038Y-84793000D01*
X165339591Y-84699600D01*
X165737658Y-84433620D01*
X166003638Y-84035553D01*
X166097038Y-83566000D01*
X166003638Y-83096447D01*
X165737658Y-82698380D01*
X165339591Y-82432400D01*
X165296046Y-82423738D01*
X165727358Y-82221183D01*
X166117645Y-81792924D01*
X166287476Y-81382890D01*
X166166155Y-81153000D01*
X164973000Y-81153000D01*
X164973000Y-81173000D01*
X164719000Y-81173000D01*
X164719000Y-81153000D01*
X164699000Y-81153000D01*
X164699000Y-80899000D01*
X164719000Y-80899000D01*
X164719000Y-79705181D01*
X164973000Y-79705181D01*
X164973000Y-80899000D01*
X166166155Y-80899000D01*
X166287476Y-80669110D01*
X166117645Y-80259076D01*
X165727358Y-79830817D01*
X165202892Y-79584514D01*
X164973000Y-79705181D01*
X164719000Y-79705181D01*
X164489108Y-79584514D01*
X163964642Y-79830817D01*
X163574355Y-80259076D01*
X163540385Y-80341092D01*
X163540385Y-80176000D01*
X163514097Y-80036292D01*
X163431530Y-79907980D01*
X163305547Y-79821899D01*
X163156000Y-79791615D01*
X161456000Y-79791615D01*
X161316292Y-79817903D01*
X161187980Y-79900470D01*
X161101899Y-80026453D01*
X161071615Y-80176000D01*
X139303001Y-80176000D01*
X139303001Y-68443001D01*
X139264789Y-68250894D01*
X139264789Y-68250893D01*
X139155969Y-68088033D01*
X137583029Y-66515093D01*
X137583117Y-66413927D01*
X137480267Y-66165011D01*
X137289990Y-65974402D01*
X137041254Y-65871118D01*
X136771927Y-65870883D01*
X136523011Y-65973733D01*
X136332402Y-66164010D01*
X136270977Y-66311939D01*
X136210267Y-66165011D01*
X136019990Y-65974402D01*
X135771254Y-65871118D01*
X135501927Y-65870883D01*
X135253011Y-65973733D01*
X135062402Y-66164010D01*
X134959118Y-66412746D01*
X134959029Y-66515036D01*
X133401973Y-68072091D01*
X133293153Y-68234952D01*
X133254940Y-68427059D01*
X133254941Y-68427064D01*
X133254941Y-75590936D01*
X133254940Y-75590941D01*
X133293153Y-75783048D01*
X133401973Y-75945909D01*
X134704971Y-77248906D01*
X134704883Y-77350073D01*
X134807733Y-77598989D01*
X134998010Y-77789598D01*
X135246746Y-77892882D01*
X135516073Y-77893117D01*
X135764989Y-77790267D01*
X135955598Y-77599990D01*
X136058882Y-77351254D01*
X136059117Y-77081927D01*
X135956267Y-76833011D01*
X135765990Y-76642402D01*
X135517254Y-76539118D01*
X135414964Y-76539029D01*
X134258941Y-75383005D01*
X134258941Y-68634995D01*
X135668906Y-67225029D01*
X135770073Y-67225117D01*
X136018989Y-67122267D01*
X136209598Y-66931990D01*
X136271023Y-66784061D01*
X136331733Y-66930989D01*
X136522010Y-67121598D01*
X136770746Y-67224882D01*
X136873035Y-67224971D01*
X138299001Y-68650937D01*
X138299001Y-72819065D01*
X135805029Y-70325093D01*
X135805117Y-70223927D01*
X135702267Y-69975011D01*
X135511990Y-69784402D01*
X135263254Y-69681118D01*
X134993927Y-69680883D01*
X134745011Y-69783733D01*
X134554402Y-69974010D01*
X134451118Y-70222746D01*
X134450883Y-70492073D01*
X134553733Y-70740989D01*
X134744010Y-70931598D01*
X134992746Y-71034882D01*
X135095035Y-71034971D01*
X137674000Y-73613936D01*
X137674000Y-79808537D01*
X137602402Y-79880010D01*
X137499118Y-80128746D01*
X137498893Y-80387001D01*
X137484937Y-80387001D01*
X137329029Y-80231093D01*
X137329117Y-80129927D01*
X137226267Y-79881011D01*
X137035990Y-79690402D01*
X136787254Y-79587118D01*
X136517927Y-79586883D01*
X136269011Y-79689733D01*
X136078402Y-79880010D01*
X136016977Y-80027939D01*
X135956267Y-79881011D01*
X135765990Y-79690402D01*
X135517254Y-79587118D01*
X135247927Y-79586883D01*
X134999011Y-79689733D01*
X134817413Y-79871014D01*
X134804214Y-79839070D01*
X134613937Y-79648461D01*
X134365201Y-79545177D01*
X134095874Y-79544942D01*
X133846958Y-79647792D01*
X133788105Y-79706542D01*
X133771993Y-79690402D01*
X133523257Y-79587118D01*
X133253930Y-79586883D01*
X133005014Y-79689733D01*
X132988139Y-79706579D01*
X132971990Y-79690402D01*
X132723254Y-79587118D01*
X132453927Y-79586883D01*
X132205011Y-79689733D01*
X132014402Y-79880010D01*
X131911118Y-80128746D01*
X131911029Y-80231036D01*
X130925032Y-81217032D01*
X130816212Y-81379893D01*
X130777999Y-81572000D01*
X130778000Y-81572005D01*
X130778000Y-100834808D01*
X130740292Y-100841903D01*
X130611980Y-100924470D01*
X130525899Y-101050453D01*
X130495615Y-101200000D01*
X129335286Y-101200000D01*
X129161990Y-101026402D01*
X128913254Y-100923118D01*
X128643927Y-100922883D01*
X128506275Y-100979759D01*
X128475530Y-100931980D01*
X128349547Y-100845899D01*
X128200000Y-100815615D01*
X127400000Y-100815615D01*
X127260292Y-100841903D01*
X127131980Y-100924470D01*
X127045899Y-101050453D01*
X127015615Y-101200000D01*
X126984385Y-101200000D01*
X126958097Y-101060292D01*
X126875530Y-100931980D01*
X126749547Y-100845899D01*
X126702000Y-100836270D01*
X126702000Y-88637936D01*
X129572906Y-85767029D01*
X129674073Y-85767117D01*
X129922989Y-85664267D01*
X130113598Y-85473990D01*
X130216882Y-85225254D01*
X130217117Y-84955927D01*
X130114267Y-84707011D01*
X129923990Y-84516402D01*
X129675254Y-84413118D01*
X129405927Y-84412883D01*
X129157011Y-84515733D01*
X128966402Y-84706010D01*
X128863118Y-84954746D01*
X128863029Y-85057036D01*
X125845032Y-88075032D01*
X125736212Y-88237893D01*
X125697999Y-88430000D01*
X125698000Y-88430005D01*
X125698000Y-100834808D01*
X125660292Y-100841903D01*
X125531980Y-100924470D01*
X125445899Y-101050453D01*
X125415615Y-101200000D01*
X100452000Y-101200000D01*
X100452000Y-57531000D01*
X103288585Y-57531000D01*
X103947104Y-58190669D01*
M02*
